{"glyphs":{"0":{"ha":914,"x_min":47,"x_max":867,"o":"m 456 978 q 699 933 608 978 q 828 778 789 888 q 867 479 867 669 q 828 180 867 289 q 699 26 789 71 q 456 -19 608 -19 q 215 26 304 -19 q 86 180 125 71 q 47 479 47 289 q 86 778 47 669 q 215 933 125 888 q 456 978 304 978 m 454 754 q 400 745 421 754 q 367 709 379 736 q 351 627 356 682 q 346 479 346 572 q 351 331 346 386 q 367 249 356 276 q 400 213 379 222 q 454 204 421 204 q 511 213 489 204 q 546 249 533 222 q 563 331 558 276 q 568 479 568 386 q 563 627 568 572 q 546 709 558 682 q 511 745 533 736 q 454 754 489 754 z "},"1":{"ha":647,"x_min":3,"x_max":547,"o":"m 547 958 l 547 0 l 247 0 l 247 600 q 249 663 247 632 q 258 724 251 693 l 38 681 l 3 865 l 247 958 l 547 958 z "},"2":{"ha":833,"x_min":46,"x_max":789,"o":"m 413 975 q 599 956 519 975 q 722 884 678 936 q 767 736 767 832 q 757 646 767 686 q 716 561 747 606 q 621 453 685 517 l 394 239 q 457 251 426 249 q 522 253 488 254 l 789 253 l 789 0 l 46 0 l 46 150 q 56 215 46 186 q 88 271 65 244 l 288 467 q 412 605 365 544 q 458 697 458 665 q 450 717 458 711 q 424 724 442 722 q 374 726 406 726 q 278 726 322 726 q 183 726 233 726 q 64 724 132 725 l 54 944 q 187 965 126 958 q 303 973 247 971 q 413 975 358 975 z "},"3":{"ha":803,"x_min":39,"x_max":756,"o":"m 396 978 q 592 958 519 978 q 697 889 665 938 q 729 754 729 840 q 717 633 729 683 q 670 552 704 582 q 571 513 636 522 l 571 507 q 714 435 675 492 q 754 267 753 379 q 721 101 756 164 q 608 9 686 38 q 397 -19 529 -19 q 216 -12 308 -19 q 39 7 124 -4 l 47 218 q 156 214 113 215 q 237 212 200 213 q 314 211 274 211 q 402 217 371 211 q 445 244 433 224 q 457 308 457 265 q 449 367 457 346 q 417 397 440 388 q 350 404 394 406 l 165 401 l 165 585 l 350 585 q 404 590 385 585 q 433 606 424 596 q 446 633 443 617 q 449 671 449 650 q 440 719 449 703 q 408 742 431 736 q 342 749 385 749 q 194 749 265 749 q 68 749 122 749 l 60 951 q 229 972 144 965 q 396 978 314 978 z "},"4":{"ha":915,"x_min":7,"x_max":892,"o":"m 531 958 l 336 421 q 338 396 331 406 q 360 386 344 386 l 892 386 l 892 222 l 785 194 l 124 194 q 56 215 85 194 q 17 268 28 235 q 21 338 7 301 l 253 958 l 531 958 m 782 769 l 782 0 l 508 0 l 508 622 l 557 769 l 782 769 z "},"5":{"ha":789,"x_min":33,"x_max":751,"o":"m 722 958 l 713 743 l 318 743 l 310 643 l 488 619 q 621 578 569 610 q 701 501 672 547 q 740 403 729 456 q 751 299 751 351 q 733 174 751 232 q 674 74 715 117 q 563 7 632 31 q 389 -17 493 -17 q 221 -10 313 -17 q 33 8 129 -3 l 58 232 q 194 226 129 229 q 310 224 258 224 q 395 232 365 224 q 438 259 425 240 q 453 310 450 278 q 449 351 456 335 q 426 379 442 368 q 386 396 411 390 q 325 404 361 401 l 150 426 q 90 458 113 432 q 68 521 67 485 l 94 958 l 722 958 z "},"6":{"ha":844,"x_min":49,"x_max":810,"o":"m 482 975 q 594 972 522 975 q 744 944 667 968 l 733 765 q 657 765 692 765 q 582 765 622 765 q 482 765 542 765 q 401 754 431 765 q 357 711 371 743 q 340 617 343 679 q 336 454 336 556 q 339 315 336 367 q 351 236 342 263 q 381 201 361 210 q 438 193 401 193 q 501 206 482 193 q 525 250 521 219 q 529 335 529 281 q 522 401 529 379 q 494 429 514 422 q 433 436 474 436 q 376 428 401 436 q 317 401 350 419 q 226 351 283 383 l 221 451 q 310 563 268 524 q 402 618 351 603 q 524 633 453 633 q 698 603 636 633 q 785 508 760 572 q 810 342 810 444 q 794 178 810 246 q 737 67 778 110 q 623 3 696 24 q 435 -17 550 -17 q 252 5 326 -17 q 133 79 178 26 q 69 228 89 132 q 49 471 49 324 q 76 735 49 635 q 157 887 103 835 q 292 957 211 939 q 482 975 374 975 z "},"7":{"ha":754,"x_min":19,"x_max":756,"o":"m 635 958 q 704 939 675 958 q 744 888 733 919 q 742 818 756 856 l 454 0 l 161 0 l 382 608 q 403 664 392 636 q 435 718 415 692 l 32 718 l 19 958 l 635 958 z "},"8":{"ha":888,"x_min":51,"x_max":838,"o":"m 444 978 q 632 963 560 978 q 744 916 704 947 q 798 836 783 885 q 813 719 813 788 q 797 622 813 671 q 749 540 782 574 q 663 500 717 506 l 663 494 q 772 451 735 489 q 824 356 810 413 q 838 239 838 300 q 806 86 838 143 q 688 5 774 29 q 444 -19 603 -19 q 203 5 289 -19 q 85 86 118 29 q 51 239 51 143 q 65 356 51 300 q 117 451 79 413 q 226 494 154 489 l 226 500 q 140 540 174 506 q 92 622 107 574 q 76 719 76 671 q 92 836 76 788 q 147 916 107 885 q 258 963 186 947 q 444 978 331 978 m 447 406 q 390 401 413 406 q 355 384 367 396 q 338 351 343 372 q 333 294 333 329 q 342 229 333 251 q 376 199 351 207 q 446 190 400 190 q 514 199 490 190 q 546 229 538 207 q 554 294 554 251 q 549 351 554 329 q 533 384 544 372 q 501 401 522 396 q 447 406 481 406 m 446 783 q 384 776 406 783 q 354 746 363 768 q 346 679 346 724 q 354 622 346 642 q 385 596 363 603 q 449 589 408 589 q 509 596 489 589 q 536 622 529 603 q 543 679 543 642 q 535 746 543 724 q 507 776 528 768 q 446 783 486 783 z "},"9":{"ha":844,"x_min":38,"x_max":794,"o":"m 411 975 q 603 953 528 975 q 719 879 678 932 q 778 731 761 826 q 794 488 794 636 q 771 224 794 324 q 697 72 747 124 q 563 1 646 19 q 361 -17 481 -17 q 242 -12 318 -17 q 76 14 165 -8 l 89 194 q 171 194 135 194 q 251 193 207 193 q 361 193 294 193 q 444 208 414 193 q 487 258 474 222 q 503 353 500 293 q 507 506 507 414 q 504 644 507 592 q 492 722 501 696 q 463 757 483 749 q 408 765 443 765 q 348 753 367 765 q 324 709 329 740 q 319 624 319 678 q 327 558 319 581 q 354 529 335 536 q 411 522 374 522 q 468 531 443 522 q 526 558 493 539 q 615 607 560 576 l 621 507 q 532 395 574 435 q 441 340 490 356 q 319 325 392 325 q 149 361 210 325 q 63 463 88 397 q 38 617 38 529 q 69 823 38 744 q 181 938 100 901 q 411 975 263 975 z "}," ":{"ha":292,"x_min":0,"x_max":0,"o":""},"A":{"ha":949,"x_min":-12,"x_max":961,"o":"m 611 958 q 675 938 647 958 q 713 881 703 917 l 961 0 l 654 0 l 510 624 q 500 678 504 650 q 493 733 496 707 l 456 733 q 449 678 453 707 q 439 624 444 650 l 294 0 l -12 0 l 236 881 q 274 938 246 917 q 338 958 301 958 l 611 958 m 729 418 l 729 207 l 219 207 l 219 418 l 729 418 z "},"B":{"ha":917,"x_min":72,"x_max":879,"o":"m 486 969 q 699 948 619 969 q 813 872 778 926 q 847 719 847 818 q 807 563 847 617 q 672 501 767 510 l 672 493 q 833 419 788 483 q 879 239 879 354 q 842 86 879 140 q 729 10 806 32 q 532 -11 653 -11 q 351 -10 429 -11 q 206 -7 272 -10 q 72 0 140 -4 l 94 197 q 235 194 131 196 q 478 193 339 193 q 542 201 519 193 q 572 233 564 210 q 579 300 579 257 q 571 368 579 344 q 541 400 563 392 q 476 408 519 408 l 93 408 l 93 585 l 474 585 q 527 592 508 585 q 553 619 546 599 q 560 676 560 639 q 553 733 560 714 q 526 758 546 751 q 471 765 507 765 q 318 766 383 765 q 200 766 253 767 q 94 761 147 765 l 72 958 q 194 966 135 964 q 324 969 254 968 q 486 969 394 969 m 367 958 l 367 0 l 72 0 l 72 958 l 367 958 z "},"C":{"ha":840,"x_min":44,"x_max":815,"o":"m 479 975 q 607 971 554 975 q 703 959 660 967 q 794 938 747 951 l 772 718 q 682 719 724 719 q 593 720 640 719 q 479 721 546 721 q 406 701 432 721 q 371 628 381 681 q 361 479 361 576 q 371 330 361 382 q 406 258 381 278 q 479 238 432 238 q 653 240 583 238 q 793 249 724 242 l 815 29 q 667 -6 743 4 q 479 -17 592 -17 q 225 31 321 -17 q 87 188 129 79 q 44 479 44 296 q 87 771 44 663 q 225 927 129 879 q 479 975 321 975 z "},"D":{"ha":974,"x_min":72,"x_max":929,"o":"m 482 972 q 691 949 606 972 q 829 872 776 926 q 906 721 882 817 q 929 479 929 625 q 906 238 929 333 q 829 87 882 142 q 691 9 776 32 q 482 -14 606 -14 q 263 -10 363 -14 q 72 0 163 -6 l 194 214 q 317 206 243 208 q 482 204 392 204 q 561 226 533 204 q 600 308 589 249 q 611 479 611 368 q 600 650 611 590 q 561 732 589 710 q 482 754 533 754 q 333 754 397 754 q 207 756 268 754 l 72 958 q 262 968 164 964 q 482 972 360 972 m 374 958 l 374 0 l 72 0 l 72 958 l 374 958 z "},"E":{"ha":828,"x_min":65,"x_max":789,"o":"m 290 964 q 462 963 374 964 q 635 959 550 963 q 789 946 719 956 l 775 733 l 424 733 q 382 719 397 733 q 367 683 367 706 l 367 275 q 382 239 367 253 q 424 225 397 225 l 775 225 l 789 13 q 635 0 719 4 q 462 -5 550 -4 q 290 -6 374 -6 q 128 55 192 -6 q 65 213 65 115 l 65 746 q 128 903 65 843 q 290 964 192 964 m 90 590 l 725 590 l 725 390 l 90 390 l 90 590 z "},"F":{"ha":797,"x_min":69,"x_max":779,"o":"m 297 964 q 464 963 378 964 q 632 958 550 963 q 779 944 714 954 l 765 733 l 431 733 q 387 719 403 733 q 371 683 371 706 l 371 0 l 69 0 l 69 746 q 133 903 69 843 q 297 964 197 964 m 94 571 l 714 571 l 714 371 l 94 371 l 94 571 z "},"G":{"ha":928,"x_min":44,"x_max":876,"o":"m 496 978 q 630 974 572 978 q 737 961 688 969 q 836 938 786 953 l 814 721 q 713 722 761 722 q 614 723 665 722 q 497 724 563 724 q 431 713 457 724 q 389 676 404 703 q 367 601 374 649 q 361 479 361 553 q 372 330 361 382 q 410 258 383 278 q 483 238 436 238 q 540 240 514 238 q 586 246 565 242 q 619 253 607 250 l 649 126 q 594 64 632 99 q 497 5 556 29 q 363 -19 439 -19 q 182 30 253 -19 q 78 189 111 79 q 44 479 44 299 q 88 773 44 664 q 231 930 132 882 q 496 978 331 978 m 876 551 l 876 0 l 654 0 l 615 149 l 588 200 l 588 551 l 876 551 z "},"H":{"ha":992,"x_min":74,"x_max":918,"o":"m 375 958 l 375 0 l 74 0 l 74 958 l 375 958 m 632 614 l 632 403 l 364 403 l 364 614 l 632 614 m 918 958 l 918 0 l 617 0 l 617 958 l 918 958 z "},"I":{"ha":446,"x_min":74,"x_max":372,"o":"m 372 958 l 372 0 l 74 0 l 74 958 l 372 958 z "},"J":{"ha":561,"x_min":14,"x_max":492,"o":"m 492 958 l 492 176 q 424 32 492 83 q 238 -19 356 -19 q 163 -15 207 -19 q 78 -3 119 -11 q 14 17 38 4 l 46 206 l 111 206 q 193 254 193 206 l 193 958 l 492 958 z "},"K":{"ha":939,"x_min":74,"x_max":951,"o":"m 938 958 l 717 583 q 675 529 699 551 q 632 499 651 507 l 632 493 q 681 458 651 485 q 728 399 711 431 l 951 0 l 617 0 l 363 501 l 614 958 l 938 958 m 375 958 l 375 717 q 365 608 375 664 q 332 503 354 551 q 362 406 349 458 q 375 313 375 354 l 375 0 l 74 0 l 74 958 l 375 958 m 450 594 l 450 400 l 289 400 l 289 594 l 450 594 z "},"L":{"ha":774,"x_min":69,"x_max":765,"o":"m 371 958 l 371 289 q 387 253 371 267 q 429 239 403 239 l 751 239 l 765 14 q 537 -3 658 0 q 297 -6 415 -6 q 131 55 193 -6 q 69 213 69 115 l 69 958 l 371 958 z "},"M":{"ha":1322,"x_min":56,"x_max":1267,"o":"m 1128 958 q 1233 854 1229 958 l 1267 0 l 996 0 l 967 733 l 946 733 l 851 244 q 738 153 838 153 l 582 153 q 467 244 483 153 l 371 733 l 350 733 l 326 0 l 56 0 l 89 854 q 194 958 93 958 l 454 958 q 568 865 551 958 l 638 485 q 647 414 643 450 q 653 342 650 378 l 665 342 q 673 414 669 378 q 682 485 676 450 l 747 865 q 863 958 764 958 l 1128 958 z "},"N":{"ha":1025,"x_min":72,"x_max":954,"o":"m 954 958 l 954 104 q 850 0 954 0 l 735 0 q 665 22 688 0 q 618 88 642 44 l 410 417 q 374 495 390 453 q 346 581 358 538 l 336 581 q 347 492 343 538 q 350 406 350 447 l 350 0 l 72 0 l 72 854 q 176 958 72 958 l 292 958 q 361 936 339 958 q 408 871 383 914 l 608 557 q 647 481 628 522 q 682 393 665 439 l 692 393 q 683 481 686 438 q 679 567 679 524 l 678 958 l 954 958 z "},"O":{"ha":982,"x_min":44,"x_max":938,"o":"m 490 978 q 699 955 614 978 q 838 876 785 932 q 914 724 890 821 q 938 479 938 628 q 914 235 938 332 q 838 82 890 138 q 699 3 785 26 q 490 -19 614 -19 q 283 3 368 -19 q 144 82 197 26 q 68 235 92 138 q 44 479 44 332 q 68 724 44 628 q 144 876 92 821 q 283 955 197 932 q 490 978 368 978 m 490 754 q 411 732 439 754 q 372 650 383 710 q 361 479 361 590 q 372 308 361 368 q 411 226 383 249 q 490 204 439 204 q 569 226 542 204 q 608 308 597 249 q 619 479 619 368 q 608 650 619 590 q 569 732 597 710 q 490 754 542 754 z "},"P":{"ha":897,"x_min":72,"x_max":875,"o":"m 478 972 q 717 944 631 972 q 839 844 803 915 q 875 646 875 774 q 841 449 875 519 q 729 351 807 379 q 519 322 651 322 q 381 330 450 322 q 251 349 311 338 q 147 374 190 361 q 88 399 104 388 l 92 535 q 279 535 182 535 q 471 535 376 535 q 535 544 513 535 q 565 577 557 553 q 574 646 574 601 q 565 717 574 692 q 535 751 557 742 q 471 760 513 760 q 229 758 329 760 q 93 753 129 757 l 72 958 q 192 968 136 965 q 315 972 249 971 q 478 972 382 972 m 374 958 l 374 0 l 72 0 l 72 958 l 374 958 z "},"Q":{"ha":982,"x_min":44,"x_max":938,"o":"m 490 978 q 699 955 614 978 q 838 876 785 932 q 914 724 890 821 q 938 479 938 628 q 914 235 938 332 q 838 82 890 138 q 699 3 785 26 q 490 -19 614 -19 q 283 3 368 -19 q 144 82 197 26 q 68 235 92 138 q 44 479 44 332 q 68 724 44 628 q 144 876 92 821 q 283 955 197 932 q 490 978 368 978 m 408 -36 q 623 -97 513 -75 q 865 -139 733 -119 l 792 -382 q 538 -290 650 -342 q 344 -179 426 -237 l 408 -36 m 490 754 q 411 732 439 754 q 372 650 383 710 q 361 479 361 590 q 372 308 361 368 q 411 226 383 249 q 490 204 439 204 q 569 226 542 204 q 608 308 597 249 q 619 479 619 368 q 608 650 619 590 q 569 732 597 710 q 490 754 542 754 z "},"R":{"ha":939,"x_min":72,"x_max":921,"o":"m 479 972 q 710 946 621 972 q 841 856 799 919 q 883 681 883 793 q 866 574 883 624 q 806 493 849 525 q 689 453 764 461 l 689 444 q 747 428 715 442 q 807 384 779 415 q 846 294 835 353 l 921 0 l 606 0 l 543 285 q 517 338 535 325 q 461 350 500 350 q 291 351 357 351 q 179 353 225 351 q 88 357 133 354 l 92 563 l 472 563 q 539 571 515 563 q 572 601 563 579 q 581 661 581 622 q 572 722 581 701 q 539 751 563 743 q 472 760 515 760 q 229 758 328 760 q 94 753 131 757 l 72 958 q 192 968 136 965 q 316 972 249 971 q 479 972 383 972 m 368 958 l 368 0 l 72 0 l 72 958 l 368 958 z "},"S":{"ha":847,"x_min":42,"x_max":813,"o":"m 436 978 q 605 969 511 978 q 785 929 699 960 l 767 736 q 612 738 704 738 q 429 739 519 739 q 385 738 403 739 q 358 732 368 736 q 344 721 349 728 q 340 703 340 714 q 358 670 340 683 q 424 638 375 657 l 597 565 q 765 447 717 514 q 813 274 813 379 q 793 137 813 193 q 728 47 774 81 q 608 -3 683 13 q 421 -19 533 -19 q 274 -12 372 -19 q 50 28 175 -4 l 68 239 q 221 235 151 238 q 341 233 290 233 q 417 232 392 232 q 476 235 456 232 q 503 245 496 238 q 511 265 511 253 q 506 288 511 279 q 486 306 500 297 q 446 324 472 314 l 256 407 q 90 525 139 460 q 42 696 42 590 q 63 832 42 778 q 131 918 85 886 q 252 964 176 950 q 436 978 328 978 z "},"T":{"ha":865,"x_min":14,"x_max":851,"o":"m 583 958 l 583 0 l 282 0 l 282 958 l 583 958 m 851 958 l 851 733 l 14 733 l 14 958 l 851 958 z "},"U":{"ha":979,"x_min":65,"x_max":914,"o":"m 914 958 l 914 396 q 874 152 914 243 q 745 21 835 61 q 506 -19 656 -19 q 247 21 343 -19 q 108 152 150 61 q 65 396 65 243 l 65 958 l 367 958 l 367 396 q 377 278 367 319 q 415 220 388 236 q 490 204 442 204 q 565 220 539 204 q 602 278 592 236 q 613 396 613 319 l 613 958 l 914 958 z "},"V":{"ha":931,"x_min":-3,"x_max":933,"o":"m 933 958 l 700 81 q 664 22 692 44 q 597 0 636 0 l 333 0 q 267 22 294 0 q 231 81 239 44 l -3 958 l 307 958 l 431 335 q 440 280 436 308 q 449 225 444 251 l 482 225 q 490 280 485 251 q 500 335 494 308 l 624 958 l 933 958 z "},"W":{"ha":1393,"x_min":28,"x_max":1365,"o":"m 1365 958 l 1246 81 q 1211 22 1240 44 q 1143 0 1182 0 l 888 0 q 819 22 849 0 q 785 81 789 44 l 719 610 q 713 680 715 644 q 708 750 711 715 l 685 750 q 681 679 683 715 q 674 608 678 643 l 610 81 q 576 22 606 44 q 507 0 546 0 l 250 0 q 182 22 211 0 q 147 81 153 44 l 28 958 l 325 958 l 374 371 q 378 297 376 336 q 379 211 379 257 l 401 211 q 413 291 407 247 q 424 372 419 335 l 488 869 q 520 934 492 910 q 589 958 549 958 l 804 958 q 872 934 844 958 q 906 869 900 910 l 971 369 q 981 290 975 332 q 992 211 986 249 l 1014 211 q 1017 292 1014 250 q 1021 368 1019 333 l 1068 958 l 1365 958 z "},"X":{"ha":940,"x_min":-7,"x_max":947,"o":"m 928 958 l 710 489 l 947 0 l 649 0 l 432 489 l 631 958 l 928 958 m 310 958 l 508 489 l 292 0 l -7 0 l 231 489 l 13 958 l 310 958 m 603 575 l 603 408 l 314 408 l 314 575 l 603 575 z "},"Y":{"ha":908,"x_min":-14,"x_max":922,"o":"m 922 958 l 599 285 l 310 285 l -14 958 l 296 958 l 417 657 q 435 590 429 626 q 446 522 440 554 l 464 522 q 476 591 469 554 q 493 658 482 628 l 613 958 l 922 958 m 606 456 l 606 0 l 304 0 l 304 456 l 606 456 z "},"Z":{"ha":840,"x_min":40,"x_max":801,"o":"m 456 749 l 788 747 l 372 210 l 40 211 l 456 749 m 801 211 l 801 0 l 40 0 l 40 211 l 801 211 m 788 958 l 788 747 l 54 747 l 54 958 l 788 958 z "},"a":{"ha":819,"x_min":29,"x_max":767,"o":"m 463 714 q 628 688 561 714 q 731 601 696 663 q 767 431 767 539 l 767 0 l 535 0 l 494 149 l 475 176 l 475 432 q 456 485 474 468 q 393 501 439 501 q 260 500 339 501 q 93 494 182 499 l 67 679 q 192 697 119 689 q 338 709 265 704 q 463 714 410 714 m 654 426 l 653 286 l 365 286 q 326 274 339 286 q 313 243 313 263 l 313 221 q 327 190 313 203 q 371 178 342 178 q 440 194 404 178 q 510 235 476 210 q 567 286 543 260 l 567 197 q 536 138 557 174 q 480 65 515 101 q 392 5 444 29 q 268 -19 340 -19 q 149 3 204 -19 q 62 69 94 25 q 29 178 29 113 l 29 247 q 91 378 29 331 q 258 426 153 426 l 654 426 z "},"b":{"ha":858,"x_min":58,"x_max":821,"o":"m 558 714 q 763 630 704 714 q 821 356 821 546 q 806 219 821 285 q 753 99 792 153 q 640 15 714 46 q 447 -17 567 -17 q 356 -13 410 -17 q 244 -3 301 -10 q 138 15 188 4 q 58 42 89 26 l 292 199 q 333 188 306 193 q 392 180 361 182 q 442 179 422 178 q 489 196 472 182 q 513 247 506 210 q 521 354 521 283 q 514 444 521 414 q 488 485 507 474 q 436 496 469 496 q 375 487 400 496 q 322 467 350 478 l 301 581 q 370 644 331 614 q 458 694 410 675 q 558 714 506 714 m 350 972 l 353 779 q 347 677 354 729 q 321 581 339 625 l 350 564 l 350 28 l 58 42 l 58 972 l 350 972 z "},"c":{"ha":733,"x_min":36,"x_max":708,"o":"m 408 714 q 503 710 451 714 q 606 694 554 706 q 699 663 657 683 l 669 482 q 553 482 603 482 q 458 482 503 482 q 388 471 414 482 q 352 431 363 460 q 342 349 342 403 q 352 265 342 294 q 388 225 363 236 q 458 214 414 214 q 517 215 482 214 q 596 217 553 215 q 682 224 639 219 l 708 42 q 567 -3 647 10 q 406 -17 486 -17 q 188 19 269 -17 q 72 135 107 54 q 36 349 36 215 q 72 563 36 483 q 190 678 108 643 q 408 714 272 714 z "},"d":{"ha":861,"x_min":39,"x_max":801,"o":"m 303 714 q 451 690 382 714 q 563 608 519 667 l 542 494 q 488 513 514 503 q 419 524 463 524 q 373 513 390 524 q 347 468 356 503 q 339 358 339 433 q 347 265 339 294 q 372 226 354 235 q 415 217 389 217 q 467 222 446 217 q 503 235 488 226 q 538 253 519 243 l 556 133 q 465 26 528 69 q 290 -17 401 -17 q 97 81 154 -17 q 39 356 39 179 q 69 576 39 499 q 158 683 99 653 q 303 714 217 714 m 801 972 l 801 0 l 569 0 l 542 133 l 510 156 l 510 592 l 518 608 q 513 705 515 653 q 510 807 510 757 l 510 972 l 801 972 z "},"e":{"ha":819,"x_min":35,"x_max":792,"o":"m 429 714 q 707 651 625 714 q 790 467 789 589 q 733 326 792 369 q 521 283 674 283 l 147 283 l 147 421 l 439 421 q 499 430 486 421 q 511 474 511 439 q 494 517 511 507 q 438 526 478 526 q 376 518 397 528 q 348 476 356 508 q 340 374 340 443 q 349 274 340 310 q 385 222 358 238 q 463 207 411 207 q 580 210 504 207 q 744 222 656 213 l 771 47 q 667 8 722 22 q 552 -11 611 -6 q 431 -17 493 -17 q 199 24 286 -17 q 73 144 111 64 q 35 342 35 224 q 74 560 35 479 q 199 678 113 642 q 429 714 286 714 z "},"f":{"ha":593,"x_min":11,"x_max":638,"o":"m 383 1006 q 458 1003 411 1006 q 553 997 504 1001 q 638 986 603 993 l 610 811 l 488 811 q 435 795 449 811 q 421 739 421 779 l 421 0 l 128 0 l 128 779 q 152 896 128 844 q 233 976 176 947 q 383 1006 289 1006 m 586 694 l 586 519 l 11 519 l 11 688 l 129 694 l 586 694 z "},"g":{"ha":839,"x_min":10,"x_max":835,"o":"m 400 714 q 608 692 531 714 q 721 623 686 671 q 756 494 756 575 q 722 366 756 414 q 609 297 688 318 q 399 275 531 275 q 189 297 268 275 q 75 366 110 318 q 40 494 40 414 q 76 623 40 575 q 190 692 111 671 q 400 714 269 714 m 399 554 q 329 542 347 554 q 311 494 311 531 q 329 446 311 458 q 399 433 347 433 q 467 446 450 433 q 485 494 485 458 q 467 542 485 531 q 399 554 450 554 m 835 694 l 821 588 l 626 554 l 575 694 l 835 694 m 178 314 l 313 290 q 290 270 297 288 q 293 236 283 253 q 335 217 303 219 l 588 200 q 758 138 707 192 q 810 -18 810 85 q 768 -167 810 -117 q 638 -234 726 -217 q 408 -251 550 -251 q 206 -240 283 -251 q 85 -206 128 -229 q 26 -146 42 -183 q 10 -54 10 -108 q 27 22 10 -11 q 90 80 44 54 q 221 125 136 106 l 340 151 l 435 115 l 390 92 q 325 48 349 63 q 292 23 301 33 q 282 -10 282 13 q 292 -37 282 -28 q 330 -51 303 -47 q 404 -54 357 -54 q 486 -51 457 -54 q 526 -40 515 -49 q 538 -17 538 -32 q 526 9 538 1 q 491 20 515 17 q 429 26 467 24 l 240 40 q 142 72 178 46 q 92 134 106 97 q 85 208 79 171 q 116 275 92 246 q 178 314 140 304 z "},"h":{"ha":863,"x_min":60,"x_max":807,"o":"m 601 714 q 807 519 807 714 l 807 0 l 515 0 l 515 426 q 504 459 515 450 q 465 468 493 468 q 406 464 439 468 q 321 442 374 460 l 290 568 q 445 678 364 642 q 601 714 526 714 m 351 972 l 353 765 q 344 645 353 703 q 324 553 335 588 l 351 536 l 351 0 l 60 0 l 60 972 l 351 972 z "},"i":{"ha":421,"x_min":64,"x_max":357,"o":"m 356 694 l 356 0 l 65 0 l 65 694 l 356 694 m 272 1013 q 357 926 357 1013 l 357 856 q 272 769 357 769 l 149 769 q 64 856 64 769 l 64 926 q 149 1013 64 1013 l 272 1013 z "},"j":{"ha":422,"x_min":-29,"x_max":357,"o":"m 357 694 l 357 81 q 330 -60 357 8 q 253 -181 303 -128 q 132 -264 203 -235 l -29 -136 q 47 -30 26 -81 q 67 81 67 21 l 67 694 l 357 694 m 269 1026 q 354 940 354 1026 l 354 869 q 269 783 354 783 l 146 783 q 61 869 61 783 l 61 940 q 146 1026 61 1026 l 269 1026 z "},"k":{"ha":846,"x_min":60,"x_max":858,"o":"m 832 694 l 686 467 q 646 416 671 439 q 606 383 621 393 l 606 378 q 646 342 621 369 q 686 285 671 314 l 858 0 l 538 0 l 335 385 l 513 694 l 832 694 m 351 972 l 351 600 q 344 492 351 547 q 322 388 338 436 q 342 291 333 343 q 351 199 351 239 l 351 0 l 60 0 l 60 972 l 351 972 m 428 464 l 428 300 l 265 300 l 265 464 l 428 464 z "},"l":{"ha":497,"x_min":61,"x_max":500,"o":"m 351 972 l 351 253 q 369 215 351 226 q 421 203 386 203 l 468 203 l 500 17 q 441 -3 479 4 q 363 -15 403 -11 q 296 -19 324 -19 q 124 32 186 -19 q 61 175 61 83 l 61 972 l 351 972 z "},"m":{"ha":1229,"x_min":60,"x_max":1174,"o":"m 974 714 q 1123 665 1072 714 q 1174 519 1174 615 l 1174 0 l 883 0 l 883 426 q 874 459 883 450 q 838 468 864 468 q 812 467 825 468 q 780 460 799 465 q 732 442 761 454 l 717 585 q 837 682 778 650 q 974 714 896 714 m 288 694 l 322 553 l 350 536 l 350 0 l 60 0 l 60 694 l 288 694 m 561 714 q 707 665 657 714 q 757 519 757 615 l 757 0 l 476 0 l 476 426 q 465 459 476 450 q 429 468 454 468 q 403 467 417 468 q 369 460 389 465 q 319 442 350 454 l 304 585 q 424 682 365 650 q 561 714 482 714 z "},"n":{"ha":863,"x_min":60,"x_max":807,"o":"m 601 714 q 807 519 807 714 l 807 0 l 515 0 l 515 426 q 504 459 515 450 q 465 468 493 468 q 406 464 439 468 q 321 442 374 460 l 307 585 q 453 682 376 650 q 601 714 529 714 m 289 694 l 325 553 l 351 536 l 351 0 l 60 0 l 60 694 l 289 694 z "},"o":{"ha":849,"x_min":36,"x_max":813,"o":"m 425 714 q 652 678 567 714 q 775 563 738 643 q 813 346 813 482 q 775 133 813 213 q 652 19 738 54 q 425 -17 567 -17 q 198 19 283 -17 q 74 133 113 54 q 36 346 36 213 q 74 563 36 482 q 198 678 113 643 q 425 714 283 714 m 425 517 q 374 503 392 517 q 349 454 356 490 q 342 346 342 418 q 349 241 342 276 q 374 193 356 206 q 425 181 392 181 q 476 193 458 181 q 501 241 494 206 q 507 346 507 276 q 501 454 507 418 q 476 503 494 490 q 425 517 458 517 z "},"p":{"ha":861,"x_min":60,"x_max":822,"o":"m 572 711 q 765 614 708 711 q 822 339 822 517 q 792 118 822 196 q 704 10 763 40 q 560 -19 646 -19 q 412 4 481 -19 q 301 86 343 28 l 321 200 q 374 181 349 190 q 443 171 400 171 q 490 181 472 171 q 515 227 507 192 q 522 336 522 263 q 515 447 522 411 q 490 492 507 482 q 447 501 474 501 q 390 494 411 501 q 347 475 369 486 l 307 585 q 365 648 325 619 q 458 694 404 676 q 572 711 513 711 m 293 694 l 321 585 l 351 563 l 351 103 l 343 86 q 350 -11 347 42 q 351 -112 353 -64 l 351 -250 l 60 -250 l 60 694 l 293 694 z "},"q":{"ha":858,"x_min":38,"x_max":800,"o":"m 411 714 q 503 710 449 714 q 614 700 557 707 q 720 682 671 693 q 800 656 769 671 l 567 497 q 526 510 554 504 q 467 517 497 515 q 417 518 436 519 q 369 502 386 517 q 344 451 351 488 q 338 343 338 414 q 355 239 338 263 q 421 215 372 215 q 485 225 458 215 q 540 244 513 235 l 561 143 q 501 74 540 111 q 410 10 463 36 q 299 -17 358 -17 q 96 78 154 -17 q 38 342 38 172 q 52 490 38 422 q 106 608 67 558 q 219 686 144 658 q 411 714 293 714 m 508 669 l 800 656 l 800 -250 l 508 -250 l 508 -69 q 515 33 507 -19 q 538 131 522 86 l 508 147 l 508 669 z "},"r":{"ha":628,"x_min":60,"x_max":625,"o":"m 288 694 l 324 553 l 351 536 l 351 0 l 60 0 l 60 694 l 288 694 m 625 714 l 600 447 l 526 447 q 442 444 489 447 q 321 428 396 440 l 304 585 q 444 682 372 650 q 585 714 517 714 l 625 714 z "},"s":{"ha":768,"x_min":33,"x_max":740,"o":"m 356 714 q 477 710 411 714 q 606 699 543 706 q 711 683 668 693 l 693 514 q 553 514 624 514 q 419 514 483 514 q 351 513 374 514 q 322 510 329 513 q 315 497 315 507 q 331 482 315 486 q 397 464 347 478 l 557 424 q 695 351 650 397 q 740 214 740 304 q 707 76 740 126 q 599 6 674 26 q 404 -15 525 -15 q 256 -10 354 -15 q 43 14 158 -6 l 61 183 q 119 183 79 183 q 209 183 158 183 q 308 183 260 183 q 407 184 375 183 q 449 190 439 185 q 458 204 458 194 q 440 222 458 217 q 368 242 422 226 l 215 283 q 100 338 139 306 q 47 414 61 371 q 33 511 33 457 q 63 620 33 575 q 163 690 93 665 q 356 714 233 714 z "},"t":{"ha":608,"x_min":14,"x_max":592,"o":"m 424 876 l 424 253 q 438 215 424 226 q 483 203 451 203 l 557 203 l 589 17 q 517 -3 560 4 q 430 -15 474 -11 q 353 -19 386 -19 q 192 32 251 -19 q 132 175 132 83 l 131 876 l 424 876 m 592 694 l 592 519 l 14 519 l 14 688 l 147 694 l 592 694 z "},"u":{"ha":854,"x_min":56,"x_max":794,"o":"m 347 694 l 347 268 q 360 235 347 246 q 399 225 372 225 q 456 230 426 225 q 532 253 485 235 l 549 110 q 408 13 478 44 q 261 -19 339 -19 q 56 175 56 -19 l 56 694 l 347 694 m 794 694 l 794 0 l 565 0 l 529 142 l 501 158 l 501 694 l 794 694 z "},"v":{"ha":835,"x_min":-4,"x_max":839,"o":"m 839 694 l 633 68 q 599 19 624 38 q 542 0 575 0 l 293 0 q 235 19 260 0 q 201 68 211 38 l -4 694 l 304 694 l 389 311 q 400 246 396 279 q 408 181 404 213 l 426 181 q 436 246 431 213 q 447 311 442 279 l 531 694 l 839 694 z "},"w":{"ha":1217,"x_min":11,"x_max":1206,"o":"m 1206 694 l 1064 74 q 1031 20 1057 40 q 969 0 1006 0 l 765 0 q 698 24 726 0 q 665 86 669 47 l 625 401 q 621 463 622 433 q 617 524 619 493 l 599 524 q 594 463 597 493 q 589 401 592 433 l 549 86 q 516 24 544 47 q 449 0 488 0 l 247 0 q 186 20 213 0 q 153 74 160 40 l 11 694 l 300 694 l 350 304 q 356 243 353 274 q 361 181 360 213 l 378 181 q 384 243 381 213 q 390 304 388 274 l 429 610 q 461 671 433 647 q 528 694 489 694 l 688 694 q 754 671 726 694 q 786 608 782 647 l 824 304 q 831 243 826 274 q 838 181 836 213 l 854 181 q 860 243 857 213 q 867 304 863 274 l 915 694 l 1206 694 z "},"x":{"ha":842,"x_min":-4,"x_max":846,"o":"m 831 694 l 644 354 l 846 0 l 557 0 l 372 354 l 543 694 l 831 694 m 299 694 l 469 354 l 285 0 l -4 0 l 197 354 l 11 694 l 299 694 m 565 439 l 565 275 l 279 275 l 279 439 l 565 439 z "},"y":{"ha":836,"x_min":-4,"x_max":839,"o":"m 839 694 l 618 19 q 566 -99 600 -37 q 477 -208 532 -160 q 343 -276 422 -256 q 156 -274 264 -296 l 136 -117 q 273 -69 222 -99 q 350 19 324 -39 l 401 131 q 428 219 417 165 q 447 311 440 274 l 529 694 l 839 694 m 306 694 l 388 311 q 397 246 393 279 q 406 181 401 213 l 447 181 l 357 0 l 293 0 q 235 19 260 0 q 201 68 211 38 l -4 694 l 306 694 z "},"z":{"ha":751,"x_min":40,"x_max":711,"o":"m 364 508 l 703 507 l 379 186 l 40 188 l 364 508 m 711 188 l 711 0 l 40 0 l 40 188 l 711 188 m 703 694 l 703 507 l 49 507 l 49 694 l 703 694 z "},"&":{"ha":1057,"x_min":49,"x_max":1031,"o":"m 465 978 q 572 975 510 978 q 696 958 633 972 l 661 764 q 618 765 640 764 q 572 766 596 765 q 519 767 547 767 q 457 768 492 768 q 410 761 426 768 q 388 734 394 754 q 382 675 382 714 q 388 618 382 639 q 410 590 394 597 q 457 582 426 582 l 1004 582 l 1004 400 l 440 400 q 392 392 408 400 q 372 365 376 385 q 367 307 367 346 q 372 245 367 267 q 392 216 376 224 q 440 208 408 208 q 541 218 483 210 q 635 236 599 226 l 656 83 q 577 26 618 49 q 482 -8 536 3 q 349 -19 428 -19 q 176 6 243 -19 q 79 90 110 32 q 49 244 49 147 q 91 419 49 354 q 239 493 133 483 l 239 501 q 116 563 153 510 q 79 722 79 617 q 100 858 79 807 q 167 934 121 908 q 286 969 213 960 q 465 978 360 978 m 883 706 l 883 253 q 894 215 883 226 q 929 203 904 203 l 999 203 l 1031 17 q 965 -3 1004 4 q 888 -15 926 -11 q 822 -19 849 -19 q 666 32 722 -19 q 610 175 610 83 l 610 497 l 636 706 l 883 706 z "},".":{"ha":360,"x_min":47,"x_max":313,"o":"m 213 257 q 291 235 269 257 q 313 157 313 214 l 313 100 q 291 22 313 44 q 213 0 269 0 l 147 0 q 69 22 90 0 q 47 100 47 44 l 47 157 q 69 235 47 214 q 147 257 90 257 l 213 257 z "},",":{"ha":354,"x_min":44,"x_max":304,"o":"m 204 257 q 281 235 260 257 q 304 157 303 214 l 304 68 q 293 -52 304 -1 q 261 -144 282 -103 q 211 -225 240 -185 l 103 -190 q 123 -95 118 -143 q 129 0 128 -47 q 44 89 47 0 l 49 157 q 71 235 50 214 q 147 257 92 257 l 204 257 z "},":":{"ha":385,"x_min":49,"x_max":314,"o":"m 214 642 q 292 620 271 642 q 314 542 314 599 l 314 485 q 292 407 314 429 q 214 385 271 385 l 149 385 q 70 407 92 385 q 49 485 49 429 l 49 542 q 70 620 49 599 q 149 642 92 642 l 214 642 m 214 258 q 292 237 271 258 q 314 158 314 215 l 314 101 q 292 24 314 46 q 214 1 271 1 l 149 1 q 70 24 92 1 q 49 101 49 46 l 49 158 q 70 237 49 215 q 149 258 92 258 l 214 258 z "},";":{"ha":385,"x_min":58,"x_max":326,"o":"m 226 642 q 305 620 283 642 q 326 542 326 599 l 326 485 q 305 407 326 429 q 226 385 283 385 l 161 385 q 83 407 104 385 q 61 485 61 429 l 61 542 q 83 620 61 599 q 161 642 104 642 l 226 642 m 218 257 q 295 235 274 257 q 318 157 317 214 l 318 68 q 307 -52 318 -1 q 275 -144 296 -103 q 225 -225 254 -185 l 117 -190 q 137 -95 132 -143 q 143 0 142 -47 q 58 89 61 0 l 63 157 q 85 235 64 214 q 161 257 106 257 l 218 257 z "},"…":{"ha":1285,"x_min":36,"x_max":1226,"o":"m 664 257 q 742 235 721 257 q 764 157 764 214 l 764 100 q 742 22 764 44 q 664 0 721 0 l 599 0 q 520 22 542 0 q 499 100 499 44 l 499 157 q 520 235 499 214 q 599 257 542 257 l 664 257 m 1126 257 q 1205 235 1183 257 q 1226 157 1226 214 l 1226 100 q 1205 22 1226 44 q 1126 0 1183 0 l 1061 0 q 983 22 1004 0 q 961 100 961 44 l 961 157 q 983 235 961 214 q 1061 257 1004 257 l 1126 257 m 201 257 q 280 235 258 257 q 301 157 301 214 l 301 100 q 280 22 301 44 q 201 0 258 0 l 136 0 q 58 22 79 0 q 36 100 36 44 l 36 157 q 58 235 36 214 q 136 257 79 257 l 201 257 z "},"¡":{"ha":433,"x_min":72,"x_max":361,"o":"m 331 407 l 361 82 l 361 -243 l 72 -243 l 72 82 l 103 407 l 331 407 m 250 722 q 328 701 307 722 q 350 622 350 679 l 350 565 q 328 487 350 508 q 250 465 307 465 l 185 465 q 106 487 128 465 q 85 565 85 508 l 85 622 q 106 701 85 679 q 185 722 128 722 l 250 722 z "},"!":{"ha":457,"x_min":83,"x_max":372,"o":"m 372 965 l 372 640 l 342 315 l 114 315 l 83 640 l 83 965 l 372 965 m 261 257 q 340 235 318 257 q 361 157 361 214 l 361 100 q 340 22 361 43 q 261 0 318 0 l 196 0 q 117 22 139 0 q 96 100 96 43 l 96 157 q 117 235 96 214 q 196 257 139 257 l 261 257 z "},"¿":{"ha":738,"x_min":26,"x_max":708,"o":"m 507 404 q 497 281 511 335 q 457 184 482 226 q 406 109 432 142 q 360 51 379 76 q 336 7 340 26 q 349 -29 331 -19 q 414 -39 367 -39 q 531 -39 486 -39 q 615 -39 576 -39 q 701 -39 653 -39 l 708 -231 q 630 -246 665 -239 q 556 -258 594 -253 q 466 -267 517 -264 q 342 -269 415 -269 q 104 -217 182 -269 q 26 -54 26 -164 q 49 50 26 7 q 107 129 72 93 q 178 203 142 165 q 243 288 215 240 q 279 404 271 336 l 507 404 m 426 719 q 505 698 483 719 q 526 619 526 676 l 526 563 q 505 484 526 506 q 426 463 483 463 l 361 463 q 283 484 304 463 q 261 563 261 506 l 261 619 q 283 698 261 676 q 361 719 304 719 l 426 719 z "},"?":{"ha":744,"x_min":33,"x_max":715,"o":"m 400 989 q 638 937 561 989 q 715 774 715 885 q 692 670 715 714 q 635 590 669 626 q 563 517 600 554 q 499 431 526 479 q 463 315 471 383 l 235 315 q 245 439 231 385 q 285 535 260 493 q 336 610 310 578 q 382 668 363 643 q 406 713 401 693 q 394 749 413 739 q 328 758 376 758 q 211 758 257 758 q 127 758 165 758 q 40 758 89 758 l 33 950 q 112 965 76 958 q 186 978 147 972 q 276 986 225 983 q 400 989 326 989 m 381 257 q 459 235 438 257 q 481 157 481 214 l 481 100 q 459 22 481 43 q 381 0 438 0 l 315 0 q 237 22 258 0 q 215 100 215 43 l 215 157 q 237 235 215 214 q 315 257 258 257 l 381 257 z "},"(":{"ha":517,"x_min":35,"x_max":508,"o":"m 475 1097 l 508 975 q 358 790 400 932 q 317 435 317 647 q 335 185 317 296 q 394 0 353 75 q 508 -107 436 -75 l 475 -229 q 141 -8 247 -169 q 35 433 35 153 q 141 878 35 717 q 475 1097 247 1039 z "},")":{"ha":517,"x_min":8,"x_max":482,"o":"m 42 1097 q 376 878 269 1039 q 482 433 482 717 q 376 -8 482 153 q 42 -229 269 -169 l 8 -107 q 122 0 81 -75 q 182 185 164 75 q 200 435 200 296 q 158 790 200 647 q 8 975 117 932 l 42 1097 z "},"[":{"ha":504,"x_min":85,"x_max":471,"o":"m 471 1067 l 471 889 l 388 889 q 357 858 357 889 l 357 -21 q 388 -51 357 -51 l 471 -51 l 471 -229 l 225 -229 q 124 -201 163 -229 q 85 -89 85 -172 l 85 926 q 124 1028 85 989 q 225 1067 163 1067 l 471 1067 z "},"]":{"ha":504,"x_min":33,"x_max":419,"o":"m 279 1067 q 381 1028 342 1067 q 419 926 419 989 l 419 -89 q 381 -190 419 -151 q 279 -229 342 -229 l 33 -229 l 33 -51 l 117 -51 q 147 -21 147 -51 l 147 858 q 117 889 147 889 l 33 889 l 33 1067 l 279 1067 z "},"{":{"ha":499,"x_min":31,"x_max":464,"o":"m 458 1067 l 458 889 q 390 883 408 889 q 371 836 371 876 l 371 663 q 359 561 372 604 q 310 492 346 518 q 210 456 275 465 q 311 410 275 439 q 362 342 347 381 q 376 254 376 303 l 376 -3 q 395 -47 376 -43 q 464 -51 414 -51 l 464 -229 q 254 -227 335 -250 q 136 -151 174 -204 q 99 -26 99 -97 l 99 282 q 92 326 99 313 q 70 348 85 340 q 31 365 56 356 l 31 546 q 70 560 57 554 q 88 583 83 567 q 93 635 93 599 l 93 864 q 131 989 93 936 q 249 1065 168 1042 q 458 1067 329 1088 z "},"}":{"ha":499,"x_min":35,"x_max":468,"o":"m 40 1067 q 250 1065 169 1088 q 368 989 331 1042 q 406 864 406 936 l 406 635 q 410 583 406 599 q 429 560 415 567 q 468 546 443 554 l 468 365 q 429 348 444 356 q 407 326 414 340 q 400 282 400 313 l 400 -26 q 363 -151 400 -97 q 244 -227 325 -204 q 35 -229 164 -250 l 35 -51 q 103 -47 85 -51 q 122 -3 122 -43 l 122 254 q 138 342 124 303 q 188 410 151 381 q 289 456 224 439 q 188 492 224 465 q 140 561 153 518 q 128 663 126 604 l 128 836 q 109 883 128 876 q 40 889 90 889 l 40 1067 z "},"-":{"ha":526,"x_min":61,"x_max":465,"o":"m 465 442 l 465 272 l 61 272 l 61 442 l 465 442 z "},"_":{"ha":626,"x_min":0,"x_max":626,"o":"m 626 0 l 626 -169 l 0 -169 l 0 0 l 626 0 z "},"–":{"ha":735,"x_min":61,"x_max":674,"o":"m 674 442 l 674 272 l 61 272 l 61 442 l 674 442 z "},"—":{"ha":1138,"x_min":61,"x_max":1076,"o":"m 1076 442 l 1076 272 l 61 272 l 61 442 l 1076 442 z "},"‘":{"ha":307,"x_min":46,"x_max":271,"o":"m 133 549 q 66 568 85 549 q 46 639 47 588 l 46 719 q 56 830 46 783 q 83 913 65 876 q 126 986 101 950 l 221 956 q 203 869 207 913 q 197 782 199 825 q 271 701 269 782 l 268 639 q 249 568 267 588 q 182 549 231 549 l 133 549 z "},"’":{"ha":303,"x_min":35,"x_max":260,"o":"m 172 972 q 240 953 221 972 q 260 882 258 933 l 260 801 q 250 691 260 738 q 222 608 240 644 q 179 535 204 571 l 85 565 q 103 652 99 608 q 108 739 107 696 q 35 819 36 739 l 38 882 q 57 953 39 933 q 124 972 75 972 l 172 972 z "},"“":{"ha":583,"x_min":46,"x_max":547,"o":"m 133 549 q 66 568 85 549 q 46 639 47 588 l 46 719 q 56 830 46 783 q 83 913 65 876 q 126 986 101 950 l 221 956 q 203 869 207 913 q 197 782 199 825 q 271 701 269 782 l 268 639 q 249 568 267 588 q 182 549 231 549 l 133 549 m 410 549 q 342 568 361 549 q 322 639 324 588 l 322 719 q 332 830 322 783 q 360 913 342 876 q 403 986 378 950 l 497 956 q 479 869 483 913 q 474 782 475 825 q 547 701 546 782 l 544 639 q 525 568 543 588 q 458 549 507 549 l 410 549 z "},"”":{"ha":579,"x_min":35,"x_max":536,"o":"m 449 972 q 516 953 497 972 q 536 882 535 933 l 536 801 q 526 691 536 738 q 499 608 517 644 q 456 535 481 571 l 361 565 q 379 652 375 608 q 385 739 383 696 q 311 819 313 739 l 314 882 q 333 953 315 933 q 400 972 351 972 l 449 972 m 172 972 q 240 953 221 972 q 260 882 258 933 l 260 801 q 250 691 260 738 q 222 608 240 644 q 179 535 204 571 l 85 565 q 103 652 99 608 q 108 739 107 696 q 35 819 36 739 l 38 882 q 57 953 39 933 q 124 972 75 972 l 172 972 z "},"‚":{"ha":322,"x_min":47,"x_max":272,"o":"m 185 257 q 252 235 233 257 q 272 157 271 214 l 272 68 q 263 -52 272 -1 q 235 -144 253 -103 q 192 -225 217 -185 l 97 -190 q 115 -95 111 -143 q 121 0 119 -47 q 47 89 50 0 l 50 157 q 70 235 51 214 q 136 257 89 257 l 185 257 z "},"„":{"ha":596,"x_min":46,"x_max":547,"o":"m 460 213 q 527 193 508 213 q 547 122 546 174 l 547 42 q 538 -69 547 -22 q 510 -152 528 -115 q 467 -225 492 -189 l 372 -194 q 390 -108 386 -151 q 396 -21 394 -64 q 322 60 324 -21 l 325 122 q 344 193 326 174 q 411 213 363 213 l 460 213 m 183 213 q 251 193 232 213 q 271 122 269 174 l 271 42 q 261 -69 271 -22 q 233 -152 251 -115 q 190 -225 215 -189 l 96 -194 q 114 -108 110 -151 q 119 -21 118 -64 q 46 60 47 -21 l 49 122 q 68 193 50 174 q 135 213 86 213 l 183 213 z "},"‹":{"ha":440,"x_min":29,"x_max":401,"o":"m 249 653 l 401 557 l 282 349 l 401 132 l 249 36 l 29 318 l 29 379 l 249 653 z "},"›":{"ha":440,"x_min":39,"x_max":411,"o":"m 192 653 l 411 379 l 411 318 l 192 36 l 39 132 l 160 349 l 39 557 l 192 653 z "},"¦":{"ha":386,"x_min":92,"x_max":294,"o":"m 294 1085 l 294 529 l 92 529 l 92 1085 l 294 1085 m 294 321 l 294 -235 l 92 -235 l 92 321 l 294 321 z "},"/":{"ha":817,"x_min":21,"x_max":796,"o":"m 796 958 l 250 -110 l 21 -110 l 567 958 l 796 958 z "},"\\":{"ha":817,"x_min":21,"x_max":796,"o":"m 250 958 l 796 -110 l 567 -110 l 21 958 l 250 958 z "},"|":{"ha":383,"x_min":90,"x_max":293,"o":"m 293 1085 l 293 -235 l 90 -235 l 90 1085 l 293 1085 z "},"*":{"ha":633,"x_min":32,"x_max":601,"o":"m 394 961 l 372 718 l 529 539 l 406 447 l 317 613 l 229 447 l 104 539 l 264 717 l 239 961 l 394 961 m 79 864 l 236 793 l 236 725 l 201 683 l 32 717 l 79 864 m 554 865 l 601 717 l 435 683 l 400 725 l 397 793 l 554 865 z "},"†":{"ha":760,"x_min":44,"x_max":715,"o":"m 467 958 q 481 944 481 958 l 481 865 q 476 783 481 818 q 460 696 471 749 l 299 696 q 283 783 289 749 q 278 865 278 818 l 278 944 q 292 958 278 958 l 467 958 m 44 674 q 58 688 44 688 l 117 688 q 186 683 151 688 q 265 667 221 679 l 265 506 q 186 489 221 493 q 117 485 151 485 l 58 485 q 44 499 44 485 l 44 674 m 494 667 q 574 683 539 679 q 643 688 608 688 l 701 688 q 715 674 715 688 l 715 499 q 701 485 715 485 l 643 485 q 574 489 608 485 q 494 506 539 493 l 494 667 m 279 288 q 285 386 279 340 q 300 479 290 432 l 458 479 q 474 386 469 432 q 479 288 479 340 l 479 85 l 460 -181 l 299 -181 l 279 85 l 279 288 z "},"‡":{"ha":760,"x_min":44,"x_max":717,"o":"m 467 958 q 481 944 481 958 l 481 865 q 476 783 481 818 q 460 696 471 749 l 299 696 q 283 783 289 749 q 278 865 278 818 l 278 944 q 292 958 278 958 l 467 958 m 44 674 q 58 688 44 688 l 117 688 q 186 683 151 688 q 265 667 221 679 l 265 506 q 186 489 221 493 q 117 485 151 485 l 58 485 q 44 499 44 485 l 44 674 m 494 667 q 574 683 539 679 q 643 688 608 688 l 701 688 q 715 674 715 688 l 715 499 q 701 485 715 485 l 643 485 q 574 489 608 485 q 494 506 539 493 l 494 667 m 293 -179 q 279 -165 279 -179 l 279 -114 q 285 -32 279 -67 q 300 56 290 3 l 463 56 q 478 -32 474 3 q 483 -114 483 -67 l 483 -165 q 469 -181 483 -181 l 293 -179 m 717 78 q 703 64 717 64 l 644 64 q 575 68 610 64 q 496 85 540 72 l 496 246 q 575 263 540 258 q 644 267 610 267 l 703 267 q 717 253 717 267 l 717 78 m 60 267 l 118 267 q 188 263 153 267 q 267 246 222 258 l 265 85 q 186 68 221 72 q 117 64 151 64 l 58 64 q 46 78 46 64 l 46 253 q 60 267 46 267 m 303 490 l 461 490 q 476 441 471 467 q 482 392 482 415 l 482 367 q 476 317 482 342 q 461 268 471 292 l 303 268 q 288 317 293 292 q 282 367 282 343 l 282 392 q 288 442 282 417 q 303 490 293 467 z "},"·":{"ha":368,"x_min":51,"x_max":317,"o":"m 217 488 q 295 466 274 488 q 317 388 317 444 l 317 331 q 295 253 317 275 q 217 231 274 231 l 151 231 q 73 253 94 231 q 51 331 51 275 l 51 388 q 73 466 51 444 q 151 488 94 488 l 217 488 z "},"•":{"ha":529,"x_min":78,"x_max":451,"o":"m 282 558 q 414 521 376 558 q 451 389 451 483 l 451 365 q 414 224 451 263 q 282 185 376 185 l 258 185 q 117 224 156 185 q 78 365 78 263 l 78 389 q 117 521 78 483 q 258 558 156 558 l 282 558 z "},"'":{"ha":297,"x_min":49,"x_max":249,"o":"m 249 958 l 232 642 l 65 642 l 49 958 l 249 958 z "},"\"":{"ha":546,"x_min":49,"x_max":497,"o":"m 497 958 l 481 642 l 314 642 l 297 958 l 497 958 m 249 958 l 232 642 l 65 642 l 49 958 l 249 958 z "},"À":{"ha":949,"x_min":-12,"x_max":961,"o":"m 611 958 q 675 938 647 958 q 713 881 703 917 l 961 0 l 654 0 l 510 624 q 500 678 504 650 q 493 733 496 707 l 456 733 q 449 678 453 707 q 439 624 444 650 l 294 0 l -12 0 l 236 881 q 274 938 246 917 q 338 958 301 958 l 611 958 m 729 418 l 729 207 l 219 207 l 219 418 l 729 418 m 292 1356 l 615 1147 l 536 1028 l 182 1171 l 292 1356 z "},"Á":{"ha":949,"x_min":-12,"x_max":961,"o":"m 611 958 q 675 938 647 958 q 713 881 703 917 l 961 0 l 654 0 l 510 624 q 500 678 504 650 q 493 733 496 707 l 456 733 q 449 678 453 707 q 439 624 444 650 l 294 0 l -12 0 l 236 881 q 274 938 246 917 q 338 958 301 958 l 611 958 m 729 418 l 729 207 l 219 207 l 219 418 l 729 418 m 658 1328 l 768 1143 l 414 1000 l 335 1119 l 658 1328 z "},"Â":{"ha":949,"x_min":-12,"x_max":961,"o":"m 611 958 q 675 938 647 958 q 713 881 703 917 l 961 0 l 654 0 l 510 624 q 500 678 504 650 q 493 733 496 707 l 456 733 q 449 678 453 707 q 439 624 444 650 l 294 0 l -12 0 l 236 881 q 274 938 246 917 q 338 958 301 958 l 611 958 m 729 418 l 729 207 l 219 207 l 219 418 l 729 418 m 583 1292 l 771 1096 l 704 1000 l 483 1129 l 472 1129 l 247 1000 l 178 1107 l 372 1292 l 583 1292 z "},"Ã":{"ha":949,"x_min":-12,"x_max":961,"o":"m 611 958 q 675 938 647 958 q 713 881 703 917 l 961 0 l 654 0 l 510 624 q 500 678 504 650 q 493 733 496 707 l 456 733 q 449 678 453 707 q 439 624 444 650 l 294 0 l -12 0 l 236 881 q 274 938 246 917 q 338 958 301 958 l 611 958 m 729 418 l 729 207 l 219 207 l 219 418 l 729 418 m 329 1278 q 396 1268 365 1275 q 455 1251 426 1261 q 510 1233 483 1242 q 564 1218 538 1224 q 600 1225 596 1213 q 604 1271 604 1238 l 725 1271 q 710 1093 747 1154 q 607 1036 672 1032 q 517 1052 560 1040 q 439 1077 475 1064 q 371 1096 403 1090 q 336 1089 340 1101 q 332 1043 332 1076 l 211 1043 q 211 1179 196 1126 q 260 1256 226 1232 q 329 1278 293 1281 z "},"Ä":{"ha":949,"x_min":-12,"x_max":961,"o":"m 611 958 q 675 938 647 958 q 713 881 703 917 l 961 0 l 654 0 l 510 624 q 500 678 504 650 q 493 733 496 707 l 456 733 q 449 678 453 707 q 439 624 444 650 l 294 0 l -12 0 l 236 881 q 274 938 246 917 q 338 958 301 958 l 611 958 m 729 418 l 729 207 l 219 207 l 219 418 l 729 418 m 653 1256 q 707 1201 707 1256 l 707 1114 q 653 1060 707 1060 l 557 1060 q 503 1114 503 1060 l 503 1201 q 557 1256 503 1256 l 653 1256 m 390 1256 q 444 1201 444 1256 l 444 1114 q 390 1060 444 1060 l 294 1060 q 240 1114 240 1060 l 240 1201 q 294 1256 240 1256 l 390 1256 z "},"Å":{"ha":949,"x_min":-12,"x_max":961,"o":"m 611 958 q 675 938 647 958 q 713 881 703 917 l 961 0 l 654 0 l 510 624 q 500 678 504 650 q 493 733 496 707 l 456 733 q 449 678 453 707 q 439 624 444 650 l 294 0 l -12 0 l 236 881 q 274 938 246 917 q 338 958 301 958 l 611 958 m 729 418 l 729 207 l 219 207 l 219 418 l 729 418 m 476 1338 q 566 1314 525 1338 q 631 1251 607 1290 q 656 1164 656 1213 q 631 1076 656 1115 q 566 1013 607 1036 q 476 990 525 990 q 387 1013 428 990 q 322 1076 346 1036 q 297 1164 297 1115 q 322 1251 297 1213 q 387 1314 346 1290 q 476 1338 428 1338 m 476 1226 q 433 1208 451 1226 q 415 1164 415 1189 q 433 1119 415 1138 q 476 1101 451 1101 q 519 1119 501 1101 q 538 1164 538 1138 q 519 1208 538 1189 q 476 1226 501 1226 z "},"Ā":{"ha":949,"x_min":-12,"x_max":961,"o":"m 611 958 q 675 938 647 958 q 713 881 703 917 l 961 0 l 654 0 l 510 624 q 500 678 504 650 q 493 733 496 707 l 456 733 q 449 678 453 707 q 439 624 444 650 l 294 0 l -12 0 l 236 881 q 274 938 246 917 q 338 958 301 958 l 611 958 m 729 418 l 729 207 l 219 207 l 219 418 l 729 418 m 700 1243 l 700 1072 l 256 1072 l 256 1243 l 700 1243 z "},"Ă":{"ha":949,"x_min":-12,"x_max":961,"o":"m 611 958 q 675 938 647 958 q 713 881 703 917 l 961 0 l 654 0 l 510 624 q 500 678 504 650 q 493 733 496 707 l 456 733 q 449 678 453 707 q 439 624 444 650 l 294 0 l -12 0 l 236 881 q 274 938 246 917 q 338 958 301 958 l 611 958 m 729 418 l 729 207 l 219 207 l 219 418 l 729 418 m 589 1281 l 724 1263 q 708 1147 735 1201 q 622 1058 681 1092 q 476 1024 563 1024 q 332 1058 392 1024 q 244 1147 272 1092 q 228 1263 217 1201 l 363 1281 q 388 1218 363 1238 q 476 1199 414 1199 q 563 1218 538 1199 q 589 1281 589 1238 z "},"Ą":{"ha":949,"x_min":-12,"x_max":979,"o":"m 611 958 q 675 938 647 958 q 713 881 703 917 l 961 0 l 654 0 l 510 624 q 500 678 504 650 q 493 733 496 707 l 456 733 q 449 678 453 707 q 439 624 444 650 l 294 0 l -12 0 l 236 881 q 274 938 246 917 q 338 958 301 958 l 611 958 m 729 418 l 729 207 l 219 207 l 219 418 l 729 418 m 850 3 l 961 0 q 928 -58 944 -31 q 896 -121 913 -86 q 901 -165 878 -158 q 963 -167 924 -172 l 979 -267 q 836 -299 894 -299 q 744 -276 778 -299 q 701 -219 711 -254 q 704 -146 692 -183 q 751 -74 715 -112 q 850 3 786 -35 z "},"Æ":{"ha":1325,"x_min":-26,"x_max":1286,"o":"m 800 961 q 1047 959 933 961 q 1286 946 1160 957 l 1272 738 l 944 738 q 906 724 921 738 q 890 688 890 710 l 890 271 q 905 235 890 249 q 944 221 919 221 l 1272 221 l 1286 13 q 1055 -3 1178 -1 q 813 -6 932 -6 q 664 55 718 -6 q 610 213 610 115 l 610 692 q 615 737 610 714 q 631 778 621 760 l 611 778 q 594 747 601 764 q 579 717 586 729 l 281 0 l -26 0 l 308 742 q 369 842 335 800 q 456 910 403 883 q 593 949 510 936 q 800 961 676 961 m 678 429 l 678 224 l 181 224 l 182 429 l 678 429 m 621 583 l 1225 583 l 1225 397 l 621 397 l 621 583 z "},"Ç":{"ha":840,"x_min":44,"x_max":815,"o":"m 479 975 q 607 971 554 975 q 703 959 660 967 q 794 938 747 951 l 772 718 q 682 719 724 719 q 593 720 640 719 q 479 721 546 721 q 406 701 432 721 q 371 628 381 681 q 361 479 361 576 q 371 330 361 382 q 406 258 381 278 q 479 238 432 238 q 653 240 583 238 q 793 249 724 242 l 815 29 q 667 -6 743 4 q 479 -17 592 -17 q 225 31 321 -17 q 87 188 129 79 q 44 479 44 296 q 87 771 44 663 q 225 927 129 879 q 479 975 321 975 m 354 -90 q 497 -81 442 -81 q 576 -103 551 -81 q 599 -181 601 -125 q 551 -309 596 -260 q 433 -377 506 -358 q 274 -385 361 -396 l 304 -276 q 385 -265 350 -276 q 425 -206 421 -254 q 410 -190 428 -190 q 328 -190 393 -190 l 354 -90 z "},"Ć":{"ha":840,"x_min":44,"x_max":815,"o":"m 479 975 q 607 971 554 975 q 703 959 660 967 q 794 938 747 951 l 772 718 q 682 719 724 719 q 593 720 640 719 q 479 721 546 721 q 406 701 432 721 q 371 628 381 681 q 361 479 361 576 q 371 330 361 382 q 406 258 381 278 q 479 238 432 238 q 653 240 583 238 q 793 249 724 242 l 815 29 q 667 -6 743 4 q 479 -17 592 -17 q 225 31 321 -17 q 87 188 129 79 q 44 479 44 296 q 87 771 44 663 q 225 927 129 879 q 479 975 321 975 m 660 1328 l 769 1143 l 415 1000 l 336 1119 l 660 1328 z "},"Ĉ":{"ha":840,"x_min":44,"x_max":815,"o":"m 479 975 q 607 971 554 975 q 703 959 660 967 q 794 938 747 951 l 772 718 q 682 719 724 719 q 593 720 640 719 q 479 721 546 721 q 406 701 432 721 q 371 628 381 681 q 361 479 361 576 q 371 330 361 382 q 406 258 381 278 q 479 238 432 238 q 653 240 583 238 q 793 249 724 242 l 815 29 q 667 -6 743 4 q 479 -17 592 -17 q 225 31 321 -17 q 87 188 129 79 q 44 479 44 296 q 87 771 44 663 q 225 927 129 879 q 479 975 321 975 m 585 1292 l 772 1096 l 706 1000 l 485 1129 l 474 1129 l 249 1000 l 179 1107 l 374 1292 l 585 1292 z "},"Ċ":{"ha":840,"x_min":44,"x_max":815,"o":"m 479 975 q 607 971 554 975 q 703 959 660 967 q 794 938 747 951 l 772 718 q 682 719 724 719 q 593 720 640 719 q 479 721 546 721 q 406 701 432 721 q 371 628 381 681 q 361 479 361 576 q 371 330 361 382 q 406 258 381 278 q 479 238 432 238 q 653 240 583 238 q 793 249 724 242 l 815 29 q 667 -6 743 4 q 479 -17 592 -17 q 225 31 321 -17 q 87 188 129 79 q 44 479 44 296 q 87 771 44 663 q 225 927 129 879 q 479 975 321 975 m 522 1268 q 604 1189 604 1268 l 604 1124 q 522 1044 604 1044 l 435 1044 q 353 1124 353 1044 l 353 1189 q 435 1268 353 1268 l 522 1268 z "},"Č":{"ha":840,"x_min":44,"x_max":815,"o":"m 479 975 q 607 971 554 975 q 703 959 660 967 q 794 938 747 951 l 772 718 q 682 719 724 719 q 593 720 640 719 q 479 721 546 721 q 406 701 432 721 q 371 628 381 681 q 361 479 361 576 q 371 330 361 382 q 406 258 381 278 q 479 238 432 238 q 653 240 583 238 q 793 249 724 242 l 815 29 q 667 -6 743 4 q 479 -17 592 -17 q 225 31 321 -17 q 87 188 129 79 q 44 479 44 296 q 87 771 44 663 q 225 927 129 879 q 479 975 321 975 m 694 1311 l 761 1204 l 535 1022 l 421 1022 l 193 1204 l 263 1311 l 472 1206 l 483 1206 l 694 1311 z "},"Ð":{"ha":974,"x_min":10,"x_max":929,"o":"m 511 568 l 511 424 l 10 424 l 10 568 l 511 568 m 482 972 q 691 949 606 972 q 829 872 776 926 q 906 721 882 817 q 929 479 929 625 q 906 238 929 333 q 829 87 882 142 q 691 9 776 32 q 482 -14 606 -14 q 263 -10 363 -14 q 72 0 163 -6 l 194 214 q 317 206 243 208 q 482 204 392 204 q 561 226 533 204 q 600 308 589 249 q 611 479 611 368 q 600 650 611 590 q 561 732 589 710 q 482 754 533 754 q 333 754 397 754 q 207 756 268 754 l 72 958 q 262 968 164 964 q 482 972 360 972 m 374 958 l 374 0 l 72 0 l 72 958 l 374 958 z "},"Ď":{"ha":974,"x_min":72,"x_max":929,"o":"m 482 972 q 691 949 606 972 q 829 872 776 926 q 906 721 882 817 q 929 479 929 625 q 906 238 929 333 q 829 87 882 142 q 691 9 776 32 q 482 -14 606 -14 q 263 -10 363 -14 q 72 0 163 -6 l 194 214 q 317 206 243 208 q 482 204 392 204 q 561 226 533 204 q 600 308 589 249 q 611 479 611 368 q 600 650 611 590 q 561 732 589 710 q 482 754 533 754 q 333 754 397 754 q 207 756 268 754 l 72 958 q 262 968 164 964 q 482 972 360 972 m 374 958 l 374 0 l 72 0 l 72 958 l 374 958 m 700 1311 l 767 1204 l 540 1022 l 426 1022 l 199 1204 l 268 1311 l 478 1206 l 489 1206 l 700 1311 z "},"Đ":{"ha":974,"x_min":10,"x_max":929,"o":"m 511 568 l 511 424 l 10 424 l 10 568 l 511 568 m 482 972 q 691 949 606 972 q 829 872 776 926 q 906 721 882 817 q 929 479 929 625 q 906 238 929 333 q 829 87 882 142 q 691 9 776 32 q 482 -14 606 -14 q 263 -10 363 -14 q 72 0 163 -6 l 194 214 q 317 206 243 208 q 482 204 392 204 q 561 226 533 204 q 600 308 589 249 q 611 479 611 368 q 600 650 611 590 q 561 732 589 710 q 482 754 533 754 q 333 754 397 754 q 207 756 268 754 l 72 958 q 262 968 164 964 q 482 972 360 972 m 374 958 l 374 0 l 72 0 l 72 958 l 374 958 z "},"È":{"ha":828,"x_min":65,"x_max":789,"o":"m 290 964 q 462 963 374 964 q 635 959 550 963 q 789 946 719 956 l 775 733 l 424 733 q 382 719 397 733 q 367 683 367 706 l 367 275 q 382 239 367 253 q 424 225 397 225 l 775 225 l 789 13 q 635 0 719 4 q 462 -5 550 -4 q 290 -6 374 -6 q 128 55 192 -6 q 65 213 65 115 l 65 746 q 128 903 65 843 q 290 964 192 964 m 90 590 l 725 590 l 725 390 l 90 390 l 90 590 m 264 1356 l 588 1147 l 508 1028 l 154 1171 l 264 1356 z "},"É":{"ha":828,"x_min":65,"x_max":789,"o":"m 290 964 q 462 963 374 964 q 635 959 550 963 q 789 946 719 956 l 775 733 l 424 733 q 382 719 397 733 q 367 683 367 706 l 367 275 q 382 239 367 253 q 424 225 397 225 l 775 225 l 789 13 q 635 0 719 4 q 462 -5 550 -4 q 290 -6 374 -6 q 128 55 192 -6 q 65 213 65 115 l 65 746 q 128 903 65 843 q 290 964 192 964 m 90 590 l 725 590 l 725 390 l 90 390 l 90 590 m 631 1328 l 740 1143 l 386 1000 l 307 1119 l 631 1328 z "},"Ê":{"ha":828,"x_min":65,"x_max":789,"o":"m 290 964 q 462 963 374 964 q 635 959 550 963 q 789 946 719 956 l 775 733 l 424 733 q 382 719 397 733 q 367 683 367 706 l 367 275 q 382 239 367 253 q 424 225 397 225 l 775 225 l 789 13 q 635 0 719 4 q 462 -5 550 -4 q 290 -6 374 -6 q 128 55 192 -6 q 65 213 65 115 l 65 746 q 128 903 65 843 q 290 964 192 964 m 90 590 l 725 590 l 725 390 l 90 390 l 90 590 m 556 1292 l 743 1096 l 676 1000 l 456 1129 l 444 1129 l 219 1000 l 150 1107 l 344 1292 l 556 1292 z "},"Ë":{"ha":828,"x_min":65,"x_max":789,"o":"m 290 964 q 462 963 374 964 q 635 959 550 963 q 789 946 719 956 l 775 733 l 424 733 q 382 719 397 733 q 367 683 367 706 l 367 275 q 382 239 367 253 q 424 225 397 225 l 775 225 l 789 13 q 635 0 719 4 q 462 -5 550 -4 q 290 -6 374 -6 q 128 55 192 -6 q 65 213 65 115 l 65 746 q 128 903 65 843 q 290 964 192 964 m 90 590 l 725 590 l 725 390 l 90 390 l 90 590 m 625 1256 q 679 1201 679 1256 l 679 1114 q 625 1060 679 1060 l 529 1060 q 475 1114 475 1060 l 475 1201 q 529 1256 475 1256 l 625 1256 m 363 1256 q 417 1201 417 1256 l 417 1114 q 363 1060 417 1060 l 267 1060 q 213 1114 213 1060 l 213 1201 q 267 1256 213 1256 l 363 1256 z "},"Ē":{"ha":828,"x_min":65,"x_max":789,"o":"m 290 964 q 462 963 374 964 q 635 959 550 963 q 789 946 719 956 l 775 733 l 424 733 q 382 719 397 733 q 367 683 367 706 l 367 275 q 382 239 367 253 q 424 225 397 225 l 775 225 l 789 13 q 635 0 719 4 q 462 -5 550 -4 q 290 -6 374 -6 q 128 55 192 -6 q 65 213 65 115 l 65 746 q 128 903 65 843 q 290 964 192 964 m 90 590 l 725 590 l 725 390 l 90 390 l 90 590 m 672 1243 l 672 1072 l 228 1072 l 228 1243 l 672 1243 z "},"Ĕ":{"ha":828,"x_min":65,"x_max":789,"o":"m 290 964 q 462 963 374 964 q 635 959 550 963 q 789 946 719 956 l 775 733 l 424 733 q 382 719 397 733 q 367 683 367 706 l 367 275 q 382 239 367 253 q 424 225 397 225 l 775 225 l 789 13 q 635 0 719 4 q 462 -5 550 -4 q 290 -6 374 -6 q 128 55 192 -6 q 65 213 65 115 l 65 746 q 128 903 65 843 q 290 964 192 964 m 90 590 l 725 590 l 725 390 l 90 390 l 90 590 m 561 1281 l 696 1263 q 680 1147 707 1201 q 594 1058 653 1092 q 449 1024 535 1024 q 304 1058 364 1024 q 217 1147 244 1092 q 200 1263 189 1201 l 335 1281 q 360 1218 335 1238 q 449 1199 386 1199 q 535 1218 510 1199 q 561 1281 561 1238 z "},"Ė":{"ha":828,"x_min":65,"x_max":789,"o":"m 290 964 q 462 963 374 964 q 635 959 550 963 q 789 946 719 956 l 775 733 l 424 733 q 382 719 397 733 q 367 683 367 706 l 367 275 q 382 239 367 253 q 424 225 397 225 l 775 225 l 789 13 q 635 0 719 4 q 462 -5 550 -4 q 290 -6 374 -6 q 128 55 192 -6 q 65 213 65 115 l 65 746 q 128 903 65 843 q 290 964 192 964 m 90 590 l 725 590 l 725 390 l 90 390 l 90 590 m 493 1268 q 575 1189 575 1268 l 575 1124 q 493 1044 575 1044 l 406 1044 q 324 1124 324 1044 l 324 1189 q 406 1268 324 1268 l 493 1268 z "},"Ę":{"ha":828,"x_min":65,"x_max":807,"o":"m 290 964 q 462 963 374 964 q 635 959 550 963 q 789 946 719 956 l 775 733 l 424 733 q 382 719 397 733 q 367 683 367 706 l 367 275 q 382 239 367 253 q 424 225 397 225 l 775 225 l 789 13 q 635 0 719 4 q 462 -5 550 -4 q 290 -6 374 -6 q 128 55 192 -6 q 65 213 65 115 l 65 746 q 128 903 65 843 q 290 964 192 964 m 90 590 l 725 590 l 725 390 l 90 390 l 90 590 m 678 15 l 789 13 q 756 -46 772 -18 q 724 -108 740 -74 q 728 -153 706 -146 q 790 -154 751 -160 l 807 -254 q 664 -286 722 -286 q 572 -264 606 -286 q 529 -206 539 -242 q 532 -133 519 -171 q 578 -61 543 -100 q 678 15 614 -22 z "},"Ě":{"ha":828,"x_min":65,"x_max":789,"o":"m 290 964 q 462 963 374 964 q 635 959 550 963 q 789 946 719 956 l 775 733 l 424 733 q 382 719 397 733 q 367 683 367 706 l 367 275 q 382 239 367 253 q 424 225 397 225 l 775 225 l 789 13 q 635 0 719 4 q 462 -5 550 -4 q 290 -6 374 -6 q 128 55 192 -6 q 65 213 65 115 l 65 746 q 128 903 65 843 q 290 964 192 964 m 90 590 l 725 590 l 725 390 l 90 390 l 90 590 m 665 1311 l 732 1204 l 506 1022 l 392 1022 l 164 1204 l 233 1311 l 443 1206 l 454 1206 l 665 1311 z "},"Ĝ":{"ha":928,"x_min":44,"x_max":876,"o":"m 496 978 q 630 974 572 978 q 737 961 688 969 q 836 938 786 953 l 814 721 q 713 722 761 722 q 614 723 665 722 q 497 724 563 724 q 431 713 457 724 q 389 676 404 703 q 367 601 374 649 q 361 479 361 553 q 372 330 361 382 q 410 258 383 278 q 483 238 436 238 q 540 240 514 238 q 586 246 565 242 q 619 253 607 250 l 649 126 q 594 64 632 99 q 497 5 556 29 q 363 -19 439 -19 q 182 30 253 -19 q 78 189 111 79 q 44 479 44 299 q 88 773 44 664 q 231 930 132 882 q 496 978 331 978 m 876 551 l 876 0 l 654 0 l 615 149 l 588 200 l 588 551 l 876 551 m 596 1292 l 783 1096 l 717 1000 l 496 1129 l 485 1129 l 260 1000 l 190 1107 l 385 1292 l 596 1292 z "},"Ğ":{"ha":928,"x_min":44,"x_max":876,"o":"m 496 978 q 630 974 572 978 q 737 961 688 969 q 836 938 786 953 l 814 721 q 713 722 761 722 q 614 723 665 722 q 497 724 563 724 q 431 713 457 724 q 389 676 404 703 q 367 601 374 649 q 361 479 361 553 q 372 330 361 382 q 410 258 383 278 q 483 238 436 238 q 540 240 514 238 q 586 246 565 242 q 619 253 607 250 l 649 126 q 594 64 632 99 q 497 5 556 29 q 363 -19 439 -19 q 182 30 253 -19 q 78 189 111 79 q 44 479 44 299 q 88 773 44 664 q 231 930 132 882 q 496 978 331 978 m 876 551 l 876 0 l 654 0 l 615 149 l 588 200 l 588 551 l 876 551 m 601 1281 l 736 1263 q 720 1147 747 1201 q 634 1058 693 1092 q 489 1024 575 1024 q 344 1058 404 1024 q 257 1147 285 1092 q 240 1263 229 1201 l 375 1281 q 401 1218 375 1238 q 489 1199 426 1199 q 576 1218 550 1199 q 601 1281 601 1238 z "},"Ġ":{"ha":928,"x_min":44,"x_max":876,"o":"m 496 978 q 630 974 572 978 q 737 961 688 969 q 836 938 786 953 l 814 721 q 713 722 761 722 q 614 723 665 722 q 497 724 563 724 q 431 713 457 724 q 389 676 404 703 q 367 601 374 649 q 361 479 361 553 q 372 330 361 382 q 410 258 383 278 q 483 238 436 238 q 540 240 514 238 q 586 246 565 242 q 619 253 607 250 l 649 126 q 594 64 632 99 q 497 5 556 29 q 363 -19 439 -19 q 182 30 253 -19 q 78 189 111 79 q 44 479 44 299 q 88 773 44 664 q 231 930 132 882 q 496 978 331 978 m 876 551 l 876 0 l 654 0 l 615 149 l 588 200 l 588 551 l 876 551 m 533 1268 q 615 1189 615 1268 l 615 1124 q 533 1044 615 1044 l 446 1044 q 364 1124 364 1044 l 364 1189 q 446 1268 364 1268 l 533 1268 z "},"Ģ":{"ha":928,"x_min":44,"x_max":876,"o":"m 513 -67 q 582 -83 563 -67 q 603 -142 601 -99 l 603 -208 q 593 -299 603 -261 q 564 -368 583 -337 q 518 -429 544 -399 l 419 -403 q 438 -331 433 -368 q 444 -260 443 -294 q 367 -193 369 -260 l 371 -142 q 390 -83 371 -99 q 460 -67 410 -67 l 513 -67 m 496 978 q 630 974 572 978 q 737 961 688 969 q 836 938 786 953 l 814 721 q 713 722 761 722 q 614 723 665 722 q 497 724 563 724 q 431 713 457 724 q 389 676 404 703 q 367 601 374 649 q 361 479 361 553 q 372 330 361 382 q 410 258 383 278 q 483 238 436 238 q 540 240 514 238 q 586 246 565 242 q 619 253 607 250 l 649 126 q 594 64 632 99 q 497 5 556 29 q 363 -19 439 -19 q 182 30 253 -19 q 78 189 111 79 q 44 479 44 299 q 88 773 44 664 q 231 930 132 882 q 496 978 331 978 m 876 551 l 876 0 l 654 0 l 615 149 l 588 200 l 588 551 l 876 551 z "},"Ĥ":{"ha":992,"x_min":74,"x_max":918,"o":"m 375 958 l 375 0 l 74 0 l 74 958 l 375 958 m 632 614 l 632 403 l 364 403 l 364 614 l 632 614 m 918 958 l 918 0 l 617 0 l 617 958 l 918 958 m 600 1292 l 788 1096 l 721 1000 l 500 1129 l 489 1129 l 264 1000 l 194 1107 l 389 1292 l 600 1292 z "},"Ħ":{"ha":992,"x_min":6,"x_max":989,"o":"m 989 835 l 989 704 l 6 704 l 6 835 l 989 835 m 375 958 l 375 0 l 74 0 l 74 958 l 375 958 m 632 614 l 632 403 l 364 403 l 364 614 l 632 614 m 918 958 l 918 0 l 617 0 l 617 958 l 918 958 z "},"Ì":{"ha":446,"x_min":-71,"x_max":372,"o":"m 372 958 l 372 0 l 74 0 l 74 958 l 372 958 m 39 1356 l 363 1147 l 283 1028 l -71 1171 l 39 1356 z "},"Í":{"ha":446,"x_min":74,"x_max":515,"o":"m 372 958 l 372 0 l 74 0 l 74 958 l 372 958 m 406 1328 l 515 1143 l 161 1000 l 82 1119 l 406 1328 z "},"Î":{"ha":446,"x_min":-75,"x_max":518,"o":"m 372 958 l 372 0 l 74 0 l 74 958 l 372 958 m 331 1292 l 518 1096 l 451 1000 l 231 1129 l 219 1129 l -6 1000 l -75 1107 l 119 1292 l 331 1292 z "},"Ĩ":{"ha":446,"x_min":-57,"x_max":494,"o":"m 372 958 l 372 0 l 74 0 l 74 958 l 372 958 m 76 1278 q 143 1268 113 1275 q 202 1251 174 1261 q 258 1233 231 1242 q 311 1218 285 1224 q 347 1225 343 1213 q 351 1271 351 1238 l 472 1271 q 457 1093 494 1154 q 354 1036 419 1032 q 265 1052 307 1040 q 186 1077 222 1064 q 118 1096 150 1090 q 83 1089 88 1101 q 79 1043 79 1076 l -42 1043 q -42 1179 -57 1126 q 7 1256 -26 1232 q 76 1278 40 1281 z "},"Ï":{"ha":446,"x_min":-12,"x_max":454,"o":"m 372 958 l 372 0 l 74 0 l 74 958 l 372 958 m 400 1256 q 454 1201 454 1256 l 454 1114 q 400 1060 454 1060 l 304 1060 q 250 1114 250 1060 l 250 1201 q 304 1256 250 1256 l 400 1256 m 138 1256 q 192 1201 192 1256 l 192 1114 q 138 1060 192 1060 l 42 1060 q -12 1114 -12 1060 l -12 1201 q 42 1256 -12 1256 l 138 1256 z "},"Ī":{"ha":446,"x_min":3,"x_max":447,"o":"m 372 958 l 372 0 l 74 0 l 74 958 l 372 958 m 447 1243 l 447 1072 l 3 1072 l 3 1243 l 447 1243 z "},"Ĭ":{"ha":446,"x_min":-36,"x_max":482,"o":"m 372 958 l 372 0 l 74 0 l 74 958 l 372 958 m 336 1281 l 471 1263 q 455 1147 482 1201 q 369 1058 428 1092 q 224 1024 310 1024 q 79 1058 139 1024 q -8 1147 19 1092 q -25 1263 -36 1201 l 110 1281 q 135 1218 110 1238 q 224 1199 161 1199 q 310 1218 285 1199 q 336 1281 336 1238 z "},"Į":{"ha":446,"x_min":64,"x_max":372,"o":"m 372 958 l 372 0 l 74 0 l 74 958 l 372 958 m 222 3 l 333 0 q 301 -58 317 -31 q 268 -121 285 -86 q 273 -165 250 -158 q 335 -167 296 -172 l 351 -267 q 208 -299 267 -299 q 117 -276 150 -299 q 74 -219 83 -254 q 76 -146 64 -183 q 123 -74 88 -112 q 222 3 158 -35 z "},"İ":{"ha":446,"x_min":74,"x_max":372,"o":"m 372 958 l 372 0 l 74 0 l 74 958 l 372 958 m 268 1268 q 350 1189 350 1268 l 350 1124 q 268 1044 350 1044 l 181 1044 q 99 1124 99 1044 l 99 1189 q 181 1268 99 1268 l 268 1268 z "},"Ĳ":{"ha":1007,"x_min":74,"x_max":938,"o":"m 372 958 l 372 0 l 74 0 l 74 958 l 372 958 m 938 958 l 938 176 q 869 32 938 83 q 683 -19 801 -19 q 609 -15 653 -19 q 524 -3 565 -11 q 460 17 483 4 l 492 206 l 557 206 q 639 254 639 206 l 639 958 l 938 958 z "},"Ĵ":{"ha":561,"x_min":14,"x_max":642,"o":"m 492 958 l 492 176 q 424 32 492 83 q 238 -19 356 -19 q 163 -15 207 -19 q 78 -3 119 -11 q 14 17 38 4 l 46 206 l 111 206 q 193 254 193 206 l 193 958 l 492 958 m 454 1292 l 642 1096 l 575 1000 l 354 1129 l 343 1129 l 118 1000 l 49 1107 l 243 1292 l 454 1292 z "},"Ķ":{"ha":939,"x_min":74,"x_max":951,"o":"m 510 -67 q 579 -83 560 -67 q 600 -142 599 -99 l 600 -208 q 590 -299 600 -261 q 561 -368 581 -337 q 515 -429 542 -399 l 417 -403 q 435 -331 431 -368 q 442 -260 440 -294 q 364 -193 367 -260 l 368 -142 q 388 -83 368 -99 q 457 -67 407 -67 l 510 -67 m 938 958 l 717 583 q 675 529 699 551 q 632 499 651 507 l 632 493 q 681 458 651 485 q 728 399 711 431 l 951 0 l 617 0 l 363 501 l 614 958 l 938 958 m 375 958 l 375 717 q 365 608 375 664 q 332 503 354 551 q 362 406 349 458 q 375 313 375 354 l 375 0 l 74 0 l 74 958 l 375 958 m 450 594 l 450 400 l 289 400 l 289 594 l 450 594 z "},"Ĺ":{"ha":774,"x_min":68,"x_max":765,"o":"m 371 958 l 371 289 q 387 253 371 267 q 429 239 403 239 l 751 239 l 765 14 q 537 -3 658 0 q 297 -6 415 -6 q 131 55 193 -6 q 69 213 69 115 l 69 958 l 371 958 m 392 1328 l 501 1143 l 147 1000 l 68 1119 l 392 1328 z "},"Ļ":{"ha":774,"x_min":69,"x_max":765,"o":"m 435 -67 q 504 -83 485 -67 q 525 -142 524 -99 l 525 -208 q 515 -299 525 -261 q 486 -368 506 -337 q 440 -429 467 -399 l 342 -403 q 360 -331 356 -368 q 367 -260 365 -294 q 289 -193 292 -260 l 293 -142 q 313 -83 293 -99 q 382 -67 332 -67 l 435 -67 m 371 958 l 371 289 q 387 253 371 267 q 429 239 403 239 l 751 239 l 765 14 q 537 -3 658 0 q 297 -6 415 -6 q 131 55 193 -6 q 69 213 69 115 l 69 958 l 371 958 z "},"Ľ":{"ha":774,"x_min":69,"x_max":765,"o":"m 371 958 l 371 289 q 387 253 371 267 q 429 239 403 239 l 751 239 l 765 14 q 537 -3 658 0 q 297 -6 415 -6 q 131 55 193 -6 q 69 213 69 115 l 69 958 l 371 958 m 626 958 q 687 941 669 958 q 704 875 704 924 l 704 801 q 685 663 704 715 q 632 560 667 610 l 546 589 q 562 667 558 628 q 567 746 565 707 q 500 819 496 746 l 503 875 q 522 941 506 924 q 581 958 538 958 l 626 958 z "},"Ŀ":{"ha":774,"x_min":69,"x_max":765,"o":"m 540 458 q 458 538 458 458 l 458 603 q 540 682 458 682 l 628 682 q 710 603 710 682 l 710 538 q 628 458 710 458 l 540 458 m 371 958 l 371 289 q 387 253 371 267 q 429 239 403 239 l 751 239 l 765 14 q 537 -3 658 0 q 297 -6 415 -6 q 131 55 193 -6 q 69 213 69 115 l 69 958 l 371 958 z "},"Ł":{"ha":774,"x_min":10,"x_max":765,"o":"m 515 713 l 515 568 l 10 374 l 10 518 l 515 713 m 371 958 l 371 289 q 387 253 371 267 q 429 239 403 239 l 751 239 l 765 14 q 537 -3 658 0 q 297 -6 415 -6 q 131 55 193 -6 q 69 213 69 115 l 69 958 l 371 958 z "},"Ñ":{"ha":1025,"x_min":72,"x_max":954,"o":"m 954 958 l 954 104 q 850 0 954 0 l 735 0 q 665 22 688 0 q 618 88 642 44 l 410 417 q 374 495 390 453 q 346 581 358 538 l 336 581 q 347 492 343 538 q 350 406 350 447 l 350 0 l 72 0 l 72 854 q 176 958 72 958 l 292 958 q 361 936 339 958 q 408 871 383 914 l 608 557 q 647 481 628 522 q 682 393 665 439 l 692 393 q 683 481 686 438 q 679 567 679 524 l 678 958 l 954 958 m 382 1278 q 449 1268 418 1275 q 508 1251 479 1261 q 563 1233 536 1242 q 617 1218 590 1224 q 653 1225 649 1213 q 657 1271 657 1238 l 778 1271 q 763 1093 800 1154 q 660 1036 725 1032 q 570 1052 613 1040 q 492 1077 528 1064 q 424 1096 456 1090 q 389 1089 393 1101 q 385 1043 385 1076 l 264 1043 q 264 1179 249 1126 q 313 1256 279 1232 q 382 1278 346 1281 z "},"Ń":{"ha":1025,"x_min":72,"x_max":954,"o":"m 954 958 l 954 104 q 850 0 954 0 l 735 0 q 665 22 688 0 q 618 88 642 44 l 410 417 q 374 495 390 453 q 346 581 358 538 l 336 581 q 347 492 343 538 q 350 406 350 447 l 350 0 l 72 0 l 72 854 q 176 958 72 958 l 292 958 q 361 936 339 958 q 408 871 383 914 l 608 557 q 647 481 628 522 q 682 393 665 439 l 692 393 q 683 481 686 438 q 679 567 679 524 l 678 958 l 954 958 m 711 1328 l 821 1143 l 467 1000 l 388 1119 l 711 1328 z "},"Ņ":{"ha":1025,"x_min":72,"x_max":954,"o":"m 553 -67 q 622 -83 603 -67 q 643 -142 642 -99 l 643 -208 q 633 -299 643 -261 q 604 -368 624 -337 q 558 -429 585 -399 l 460 -403 q 478 -331 474 -368 q 485 -260 483 -294 q 407 -193 410 -260 l 411 -142 q 431 -83 411 -99 q 500 -67 450 -67 l 553 -67 m 954 958 l 954 104 q 850 0 954 0 l 735 0 q 665 22 688 0 q 618 88 642 44 l 410 417 q 374 495 390 453 q 346 581 358 538 l 336 581 q 347 492 343 538 q 350 406 350 447 l 350 0 l 72 0 l 72 854 q 176 958 72 958 l 292 958 q 361 936 339 958 q 408 871 383 914 l 608 557 q 647 481 628 522 q 682 393 665 439 l 692 393 q 683 481 686 438 q 679 567 679 524 l 678 958 l 954 958 z "},"Ň":{"ha":1025,"x_min":72,"x_max":954,"o":"m 954 958 l 954 104 q 850 0 954 0 l 735 0 q 665 22 688 0 q 618 88 642 44 l 410 417 q 374 495 390 453 q 346 581 358 538 l 336 581 q 347 492 343 538 q 350 406 350 447 l 350 0 l 72 0 l 72 854 q 176 958 72 958 l 292 958 q 361 936 339 958 q 408 871 383 914 l 608 557 q 647 481 628 522 q 682 393 665 439 l 692 393 q 683 481 686 438 q 679 567 679 524 l 678 958 l 954 958 m 746 1311 l 813 1204 l 586 1022 l 472 1022 l 244 1204 l 314 1311 l 524 1206 l 535 1206 l 746 1311 z "},"Ŋ":{"ha":1028,"x_min":72,"x_max":954,"o":"m 954 958 l 954 -46 q 899 -221 954 -158 q 753 -283 843 -283 q 653 -274 713 -283 q 553 -247 594 -265 l 585 -58 l 635 -58 q 694 -21 694 -58 l 694 13 l 688 13 q 660 36 678 13 q 625 88 642 60 l 410 417 q 374 496 389 453 q 344 581 358 539 l 336 581 q 345 500 342 540 q 349 419 349 460 l 349 0 l 72 0 l 72 854 q 176 958 72 958 l 290 958 q 361 936 338 958 q 408 871 385 914 l 608 557 q 644 486 625 529 q 681 393 664 443 l 690 393 q 681 478 685 436 q 676 564 676 521 l 676 958 l 954 958 z "},"Ò":{"ha":982,"x_min":44,"x_max":938,"o":"m 490 978 q 699 955 614 978 q 838 876 785 932 q 914 724 890 821 q 938 479 938 628 q 914 235 938 332 q 838 82 890 138 q 699 3 785 26 q 490 -19 614 -19 q 283 3 368 -19 q 144 82 197 26 q 68 235 92 138 q 44 479 44 332 q 68 724 44 628 q 144 876 92 821 q 283 955 197 932 q 490 978 368 978 m 490 754 q 411 732 439 754 q 372 650 383 710 q 361 479 361 590 q 372 308 361 368 q 411 226 383 249 q 490 204 439 204 q 569 226 542 204 q 608 308 597 249 q 619 479 619 368 q 608 650 619 590 q 569 732 597 710 q 490 754 542 754 m 304 1356 l 628 1147 l 549 1028 l 194 1171 l 304 1356 z "},"Ó":{"ha":982,"x_min":44,"x_max":938,"o":"m 490 978 q 699 955 614 978 q 838 876 785 932 q 914 724 890 821 q 938 479 938 628 q 914 235 938 332 q 838 82 890 138 q 699 3 785 26 q 490 -19 614 -19 q 283 3 368 -19 q 144 82 197 26 q 68 235 92 138 q 44 479 44 332 q 68 724 44 628 q 144 876 92 821 q 283 955 197 932 q 490 978 368 978 m 490 754 q 411 732 439 754 q 372 650 383 710 q 361 479 361 590 q 372 308 361 368 q 411 226 383 249 q 490 204 439 204 q 569 226 542 204 q 608 308 597 249 q 619 479 619 368 q 608 650 619 590 q 569 732 597 710 q 490 754 542 754 m 671 1356 l 781 1171 l 426 1028 l 347 1147 l 671 1356 z "},"Ô":{"ha":982,"x_min":44,"x_max":938,"o":"m 490 978 q 699 955 614 978 q 838 876 785 932 q 914 724 890 821 q 938 479 938 628 q 914 235 938 332 q 838 82 890 138 q 699 3 785 26 q 490 -19 614 -19 q 283 3 368 -19 q 144 82 197 26 q 68 235 92 138 q 44 479 44 332 q 68 724 44 628 q 144 876 92 821 q 283 955 197 932 q 490 978 368 978 m 490 754 q 411 732 439 754 q 372 650 383 710 q 361 479 361 590 q 372 308 361 368 q 411 226 383 249 q 490 204 439 204 q 569 226 542 204 q 608 308 597 249 q 619 479 619 368 q 608 650 619 590 q 569 732 597 710 q 490 754 542 754 m 596 1292 l 783 1096 l 717 1000 l 496 1129 l 485 1129 l 260 1000 l 190 1107 l 385 1292 l 596 1292 z "},"Õ":{"ha":982,"x_min":44,"x_max":938,"o":"m 490 978 q 699 955 614 978 q 838 876 785 932 q 914 724 890 821 q 938 479 938 628 q 914 235 938 332 q 838 82 890 138 q 699 3 785 26 q 490 -19 614 -19 q 283 3 368 -19 q 144 82 197 26 q 68 235 92 138 q 44 479 44 332 q 68 724 44 628 q 144 876 92 821 q 283 955 197 932 q 490 978 368 978 m 490 754 q 411 732 439 754 q 372 650 383 710 q 361 479 361 590 q 372 308 361 368 q 411 226 383 249 q 490 204 439 204 q 569 226 542 204 q 608 308 597 249 q 619 479 619 368 q 608 650 619 590 q 569 732 597 710 q 490 754 542 754 m 342 1278 q 408 1268 378 1275 q 467 1251 439 1261 q 523 1233 496 1242 q 576 1218 550 1224 q 613 1225 608 1213 q 617 1271 617 1238 l 738 1271 q 722 1093 760 1154 q 619 1036 685 1032 q 530 1052 572 1040 q 451 1077 488 1064 q 383 1096 415 1090 q 349 1089 353 1101 q 344 1043 344 1076 l 224 1043 q 224 1179 208 1126 q 272 1256 239 1232 q 342 1278 306 1281 z "},"Ö":{"ha":982,"x_min":44,"x_max":938,"o":"m 490 978 q 699 955 614 978 q 838 876 785 932 q 914 724 890 821 q 938 479 938 628 q 914 235 938 332 q 838 82 890 138 q 699 3 785 26 q 490 -19 614 -19 q 283 3 368 -19 q 144 82 197 26 q 68 235 92 138 q 44 479 44 332 q 68 724 44 628 q 144 876 92 821 q 283 955 197 932 q 490 978 368 978 m 490 754 q 411 732 439 754 q 372 650 383 710 q 361 479 361 590 q 372 308 361 368 q 411 226 383 249 q 490 204 439 204 q 569 226 542 204 q 608 308 597 249 q 619 479 619 368 q 608 650 619 590 q 569 732 597 710 q 490 754 542 754 m 665 1256 q 719 1201 719 1256 l 719 1114 q 665 1060 719 1060 l 569 1060 q 515 1114 515 1060 l 515 1201 q 569 1256 515 1256 l 665 1256 m 403 1256 q 457 1201 457 1256 l 457 1114 q 403 1060 457 1060 l 307 1060 q 253 1114 253 1060 l 253 1201 q 307 1256 253 1256 l 403 1256 z "},"Ō":{"ha":982,"x_min":44,"x_max":938,"o":"m 490 978 q 699 955 614 978 q 838 876 785 932 q 914 724 890 821 q 938 479 938 628 q 914 235 938 332 q 838 82 890 138 q 699 3 785 26 q 490 -19 614 -19 q 283 3 368 -19 q 144 82 197 26 q 68 235 92 138 q 44 479 44 332 q 68 724 44 628 q 144 876 92 821 q 283 955 197 932 q 490 978 368 978 m 490 754 q 411 732 439 754 q 372 650 383 710 q 361 479 361 590 q 372 308 361 368 q 411 226 383 249 q 490 204 439 204 q 569 226 542 204 q 608 308 597 249 q 619 479 619 368 q 608 650 619 590 q 569 732 597 710 q 490 754 542 754 m 713 1243 l 713 1072 l 268 1072 l 268 1243 l 713 1243 z "},"Ŏ":{"ha":982,"x_min":44,"x_max":938,"o":"m 490 978 q 699 955 614 978 q 838 876 785 932 q 914 724 890 821 q 938 479 938 628 q 914 235 938 332 q 838 82 890 138 q 699 3 785 26 q 490 -19 614 -19 q 283 3 368 -19 q 144 82 197 26 q 68 235 92 138 q 44 479 44 332 q 68 724 44 628 q 144 876 92 821 q 283 955 197 932 q 490 978 368 978 m 490 754 q 411 732 439 754 q 372 650 383 710 q 361 479 361 590 q 372 308 361 368 q 411 226 383 249 q 490 204 439 204 q 569 226 542 204 q 608 308 597 249 q 619 479 619 368 q 608 650 619 590 q 569 732 597 710 q 490 754 542 754 m 601 1281 l 736 1263 q 720 1147 747 1201 q 634 1058 693 1092 q 489 1024 575 1024 q 344 1058 404 1024 q 257 1147 285 1092 q 240 1263 229 1201 l 375 1281 q 401 1218 375 1238 q 489 1199 426 1199 q 576 1218 550 1199 q 601 1281 601 1238 z "},"Ő":{"ha":982,"x_min":44,"x_max":938,"o":"m 490 978 q 699 955 614 978 q 838 876 785 932 q 914 724 890 821 q 938 479 938 628 q 914 235 938 332 q 838 82 890 138 q 699 3 785 26 q 490 -19 614 -19 q 283 3 368 -19 q 144 82 197 26 q 68 235 92 138 q 44 479 44 332 q 68 724 44 628 q 144 876 92 821 q 283 955 197 932 q 490 978 368 978 m 490 754 q 411 732 439 754 q 372 650 383 710 q 361 479 361 590 q 372 308 361 368 q 411 226 383 249 q 490 204 439 204 q 569 226 542 204 q 608 308 597 249 q 619 479 619 368 q 608 650 619 590 q 569 732 597 710 q 490 754 542 754 m 378 1344 l 557 1228 l 322 983 l 207 1076 l 378 1344 m 676 1344 l 856 1228 l 619 983 l 506 1075 l 676 1344 z "},"Ø":{"ha":982,"x_min":44,"x_max":938,"o":"m 704 1051 l 785 1014 l 265 -99 l 185 -61 l 704 1051 m 490 978 q 699 955 614 978 q 838 876 785 932 q 914 724 890 821 q 938 479 938 628 q 914 235 938 332 q 838 82 890 138 q 699 3 785 26 q 490 -19 614 -19 q 283 3 368 -19 q 144 82 197 26 q 68 235 92 138 q 44 479 44 332 q 68 724 44 628 q 144 876 92 821 q 283 955 197 932 q 490 978 368 978 m 490 754 q 411 732 439 754 q 372 650 383 710 q 361 479 361 590 q 372 308 361 368 q 411 226 383 249 q 490 204 439 204 q 569 226 542 204 q 608 308 597 249 q 619 479 619 368 q 608 650 619 590 q 569 732 597 710 q 490 754 542 754 z "},"Œ":{"ha":1364,"x_min":46,"x_max":1325,"o":"m 485 978 q 584 973 538 978 q 673 958 631 968 q 754 933 715 949 l 638 736 q 599 747 621 743 q 549 752 578 750 q 485 754 521 754 q 410 732 436 754 q 374 650 383 710 q 364 479 364 590 q 374 308 364 368 q 410 226 383 249 q 485 204 436 204 q 552 207 524 204 q 603 215 581 210 q 642 228 625 219 l 746 40 q 667 6 708 19 q 581 -13 626 -7 q 485 -19 536 -19 q 280 3 364 -19 q 144 82 196 26 q 69 235 93 138 q 46 479 46 332 q 69 724 46 628 q 144 876 93 821 q 280 955 196 932 q 485 978 364 978 m 838 964 q 1006 963 919 964 q 1176 959 1093 963 q 1325 946 1258 956 l 1311 733 l 976 733 q 937 719 951 733 q 922 683 922 706 l 922 275 q 937 239 922 253 q 976 225 951 225 l 1311 225 l 1325 13 q 1175 0 1258 4 q 1005 -5 1092 -4 q 836 -6 918 -6 q 681 55 742 -6 q 619 213 619 115 l 619 746 q 681 903 619 843 q 838 964 743 964 m 643 583 l 1264 583 l 1264 397 l 643 397 l 643 583 z "},"Ŕ":{"ha":939,"x_min":72,"x_max":921,"o":"m 479 972 q 710 946 621 972 q 841 856 799 919 q 883 681 883 793 q 866 574 883 624 q 806 493 849 525 q 689 453 764 461 l 689 444 q 747 428 715 442 q 807 384 779 415 q 846 294 835 353 l 921 0 l 606 0 l 543 285 q 517 338 535 325 q 461 350 500 350 q 291 351 357 351 q 179 353 225 351 q 88 357 133 354 l 92 563 l 472 563 q 539 571 515 563 q 572 601 563 579 q 581 661 581 622 q 572 722 581 701 q 539 751 563 743 q 472 760 515 760 q 229 758 328 760 q 94 753 131 757 l 72 958 q 192 968 136 965 q 316 972 249 971 q 479 972 383 972 m 368 958 l 368 0 l 72 0 l 72 958 l 368 958 m 640 1328 l 750 1143 l 396 1000 l 317 1119 l 640 1328 z "},"Ŗ":{"ha":939,"x_min":72,"x_max":921,"o":"m 508 -67 q 578 -83 558 -67 q 599 -142 597 -99 l 599 -208 q 589 -299 599 -261 q 560 -368 579 -337 q 514 -429 540 -399 l 415 -403 q 434 -331 429 -368 q 440 -260 439 -294 q 363 -193 365 -260 l 367 -142 q 386 -83 367 -99 q 456 -67 406 -67 l 508 -67 m 479 972 q 710 946 621 972 q 841 856 799 919 q 883 681 883 793 q 866 574 883 624 q 806 493 849 525 q 689 453 764 461 l 689 444 q 747 428 715 442 q 807 384 779 415 q 846 294 835 353 l 921 0 l 606 0 l 543 285 q 517 338 535 325 q 461 350 500 350 q 291 351 357 351 q 179 353 225 351 q 88 357 133 354 l 92 563 l 472 563 q 539 571 515 563 q 572 601 563 579 q 581 661 581 622 q 572 722 581 701 q 539 751 563 743 q 472 760 515 760 q 229 758 328 760 q 94 753 131 757 l 72 958 q 192 968 136 965 q 316 972 249 971 q 479 972 383 972 m 368 958 l 368 0 l 72 0 l 72 958 l 368 958 z "},"Ř":{"ha":939,"x_min":72,"x_max":921,"o":"m 479 972 q 710 946 621 972 q 841 856 799 919 q 883 681 883 793 q 866 574 883 624 q 806 493 849 525 q 689 453 764 461 l 689 444 q 747 428 715 442 q 807 384 779 415 q 846 294 835 353 l 921 0 l 606 0 l 543 285 q 517 338 535 325 q 461 350 500 350 q 291 351 357 351 q 179 353 225 351 q 88 357 133 354 l 92 563 l 472 563 q 539 571 515 563 q 572 601 563 579 q 581 661 581 622 q 572 722 581 701 q 539 751 563 743 q 472 760 515 760 q 229 758 328 760 q 94 753 131 757 l 72 958 q 192 968 136 965 q 316 972 249 971 q 479 972 383 972 m 368 958 l 368 0 l 72 0 l 72 958 l 368 958 m 675 1311 l 742 1204 l 515 1022 l 401 1022 l 174 1204 l 243 1311 l 453 1206 l 464 1206 l 675 1311 z "},"Ś":{"ha":847,"x_min":42,"x_max":813,"o":"m 436 978 q 605 969 511 978 q 785 929 699 960 l 767 736 q 612 738 704 738 q 429 739 519 739 q 385 738 403 739 q 358 732 368 736 q 344 721 349 728 q 340 703 340 714 q 358 670 340 683 q 424 638 375 657 l 597 565 q 765 447 717 514 q 813 274 813 379 q 793 137 813 193 q 728 47 774 81 q 608 -3 683 13 q 421 -19 533 -19 q 274 -12 372 -19 q 50 28 175 -4 l 68 239 q 221 235 151 238 q 341 233 290 233 q 417 232 392 232 q 476 235 456 232 q 503 245 496 238 q 511 265 511 253 q 506 288 511 279 q 486 306 500 297 q 446 324 472 314 l 256 407 q 90 525 139 460 q 42 696 42 590 q 63 832 42 778 q 131 918 85 886 q 252 964 176 950 q 436 978 328 978 m 610 1328 l 719 1143 l 365 1000 l 286 1119 l 610 1328 z "},"Ŝ":{"ha":847,"x_min":42,"x_max":813,"o":"m 436 978 q 605 969 511 978 q 785 929 699 960 l 767 736 q 612 738 704 738 q 429 739 519 739 q 385 738 403 739 q 358 732 368 736 q 344 721 349 728 q 340 703 340 714 q 358 670 340 683 q 424 638 375 657 l 597 565 q 765 447 717 514 q 813 274 813 379 q 793 137 813 193 q 728 47 774 81 q 608 -3 683 13 q 421 -19 533 -19 q 274 -12 372 -19 q 50 28 175 -4 l 68 239 q 221 235 151 238 q 341 233 290 233 q 417 232 392 232 q 476 235 456 232 q 503 245 496 238 q 511 265 511 253 q 506 288 511 279 q 486 306 500 297 q 446 324 472 314 l 256 407 q 90 525 139 460 q 42 696 42 590 q 63 832 42 778 q 131 918 85 886 q 252 964 176 950 q 436 978 328 978 m 535 1292 l 722 1096 l 656 1000 l 435 1129 l 424 1129 l 199 1000 l 129 1107 l 324 1292 l 535 1292 z "},"Ş":{"ha":847,"x_min":42,"x_max":813,"o":"m 436 978 q 605 969 511 978 q 785 929 699 960 l 767 736 q 612 738 704 738 q 429 739 519 739 q 385 738 403 739 q 358 732 368 736 q 344 721 349 728 q 340 703 340 714 q 358 670 340 683 q 424 638 375 657 l 597 565 q 765 447 717 514 q 813 274 813 379 q 793 137 813 193 q 728 47 774 81 q 608 -3 683 13 q 421 -19 533 -19 q 274 -12 372 -19 q 50 28 175 -4 l 68 239 q 221 235 151 238 q 341 233 290 233 q 417 232 392 232 q 476 235 456 232 q 503 245 496 238 q 511 265 511 253 q 506 288 511 279 q 486 306 500 297 q 446 324 472 314 l 256 407 q 90 525 139 460 q 42 696 42 590 q 63 832 42 778 q 131 918 85 886 q 252 964 176 950 q 436 978 328 978 m 333 -62 q 476 -53 421 -53 q 556 -75 531 -53 q 578 -153 581 -97 q 530 -281 575 -232 q 413 -349 485 -331 q 253 -357 340 -368 l 283 -249 q 365 -237 329 -249 q 404 -178 400 -226 q 390 -162 407 -162 q 307 -162 372 -162 l 333 -62 z "},"Š":{"ha":847,"x_min":42,"x_max":813,"o":"m 436 978 q 605 969 511 978 q 785 929 699 960 l 767 736 q 612 738 704 738 q 429 739 519 739 q 385 738 403 739 q 358 732 368 736 q 344 721 349 728 q 340 703 340 714 q 358 670 340 683 q 424 638 375 657 l 597 565 q 765 447 717 514 q 813 274 813 379 q 793 137 813 193 q 728 47 774 81 q 608 -3 683 13 q 421 -19 533 -19 q 274 -12 372 -19 q 50 28 175 -4 l 68 239 q 221 235 151 238 q 341 233 290 233 q 417 232 392 232 q 476 235 456 232 q 503 245 496 238 q 511 265 511 253 q 506 288 511 279 q 486 306 500 297 q 446 324 472 314 l 256 407 q 90 525 139 460 q 42 696 42 590 q 63 832 42 778 q 131 918 85 886 q 252 964 176 950 q 436 978 328 978 m 644 1311 l 711 1204 l 485 1022 l 371 1022 l 143 1204 l 213 1311 l 422 1206 l 433 1206 l 644 1311 z "},"Ș":{"ha":847,"x_min":42,"x_max":813,"o":"m 407 -67 q 476 -83 457 -67 q 497 -142 496 -99 l 497 -208 q 488 -299 497 -261 q 458 -368 478 -337 q 413 -429 439 -399 l 314 -403 q 333 -331 328 -368 q 339 -260 338 -294 q 261 -193 264 -260 l 265 -142 q 285 -83 265 -99 q 354 -67 304 -67 l 407 -67 m 436 978 q 605 969 511 978 q 785 929 699 960 l 767 736 q 612 738 704 738 q 429 739 519 739 q 385 738 403 739 q 358 732 368 736 q 344 721 349 728 q 340 703 340 714 q 358 670 340 683 q 424 638 375 657 l 597 565 q 765 447 717 514 q 813 274 813 379 q 793 137 813 193 q 728 47 774 81 q 608 -3 683 13 q 421 -19 533 -19 q 274 -12 372 -19 q 50 28 175 -4 l 68 239 q 221 235 151 238 q 341 233 290 233 q 417 232 392 232 q 476 235 456 232 q 503 245 496 238 q 511 265 511 253 q 506 288 511 279 q 486 306 500 297 q 446 324 472 314 l 256 407 q 90 525 139 460 q 42 696 42 590 q 63 832 42 778 q 131 918 85 886 q 252 964 176 950 q 436 978 328 978 z "},"Ț":{"ha":865,"x_min":14,"x_max":851,"o":"m 450 -67 q 519 -83 500 -67 q 540 -142 539 -99 l 540 -208 q 531 -299 540 -261 q 501 -368 521 -337 q 456 -429 482 -399 l 357 -403 q 376 -331 371 -368 q 382 -260 381 -294 q 304 -193 307 -260 l 308 -142 q 328 -83 308 -99 q 397 -67 347 -67 l 450 -67 m 583 958 l 583 0 l 282 0 l 282 958 l 583 958 m 851 958 l 851 733 l 14 733 l 14 958 l 851 958 z "},"Ť":{"ha":865,"x_min":14,"x_max":851,"o":"m 583 958 l 583 0 l 282 0 l 282 958 l 583 958 m 851 958 l 851 733 l 14 733 l 14 958 l 851 958 m 649 1311 l 715 1204 l 489 1022 l 375 1022 l 147 1204 l 217 1311 l 426 1206 l 438 1206 l 649 1311 z "},"Ŧ":{"ha":871,"x_min":17,"x_max":854,"o":"m 746 557 l 746 426 l 122 426 l 122 557 l 746 557 m 586 958 l 586 0 l 285 0 l 285 958 l 586 958 m 854 958 l 854 733 l 17 733 l 17 958 l 854 958 z "},"Ţ":{"ha":865,"x_min":14,"x_max":851,"o":"m 583 958 l 583 0 l 282 0 l 282 958 l 583 958 m 851 958 l 851 733 l 14 733 l 14 958 l 851 958 m 326 -74 q 469 -64 414 -64 q 549 -86 524 -64 q 571 -164 574 -108 q 523 -292 568 -243 q 406 -360 478 -342 q 246 -368 333 -379 l 276 -260 q 358 -249 322 -260 q 397 -189 393 -237 q 383 -174 400 -174 q 300 -174 365 -174 l 326 -74 z "},"Þ":{"ha":879,"x_min":74,"x_max":856,"o":"m 468 803 q 701 774 617 803 q 821 675 786 746 q 856 476 856 604 q 822 280 856 350 q 713 181 789 210 q 510 153 638 153 q 374 160 442 153 q 248 180 307 168 q 147 205 189 192 q 89 229 106 218 l 93 365 q 274 365 181 365 q 461 365 368 365 q 519 374 499 365 q 547 408 539 383 q 554 476 554 432 q 547 547 554 522 q 519 581 539 571 q 461 590 499 590 q 226 589 324 590 q 94 583 129 588 l 74 789 q 190 799 136 796 q 310 802 244 801 q 468 803 375 803 m 375 958 l 375 0 l 74 0 l 74 958 l 375 958 z "},"Ù":{"ha":979,"x_min":65,"x_max":914,"o":"m 914 958 l 914 396 q 874 152 914 243 q 745 21 835 61 q 506 -19 656 -19 q 247 21 343 -19 q 108 152 150 61 q 65 396 65 243 l 65 958 l 367 958 l 367 396 q 377 278 367 319 q 415 220 388 236 q 490 204 442 204 q 565 220 539 204 q 602 278 592 236 q 613 396 613 319 l 613 958 l 914 958 m 307 1356 l 631 1147 l 551 1028 l 197 1171 l 307 1356 z "},"Ú":{"ha":979,"x_min":65,"x_max":914,"o":"m 914 958 l 914 396 q 874 152 914 243 q 745 21 835 61 q 506 -19 656 -19 q 247 21 343 -19 q 108 152 150 61 q 65 396 65 243 l 65 958 l 367 958 l 367 396 q 377 278 367 319 q 415 220 388 236 q 490 204 442 204 q 565 220 539 204 q 602 278 592 236 q 613 396 613 319 l 613 958 l 914 958 m 674 1328 l 783 1143 l 429 1000 l 350 1119 l 674 1328 z "},"Û":{"ha":979,"x_min":65,"x_max":914,"o":"m 914 958 l 914 396 q 874 152 914 243 q 745 21 835 61 q 506 -19 656 -19 q 247 21 343 -19 q 108 152 150 61 q 65 396 65 243 l 65 958 l 367 958 l 367 396 q 377 278 367 319 q 415 220 388 236 q 490 204 442 204 q 565 220 539 204 q 602 278 592 236 q 613 396 613 319 l 613 958 l 914 958 m 599 1292 l 786 1096 l 719 1000 l 499 1129 l 488 1129 l 263 1000 l 193 1107 l 388 1292 l 599 1292 z "},"Ũ":{"ha":979,"x_min":65,"x_max":914,"o":"m 914 958 l 914 396 q 874 152 914 243 q 745 21 835 61 q 506 -19 656 -19 q 247 21 343 -19 q 108 152 150 61 q 65 396 65 243 l 65 958 l 367 958 l 367 396 q 377 278 367 319 q 415 220 388 236 q 490 204 442 204 q 565 220 539 204 q 602 278 592 236 q 613 396 613 319 l 613 958 l 914 958 m 344 1278 q 411 1268 381 1275 q 470 1251 442 1261 q 526 1233 499 1242 q 579 1218 553 1224 q 615 1225 611 1213 q 619 1271 619 1238 l 740 1271 q 725 1093 763 1154 q 622 1036 688 1032 q 533 1052 575 1040 q 454 1077 490 1064 q 386 1096 418 1090 q 351 1089 356 1101 q 347 1043 347 1076 l 226 1043 q 226 1179 211 1126 q 275 1256 242 1232 q 344 1278 308 1281 z "},"Ü":{"ha":979,"x_min":65,"x_max":914,"o":"m 914 958 l 914 396 q 874 152 914 243 q 745 21 835 61 q 506 -19 656 -19 q 247 21 343 -19 q 108 152 150 61 q 65 396 65 243 l 65 958 l 367 958 l 367 396 q 377 278 367 319 q 415 220 388 236 q 490 204 442 204 q 565 220 539 204 q 602 278 592 236 q 613 396 613 319 l 613 958 l 914 958 m 668 1256 q 722 1201 722 1256 l 722 1114 q 668 1060 722 1060 l 572 1060 q 518 1114 518 1060 l 518 1201 q 572 1256 518 1256 l 668 1256 m 406 1256 q 460 1201 460 1256 l 460 1114 q 406 1060 460 1060 l 310 1060 q 256 1114 256 1060 l 256 1201 q 310 1256 256 1256 l 406 1256 z "},"Ū":{"ha":979,"x_min":65,"x_max":914,"o":"m 914 958 l 914 396 q 874 152 914 243 q 745 21 835 61 q 506 -19 656 -19 q 247 21 343 -19 q 108 152 150 61 q 65 396 65 243 l 65 958 l 367 958 l 367 396 q 377 278 367 319 q 415 220 388 236 q 490 204 442 204 q 565 220 539 204 q 602 278 592 236 q 613 396 613 319 l 613 958 l 914 958 m 715 1243 l 715 1072 l 271 1072 l 271 1243 l 715 1243 z "},"Ŭ":{"ha":979,"x_min":65,"x_max":914,"o":"m 914 958 l 914 396 q 874 152 914 243 q 745 21 835 61 q 506 -19 656 -19 q 247 21 343 -19 q 108 152 150 61 q 65 396 65 243 l 65 958 l 367 958 l 367 396 q 377 278 367 319 q 415 220 388 236 q 490 204 442 204 q 565 220 539 204 q 602 278 592 236 q 613 396 613 319 l 613 958 l 914 958 m 604 1281 l 739 1263 q 723 1147 750 1201 q 637 1058 696 1092 q 492 1024 578 1024 q 347 1058 407 1024 q 260 1147 288 1092 q 243 1263 232 1201 l 378 1281 q 403 1218 378 1238 q 492 1199 429 1199 q 578 1218 553 1199 q 604 1281 604 1238 z "},"Ů":{"ha":979,"x_min":65,"x_max":914,"o":"m 914 958 l 914 396 q 874 152 914 243 q 745 21 835 61 q 506 -19 656 -19 q 247 21 343 -19 q 108 152 150 61 q 65 396 65 243 l 65 958 l 367 958 l 367 396 q 377 278 367 319 q 415 220 388 236 q 490 204 442 204 q 565 220 539 204 q 602 278 592 236 q 613 396 613 319 l 613 958 l 914 958 m 492 1338 q 581 1314 540 1338 q 647 1251 622 1290 q 671 1164 671 1213 q 647 1076 671 1115 q 581 1013 622 1036 q 492 990 540 990 q 402 1013 443 990 q 337 1076 361 1036 q 313 1164 313 1115 q 337 1251 313 1213 q 402 1314 361 1290 q 492 1338 443 1338 m 492 1226 q 449 1208 467 1226 q 431 1164 431 1189 q 449 1119 431 1138 q 492 1101 467 1101 q 535 1119 517 1101 q 553 1164 553 1138 q 535 1208 553 1189 q 492 1226 517 1226 z "},"Ű":{"ha":979,"x_min":65,"x_max":914,"o":"m 914 958 l 914 396 q 874 152 914 243 q 745 21 835 61 q 506 -19 656 -19 q 247 21 343 -19 q 108 152 150 61 q 65 396 65 243 l 65 958 l 367 958 l 367 396 q 377 278 367 319 q 415 220 388 236 q 490 204 442 204 q 565 220 539 204 q 602 278 592 236 q 613 396 613 319 l 613 958 l 914 958 m 381 1344 l 560 1228 l 325 983 l 210 1076 l 381 1344 m 679 1344 l 858 1228 l 622 983 l 508 1075 l 679 1344 z "},"Ų":{"ha":979,"x_min":65,"x_max":914,"o":"m 914 958 l 914 396 q 874 152 914 243 q 745 21 835 61 q 506 -19 656 -19 q 247 21 343 -19 q 108 152 150 61 q 65 396 65 243 l 65 958 l 367 958 l 367 396 q 377 278 367 319 q 415 220 388 236 q 490 204 442 204 q 565 220 539 204 q 602 278 592 236 q 613 396 613 319 l 613 958 l 914 958 m 460 3 l 571 0 q 538 -58 554 -31 q 506 -121 522 -86 q 510 -165 488 -158 q 572 -167 533 -172 l 589 -267 q 446 -299 504 -299 q 354 -276 388 -299 q 311 -219 321 -254 q 314 -146 301 -183 q 360 -74 325 -112 q 460 3 396 -35 z "},"Ẁ":{"ha":1393,"x_min":28,"x_max":1365,"o":"m 1365 958 l 1246 81 q 1211 22 1240 44 q 1143 0 1182 0 l 888 0 q 819 22 849 0 q 785 81 789 44 l 719 610 q 713 680 715 644 q 708 750 711 715 l 685 750 q 681 679 683 715 q 674 608 678 643 l 610 81 q 576 22 606 44 q 507 0 546 0 l 250 0 q 182 22 211 0 q 147 81 153 44 l 28 958 l 325 958 l 374 371 q 378 297 376 336 q 379 211 379 257 l 401 211 q 413 291 407 247 q 424 372 419 335 l 488 869 q 520 934 492 910 q 589 958 549 958 l 804 958 q 872 934 844 958 q 906 869 900 910 l 971 369 q 981 290 975 332 q 992 211 986 249 l 1014 211 q 1017 292 1014 250 q 1021 368 1019 333 l 1068 958 l 1365 958 m 513 1356 l 836 1147 l 757 1028 l 403 1171 l 513 1356 z "},"Ẃ":{"ha":1393,"x_min":28,"x_max":1365,"o":"m 1365 958 l 1246 81 q 1211 22 1240 44 q 1143 0 1182 0 l 888 0 q 819 22 849 0 q 785 81 789 44 l 719 610 q 713 680 715 644 q 708 750 711 715 l 685 750 q 681 679 683 715 q 674 608 678 643 l 610 81 q 576 22 606 44 q 507 0 546 0 l 250 0 q 182 22 211 0 q 147 81 153 44 l 28 958 l 325 958 l 374 371 q 378 297 376 336 q 379 211 379 257 l 401 211 q 413 291 407 247 q 424 372 419 335 l 488 869 q 520 934 492 910 q 589 958 549 958 l 804 958 q 872 934 844 958 q 906 869 900 910 l 971 369 q 981 290 975 332 q 992 211 986 249 l 1014 211 q 1017 292 1014 250 q 1021 368 1019 333 l 1068 958 l 1365 958 m 879 1328 l 989 1143 l 635 1000 l 556 1119 l 879 1328 z "},"Ŵ":{"ha":1393,"x_min":28,"x_max":1365,"o":"m 1365 958 l 1246 81 q 1211 22 1240 44 q 1143 0 1182 0 l 888 0 q 819 22 849 0 q 785 81 789 44 l 719 610 q 713 680 715 644 q 708 750 711 715 l 685 750 q 681 679 683 715 q 674 608 678 643 l 610 81 q 576 22 606 44 q 507 0 546 0 l 250 0 q 182 22 211 0 q 147 81 153 44 l 28 958 l 325 958 l 374 371 q 378 297 376 336 q 379 211 379 257 l 401 211 q 413 291 407 247 q 424 372 419 335 l 488 869 q 520 934 492 910 q 589 958 549 958 l 804 958 q 872 934 844 958 q 906 869 900 910 l 971 369 q 981 290 975 332 q 992 211 986 249 l 1014 211 q 1017 292 1014 250 q 1021 368 1019 333 l 1068 958 l 1365 958 m 804 1292 l 992 1096 l 925 1000 l 704 1129 l 693 1129 l 468 1000 l 399 1107 l 593 1292 l 804 1292 z "},"Ẅ":{"ha":1393,"x_min":28,"x_max":1365,"o":"m 1365 958 l 1246 81 q 1211 22 1240 44 q 1143 0 1182 0 l 888 0 q 819 22 849 0 q 785 81 789 44 l 719 610 q 713 680 715 644 q 708 750 711 715 l 685 750 q 681 679 683 715 q 674 608 678 643 l 610 81 q 576 22 606 44 q 507 0 546 0 l 250 0 q 182 22 211 0 q 147 81 153 44 l 28 958 l 325 958 l 374 371 q 378 297 376 336 q 379 211 379 257 l 401 211 q 413 291 407 247 q 424 372 419 335 l 488 869 q 520 934 492 910 q 589 958 549 958 l 804 958 q 872 934 844 958 q 906 869 900 910 l 971 369 q 981 290 975 332 q 992 211 986 249 l 1014 211 q 1017 292 1014 250 q 1021 368 1019 333 l 1068 958 l 1365 958 m 874 1256 q 928 1201 928 1256 l 928 1114 q 874 1060 928 1060 l 778 1060 q 724 1114 724 1060 l 724 1201 q 778 1256 724 1256 l 874 1256 m 611 1256 q 665 1201 665 1256 l 665 1114 q 611 1060 665 1060 l 515 1060 q 461 1114 461 1060 l 461 1201 q 515 1256 461 1256 l 611 1256 z "},"Ỳ":{"ha":908,"x_min":-14,"x_max":922,"o":"m 922 958 l 599 285 l 310 285 l -14 958 l 296 958 l 417 657 q 435 590 429 626 q 446 522 440 554 l 464 522 q 476 591 469 554 q 493 658 482 628 l 613 958 l 922 958 m 606 456 l 606 0 l 304 0 l 304 456 l 606 456 m 271 1356 l 594 1147 l 515 1028 l 161 1171 l 271 1356 z "},"Ý":{"ha":908,"x_min":-14,"x_max":922,"o":"m 922 958 l 599 285 l 310 285 l -14 958 l 296 958 l 417 657 q 435 590 429 626 q 446 522 440 554 l 464 522 q 476 591 469 554 q 493 658 482 628 l 613 958 l 922 958 m 606 456 l 606 0 l 304 0 l 304 456 l 606 456 m 638 1328 l 747 1143 l 393 1000 l 314 1119 l 638 1328 z "},"Ŷ":{"ha":908,"x_min":-14,"x_max":922,"o":"m 922 958 l 599 285 l 310 285 l -14 958 l 296 958 l 417 657 q 435 590 429 626 q 446 522 440 554 l 464 522 q 476 591 469 554 q 493 658 482 628 l 613 958 l 922 958 m 606 456 l 606 0 l 304 0 l 304 456 l 606 456 m 563 1292 l 750 1096 l 683 1000 l 463 1129 l 451 1129 l 226 1000 l 157 1107 l 351 1292 l 563 1292 z "},"Ÿ":{"ha":908,"x_min":-14,"x_max":922,"o":"m 922 958 l 599 285 l 310 285 l -14 958 l 296 958 l 417 657 q 435 590 429 626 q 446 522 440 554 l 464 522 q 476 591 469 554 q 493 658 482 628 l 613 958 l 922 958 m 606 456 l 606 0 l 304 0 l 304 456 l 606 456 m 632 1256 q 686 1201 686 1256 l 686 1114 q 632 1060 686 1060 l 536 1060 q 482 1114 482 1060 l 482 1201 q 536 1256 482 1256 l 632 1256 m 369 1256 q 424 1201 424 1256 l 424 1114 q 369 1060 424 1060 l 274 1060 q 219 1114 219 1060 l 219 1201 q 274 1256 219 1256 l 369 1256 z "},"Ź":{"ha":840,"x_min":40,"x_max":801,"o":"m 456 749 l 788 747 l 372 210 l 40 211 l 456 749 m 801 211 l 801 0 l 40 0 l 40 211 l 801 211 m 788 958 l 788 747 l 54 747 l 54 958 l 788 958 m 604 1328 l 714 1143 l 360 1000 l 281 1119 l 604 1328 z "},"Ż":{"ha":840,"x_min":40,"x_max":801,"o":"m 456 749 l 788 747 l 372 210 l 40 211 l 456 749 m 801 211 l 801 0 l 40 0 l 40 211 l 801 211 m 788 958 l 788 747 l 54 747 l 54 958 l 788 958 m 467 1268 q 549 1189 549 1268 l 549 1124 q 467 1044 549 1044 l 379 1044 q 297 1124 297 1044 l 297 1189 q 379 1268 297 1268 l 467 1268 z "},"Ž":{"ha":840,"x_min":40,"x_max":801,"o":"m 456 749 l 788 747 l 372 210 l 40 211 l 456 749 m 801 211 l 801 0 l 40 0 l 40 211 l 801 211 m 788 958 l 788 747 l 54 747 l 54 958 l 788 958 m 639 1311 l 706 1204 l 479 1022 l 365 1022 l 138 1204 l 207 1311 l 417 1206 l 428 1206 l 639 1311 z "},"Ǿ":{"ha":982,"x_min":44,"x_max":938,"o":"m 704 1051 l 785 1014 l 265 -99 l 185 -61 l 704 1051 m 490 978 q 699 955 614 978 q 838 876 785 932 q 914 724 890 821 q 938 479 938 628 q 914 235 938 332 q 838 82 890 138 q 699 3 785 26 q 490 -19 614 -19 q 283 3 368 -19 q 144 82 197 26 q 68 235 92 138 q 44 479 44 332 q 68 724 44 628 q 144 876 92 821 q 283 955 197 932 q 490 978 368 978 m 490 754 q 411 732 439 754 q 372 650 383 710 q 361 479 361 590 q 372 308 361 368 q 411 226 383 249 q 490 204 439 204 q 569 226 542 204 q 608 308 597 249 q 619 479 619 368 q 608 650 619 590 q 569 732 597 710 q 490 754 542 754 m 671 1356 l 781 1171 l 426 1028 l 347 1147 l 671 1356 z "},"Ǻ":{"ha":949,"x_min":-12,"x_max":961,"o":"m 611 875 q 674 854 647 875 q 713 797 701 833 l 961 0 l 654 0 l 510 540 q 499 595 503 567 q 493 650 496 624 l 456 650 q 449 595 453 624 q 439 540 446 567 l 294 0 l -12 0 l 236 797 q 274 854 247 833 q 338 875 301 875 l 611 875 m 729 418 l 729 207 l 219 207 l 219 418 l 729 418 m 567 1582 l 676 1397 l 322 1254 l 243 1374 l 567 1582 m 476 1263 q 566 1239 525 1263 q 631 1176 607 1215 q 656 1089 656 1138 q 631 1001 656 1040 q 566 938 607 961 q 476 915 525 915 q 387 938 428 915 q 322 1001 346 961 q 297 1089 297 1040 q 322 1176 297 1138 q 387 1239 346 1215 q 476 1263 428 1263 m 476 1151 q 433 1133 451 1151 q 415 1089 415 1114 q 433 1044 415 1063 q 476 1026 451 1026 q 519 1044 501 1026 q 538 1089 538 1063 q 519 1133 538 1114 q 476 1151 501 1151 z "},"Ǽ":{"ha":1325,"x_min":-26,"x_max":1286,"o":"m 800 961 q 1047 959 933 961 q 1286 946 1160 957 l 1272 738 l 944 738 q 906 724 921 738 q 890 688 890 710 l 890 271 q 905 235 890 249 q 944 221 919 221 l 1272 221 l 1286 13 q 1055 -3 1178 -1 q 813 -6 932 -6 q 664 55 718 -6 q 610 213 610 115 l 610 692 q 615 737 610 714 q 631 778 621 760 l 611 778 q 594 747 601 764 q 579 717 586 729 l 281 0 l -26 0 l 308 742 q 369 842 335 800 q 456 910 403 883 q 593 949 510 936 q 800 961 676 961 m 678 429 l 678 224 l 181 224 l 182 429 l 678 429 m 621 583 l 1225 583 l 1225 397 l 621 397 l 621 583 m 965 1356 l 1075 1171 l 721 1028 l 642 1147 l 965 1356 z "},"Ə":{"ha":935,"x_min":42,"x_max":890,"o":"m 469 -17 q 229 21 324 -17 q 88 129 135 58 q 42 301 42 200 q 108 500 42 428 q 292 572 174 572 l 788 572 l 788 378 l 421 378 q 349 355 368 378 q 329 296 329 332 q 357 226 329 247 q 458 204 385 204 q 559 228 529 204 q 596 308 589 251 q 603 467 603 365 q 603 601 603 544 q 589 692 603 657 q 538 744 575 728 q 425 761 500 761 q 266 756 354 761 q 99 739 178 750 l 79 924 q 189 954 128 943 q 315 971 250 965 q 435 976 379 976 q 699 926 599 976 q 844 767 799 876 q 890 478 890 657 q 847 188 890 296 q 711 31 804 79 q 469 -17 618 -17 z "},"à":{"ha":819,"x_min":29,"x_max":767,"o":"m 463 714 q 628 688 561 714 q 731 601 696 663 q 767 431 767 539 l 767 0 l 535 0 l 494 149 l 475 176 l 475 432 q 456 485 474 468 q 393 501 439 501 q 260 500 339 501 q 93 494 182 499 l 67 679 q 192 697 119 689 q 338 709 265 704 q 463 714 410 714 m 654 426 l 653 286 l 365 286 q 326 274 339 286 q 313 243 313 263 l 313 221 q 327 190 313 203 q 371 178 342 178 q 440 194 404 178 q 510 235 476 210 q 567 286 543 260 l 567 197 q 536 138 557 174 q 480 65 515 101 q 392 5 444 29 q 268 -19 340 -19 q 149 3 204 -19 q 62 69 94 25 q 29 178 29 113 l 29 247 q 91 378 29 331 q 258 426 153 426 l 654 426 m 236 1119 l 560 911 l 481 792 l 126 935 l 236 1119 z "},"á":{"ha":819,"x_min":29,"x_max":767,"o":"m 463 714 q 628 688 561 714 q 731 601 696 663 q 767 431 767 539 l 767 0 l 535 0 l 494 149 l 475 176 l 475 432 q 456 485 474 468 q 393 501 439 501 q 260 500 339 501 q 93 494 182 499 l 67 679 q 192 697 119 689 q 338 709 265 704 q 463 714 410 714 m 654 426 l 653 286 l 365 286 q 326 274 339 286 q 313 243 313 263 l 313 221 q 327 190 313 203 q 371 178 342 178 q 440 194 404 178 q 510 235 476 210 q 567 286 543 260 l 567 197 q 536 138 557 174 q 480 65 515 101 q 392 5 444 29 q 268 -19 340 -19 q 149 3 204 -19 q 62 69 94 25 q 29 178 29 113 l 29 247 q 91 378 29 331 q 258 426 153 426 l 654 426 m 603 1092 l 713 907 l 358 764 l 279 883 l 603 1092 z "},"â":{"ha":819,"x_min":29,"x_max":767,"o":"m 463 714 q 628 688 561 714 q 731 601 696 663 q 767 431 767 539 l 767 0 l 535 0 l 494 149 l 475 176 l 475 432 q 456 485 474 468 q 393 501 439 501 q 260 500 339 501 q 93 494 182 499 l 67 679 q 192 697 119 689 q 338 709 265 704 q 463 714 410 714 m 654 426 l 653 286 l 365 286 q 326 274 339 286 q 313 243 313 263 l 313 221 q 327 190 313 203 q 371 178 342 178 q 440 194 404 178 q 510 235 476 210 q 567 286 543 260 l 567 197 q 536 138 557 174 q 480 65 515 101 q 392 5 444 29 q 268 -19 340 -19 q 149 3 204 -19 q 62 69 94 25 q 29 178 29 113 l 29 247 q 91 378 29 331 q 258 426 153 426 l 654 426 m 528 1056 l 715 860 l 649 764 l 428 893 l 417 893 l 192 764 l 122 871 l 317 1056 l 528 1056 z "},"ã":{"ha":819,"x_min":29,"x_max":767,"o":"m 463 714 q 628 688 561 714 q 731 601 696 663 q 767 431 767 539 l 767 0 l 535 0 l 494 149 l 475 176 l 475 432 q 456 485 474 468 q 393 501 439 501 q 260 500 339 501 q 93 494 182 499 l 67 679 q 192 697 119 689 q 338 709 265 704 q 463 714 410 714 m 654 426 l 653 286 l 365 286 q 326 274 339 286 q 313 243 313 263 l 313 221 q 327 190 313 203 q 371 178 342 178 q 440 194 404 178 q 510 235 476 210 q 567 286 543 260 l 567 197 q 536 138 557 174 q 480 65 515 101 q 392 5 444 29 q 268 -19 340 -19 q 149 3 204 -19 q 62 69 94 25 q 29 178 29 113 l 29 247 q 91 378 29 331 q 258 426 153 426 l 654 426 m 274 1042 q 340 1032 310 1039 q 399 1015 371 1025 q 455 997 428 1006 q 508 982 482 988 q 544 989 540 976 q 549 1035 549 1001 l 669 1035 q 654 857 692 918 q 551 800 617 796 q 462 816 504 804 q 383 841 419 828 q 315 860 347 854 q 281 853 285 865 q 276 807 276 840 l 156 807 q 156 943 140 890 q 204 1020 171 996 q 274 1042 238 1044 z "},"ä":{"ha":819,"x_min":29,"x_max":767,"o":"m 463 714 q 628 688 561 714 q 731 601 696 663 q 767 431 767 539 l 767 0 l 535 0 l 494 149 l 475 176 l 475 432 q 456 485 474 468 q 393 501 439 501 q 260 500 339 501 q 93 494 182 499 l 67 679 q 192 697 119 689 q 338 709 265 704 q 463 714 410 714 m 654 426 l 653 286 l 365 286 q 326 274 339 286 q 313 243 313 263 l 313 221 q 327 190 313 203 q 371 178 342 178 q 440 194 404 178 q 510 235 476 210 q 567 286 543 260 l 567 197 q 536 138 557 174 q 480 65 515 101 q 392 5 444 29 q 268 -19 340 -19 q 149 3 204 -19 q 62 69 94 25 q 29 178 29 113 l 29 247 q 91 378 29 331 q 258 426 153 426 l 654 426 m 597 1019 q 651 965 651 1019 l 651 878 q 597 824 651 824 l 501 824 q 447 878 447 824 l 447 965 q 501 1019 447 1019 l 597 1019 m 335 1019 q 389 965 389 1019 l 389 878 q 335 824 389 824 l 239 824 q 185 878 185 824 l 185 965 q 239 1019 185 1019 l 335 1019 z "},"å":{"ha":819,"x_min":29,"x_max":767,"o":"m 463 714 q 628 688 561 714 q 731 601 696 663 q 767 431 767 539 l 767 0 l 535 0 l 494 149 l 475 176 l 475 432 q 456 485 474 468 q 393 501 439 501 q 260 500 339 501 q 93 494 182 499 l 67 679 q 192 697 119 689 q 338 709 265 704 q 463 714 410 714 m 654 426 l 653 286 l 365 286 q 326 274 339 286 q 313 243 313 263 l 313 221 q 327 190 313 203 q 371 178 342 178 q 440 194 404 178 q 510 235 476 210 q 567 286 543 260 l 567 197 q 536 138 557 174 q 480 65 515 101 q 392 5 444 29 q 268 -19 340 -19 q 149 3 204 -19 q 62 69 94 25 q 29 178 29 113 l 29 247 q 91 378 29 331 q 258 426 153 426 l 654 426 m 421 1101 q 510 1078 469 1101 q 576 1015 551 1054 q 600 928 600 976 q 576 840 600 879 q 510 777 551 800 q 421 754 469 754 q 331 777 372 754 q 266 840 290 800 q 242 928 242 879 q 266 1015 242 976 q 331 1078 290 1054 q 421 1101 372 1101 m 421 990 q 378 972 396 990 q 360 928 360 953 q 378 883 360 901 q 421 865 396 865 q 464 883 446 865 q 482 928 482 901 q 464 972 482 953 q 421 990 446 990 z "},"ā":{"ha":819,"x_min":29,"x_max":767,"o":"m 463 714 q 628 688 561 714 q 731 601 696 663 q 767 431 767 539 l 767 0 l 535 0 l 494 149 l 475 176 l 475 432 q 456 485 474 468 q 393 501 439 501 q 260 500 339 501 q 93 494 182 499 l 67 679 q 192 697 119 689 q 338 709 265 704 q 463 714 410 714 m 654 426 l 653 286 l 365 286 q 326 274 339 286 q 313 243 313 263 l 313 221 q 327 190 313 203 q 371 178 342 178 q 440 194 404 178 q 510 235 476 210 q 567 286 543 260 l 567 197 q 536 138 557 174 q 480 65 515 101 q 392 5 444 29 q 268 -19 340 -19 q 149 3 204 -19 q 62 69 94 25 q 29 178 29 113 l 29 247 q 91 378 29 331 q 258 426 153 426 l 654 426 m 644 1007 l 644 836 l 200 836 l 200 1007 l 644 1007 z "},"ă":{"ha":819,"x_min":29,"x_max":767,"o":"m 463 714 q 628 688 561 714 q 731 601 696 663 q 767 431 767 539 l 767 0 l 535 0 l 494 149 l 475 176 l 475 432 q 456 485 474 468 q 393 501 439 501 q 260 500 339 501 q 93 494 182 499 l 67 679 q 192 697 119 689 q 338 709 265 704 q 463 714 410 714 m 654 426 l 653 286 l 365 286 q 326 274 339 286 q 313 243 313 263 l 313 221 q 327 190 313 203 q 371 178 342 178 q 440 194 404 178 q 510 235 476 210 q 567 286 543 260 l 567 197 q 536 138 557 174 q 480 65 515 101 q 392 5 444 29 q 268 -19 340 -19 q 149 3 204 -19 q 62 69 94 25 q 29 178 29 113 l 29 247 q 91 378 29 331 q 258 426 153 426 l 654 426 m 533 1044 l 668 1026 q 652 910 679 965 q 566 822 625 856 q 421 788 507 788 q 276 822 336 788 q 189 910 217 856 q 172 1026 161 965 l 307 1044 q 333 982 307 1001 q 421 963 358 963 q 508 982 482 963 q 533 1044 533 1001 z "},"ą":{"ha":819,"x_min":29,"x_max":785,"o":"m 463 714 q 628 688 561 714 q 731 601 696 663 q 767 431 767 539 l 767 0 l 535 0 l 494 149 l 475 176 l 475 432 q 456 485 474 468 q 393 501 439 501 q 260 500 339 501 q 93 494 182 499 l 67 679 q 192 697 119 689 q 338 709 265 704 q 463 714 410 714 m 654 426 l 653 286 l 365 286 q 326 274 339 286 q 313 243 313 263 l 313 221 q 327 190 313 203 q 371 178 342 178 q 440 194 404 178 q 510 235 476 210 q 567 286 543 260 l 567 197 q 536 138 557 174 q 480 65 515 101 q 392 5 444 29 q 268 -19 340 -19 q 149 3 204 -19 q 62 69 94 25 q 29 178 29 113 l 29 247 q 91 378 29 331 q 258 426 153 426 l 654 426 m 656 3 l 767 0 q 734 -58 750 -31 q 701 -121 718 -86 q 706 -165 683 -158 q 768 -167 729 -172 l 785 -267 q 642 -299 700 -299 q 550 -276 583 -299 q 507 -219 517 -254 q 510 -146 497 -183 q 556 -74 521 -112 q 656 3 592 -35 z "},"æ":{"ha":1231,"x_min":29,"x_max":1203,"o":"m 847 714 q 1120 651 1040 714 q 1201 467 1200 589 q 1178 362 1203 403 q 1094 302 1153 321 q 933 283 1036 283 l 574 283 l 574 421 l 851 421 q 910 430 897 421 q 922 474 922 439 q 907 517 922 507 q 856 526 892 526 q 790 518 813 528 q 760 476 768 508 q 753 374 753 443 q 762 274 753 310 q 798 222 771 238 q 881 207 825 207 q 993 210 919 207 q 1156 222 1067 213 l 1182 47 q 1080 8 1133 22 q 969 -11 1026 -6 q 849 -17 911 -17 q 621 24 706 -17 q 498 144 536 64 q 460 342 460 224 q 498 560 460 479 q 621 678 536 642 q 847 714 706 714 m 642 422 l 640 283 l 363 286 q 325 274 338 286 q 313 243 313 263 l 313 221 q 326 190 313 203 q 367 178 340 178 q 433 194 399 178 q 499 235 467 210 q 553 286 531 260 l 567 183 q 536 128 557 161 q 480 60 515 94 q 391 3 444 26 q 263 -19 338 -19 q 147 3 200 -19 q 61 69 93 25 q 29 178 29 113 l 29 247 q 90 375 29 328 q 253 422 150 422 l 642 422 m 454 714 q 617 688 551 714 q 718 601 683 663 q 753 431 753 539 l 753 311 l 460 311 l 460 432 q 443 485 460 468 q 385 501 426 501 q 255 500 332 501 q 92 494 178 499 l 65 679 q 188 697 117 689 q 331 709 260 704 q 454 714 403 714 z "},"ç":{"ha":733,"x_min":36,"x_max":708,"o":"m 408 714 q 503 710 451 714 q 606 694 554 706 q 699 663 657 683 l 669 482 q 553 482 603 482 q 458 482 503 482 q 388 471 414 482 q 352 431 363 460 q 342 349 342 403 q 352 265 342 294 q 388 225 363 236 q 458 214 414 214 q 517 215 482 214 q 596 217 553 215 q 682 224 639 219 l 708 42 q 567 -3 647 10 q 406 -17 486 -17 q 188 19 269 -17 q 72 135 107 54 q 36 349 36 215 q 72 563 36 483 q 190 678 108 643 q 408 714 272 714 m 289 -69 q 431 -60 376 -60 q 511 -82 486 -60 q 533 -160 536 -104 q 485 -288 531 -239 q 368 -356 440 -337 q 208 -364 296 -375 l 239 -256 q 320 -244 285 -256 q 360 -185 356 -233 q 345 -169 363 -169 q 263 -169 328 -169 l 289 -69 z "},"ć":{"ha":733,"x_min":36,"x_max":708,"o":"m 408 714 q 503 710 451 714 q 606 694 554 706 q 699 663 657 683 l 669 482 q 553 482 603 482 q 458 482 503 482 q 388 471 414 482 q 352 431 363 460 q 342 349 342 403 q 352 265 342 294 q 388 225 363 236 q 458 214 414 214 q 517 215 482 214 q 596 217 553 215 q 682 224 639 219 l 708 42 q 567 -3 647 10 q 406 -17 486 -17 q 188 19 269 -17 q 72 135 107 54 q 36 349 36 215 q 72 563 36 483 q 190 678 108 643 q 408 714 272 714 m 588 1081 l 697 896 l 343 753 l 264 872 l 588 1081 z "},"ĉ":{"ha":733,"x_min":36,"x_max":708,"o":"m 408 714 q 503 710 451 714 q 606 694 554 706 q 699 663 657 683 l 669 482 q 553 482 603 482 q 458 482 503 482 q 388 471 414 482 q 352 431 363 460 q 342 349 342 403 q 352 265 342 294 q 388 225 363 236 q 458 214 414 214 q 517 215 482 214 q 596 217 553 215 q 682 224 639 219 l 708 42 q 567 -3 647 10 q 406 -17 486 -17 q 188 19 269 -17 q 72 135 107 54 q 36 349 36 215 q 72 563 36 483 q 190 678 108 643 q 408 714 272 714 m 513 1044 l 700 849 l 633 753 l 413 882 l 401 882 l 176 753 l 107 860 l 301 1044 l 513 1044 z "},"ċ":{"ha":733,"x_min":36,"x_max":708,"o":"m 408 714 q 503 710 451 714 q 606 694 554 706 q 699 663 657 683 l 669 482 q 553 482 603 482 q 458 482 503 482 q 388 471 414 482 q 352 431 363 460 q 342 349 342 403 q 352 265 342 294 q 388 225 363 236 q 458 214 414 214 q 517 215 482 214 q 596 217 553 215 q 682 224 639 219 l 708 42 q 567 -3 647 10 q 406 -17 486 -17 q 188 19 269 -17 q 72 135 107 54 q 36 349 36 215 q 72 563 36 483 q 190 678 108 643 q 408 714 272 714 m 450 1021 q 532 942 532 1021 l 532 876 q 450 797 532 797 l 363 797 q 281 876 281 797 l 281 942 q 363 1021 281 1021 l 450 1021 z "},"č":{"ha":733,"x_min":36,"x_max":708,"o":"m 408 714 q 503 710 451 714 q 606 694 554 706 q 699 663 657 683 l 669 482 q 553 482 603 482 q 458 482 503 482 q 388 471 414 482 q 352 431 363 460 q 342 349 342 403 q 352 265 342 294 q 388 225 363 236 q 458 214 414 214 q 517 215 482 214 q 596 217 553 215 q 682 224 639 219 l 708 42 q 567 -3 647 10 q 406 -17 486 -17 q 188 19 269 -17 q 72 135 107 54 q 36 349 36 215 q 72 563 36 483 q 190 678 108 643 q 408 714 272 714 m 622 1064 l 689 957 l 463 775 l 349 775 l 121 957 l 190 1064 l 400 958 l 411 958 l 622 1064 z "},"ď":{"ha":861,"x_min":39,"x_max":1061,"o":"m 303 714 q 451 690 382 714 q 563 608 519 667 l 542 494 q 488 513 514 503 q 419 524 463 524 q 373 513 390 524 q 347 468 356 503 q 339 358 339 433 q 347 265 339 294 q 372 226 354 235 q 415 217 389 217 q 467 222 446 217 q 503 235 488 226 q 538 253 519 243 l 556 133 q 465 26 528 69 q 290 -17 401 -17 q 97 81 154 -17 q 39 356 39 179 q 69 576 39 499 q 158 683 99 653 q 303 714 217 714 m 801 972 l 801 0 l 569 0 l 542 133 l 510 156 l 510 592 l 518 608 q 513 705 515 653 q 510 807 510 757 l 510 972 l 801 972 m 983 979 q 1044 962 1026 979 q 1061 896 1061 944 l 1061 822 q 1042 683 1061 736 q 989 581 1024 631 l 903 610 q 919 688 915 649 q 924 767 922 728 q 857 840 853 767 l 860 896 q 878 962 863 944 q 938 979 894 979 l 983 979 z "},"đ":{"ha":857,"x_min":39,"x_max":876,"o":"m 876 876 l 876 760 l 361 760 l 361 876 l 876 876 m 303 714 q 451 690 382 714 q 563 608 519 667 l 542 494 q 488 513 514 503 q 419 524 463 524 q 373 513 390 524 q 347 468 356 503 q 339 358 339 433 q 347 265 339 294 q 372 226 354 235 q 415 217 389 217 q 467 222 446 217 q 503 235 488 226 q 538 253 519 243 l 556 133 q 465 26 528 69 q 290 -17 401 -17 q 97 81 154 -17 q 39 356 39 179 q 69 576 39 499 q 158 683 99 653 q 303 714 217 714 m 801 972 l 801 0 l 569 0 l 542 133 l 510 156 l 510 592 l 518 608 q 513 705 515 653 q 510 807 510 757 l 510 972 l 801 972 z "},"ð":{"ha":839,"x_min":38,"x_max":800,"o":"m 203 969 q 425 954 328 978 q 593 880 522 931 q 710 756 664 829 q 778 594 756 683 q 800 404 800 506 q 777 202 800 283 q 706 72 754 121 q 585 2 658 24 q 413 -19 513 -19 q 128 58 219 -19 q 38 297 38 135 q 68 485 38 411 q 167 594 99 558 q 350 629 236 629 q 435 623 386 629 q 530 594 485 617 q 599 522 575 571 l 588 406 q 517 424 561 417 q 419 432 472 432 q 377 425 394 432 q 351 391 360 418 q 343 303 343 364 q 357 205 343 229 q 415 181 371 181 q 467 197 450 181 q 489 262 483 214 q 494 403 494 310 q 488 557 494 490 q 465 671 482 624 q 413 746 447 718 q 321 785 378 774 q 179 789 264 796 l 203 969 m 600 1019 l 674 935 l 339 643 l 264 728 l 600 1019 z "},"è":{"ha":819,"x_min":35,"x_max":792,"o":"m 429 714 q 707 651 625 714 q 790 467 789 589 q 733 326 792 369 q 521 283 674 283 l 147 283 l 147 421 l 439 421 q 499 430 486 421 q 511 474 511 439 q 494 517 511 507 q 438 526 478 526 q 376 518 397 528 q 348 476 356 508 q 340 374 340 443 q 349 274 340 310 q 385 222 358 238 q 463 207 411 207 q 580 210 504 207 q 744 222 656 213 l 771 47 q 667 8 722 22 q 552 -11 611 -6 q 431 -17 493 -17 q 199 24 286 -17 q 73 144 111 64 q 35 342 35 224 q 74 560 35 479 q 199 678 113 642 q 429 714 286 714 m 249 1108 l 572 900 l 493 781 l 139 924 l 249 1108 z "},"é":{"ha":819,"x_min":35,"x_max":792,"o":"m 429 714 q 707 651 625 714 q 790 467 789 589 q 733 326 792 369 q 521 283 674 283 l 147 283 l 147 421 l 439 421 q 499 430 486 421 q 511 474 511 439 q 494 517 511 507 q 438 526 478 526 q 376 518 397 528 q 348 476 356 508 q 340 374 340 443 q 349 274 340 310 q 385 222 358 238 q 463 207 411 207 q 580 210 504 207 q 744 222 656 213 l 771 47 q 667 8 722 22 q 552 -11 611 -6 q 431 -17 493 -17 q 199 24 286 -17 q 73 144 111 64 q 35 342 35 224 q 74 560 35 479 q 199 678 113 642 q 429 714 286 714 m 615 1081 l 725 896 l 371 753 l 292 872 l 615 1081 z "},"ê":{"ha":819,"x_min":35,"x_max":792,"o":"m 429 714 q 707 651 625 714 q 790 467 789 589 q 733 326 792 369 q 521 283 674 283 l 147 283 l 147 421 l 439 421 q 499 430 486 421 q 511 474 511 439 q 494 517 511 507 q 438 526 478 526 q 376 518 397 528 q 348 476 356 508 q 340 374 340 443 q 349 274 340 310 q 385 222 358 238 q 463 207 411 207 q 580 210 504 207 q 744 222 656 213 l 771 47 q 667 8 722 22 q 552 -11 611 -6 q 431 -17 493 -17 q 199 24 286 -17 q 73 144 111 64 q 35 342 35 224 q 74 560 35 479 q 199 678 113 642 q 429 714 286 714 m 540 1044 l 728 849 l 661 753 l 440 882 l 429 882 l 204 753 l 135 860 l 329 1044 l 540 1044 z "},"ë":{"ha":819,"x_min":35,"x_max":792,"o":"m 429 714 q 707 651 625 714 q 790 467 789 589 q 733 326 792 369 q 521 283 674 283 l 147 283 l 147 421 l 439 421 q 499 430 486 421 q 511 474 511 439 q 494 517 511 507 q 438 526 478 526 q 376 518 397 528 q 348 476 356 508 q 340 374 340 443 q 349 274 340 310 q 385 222 358 238 q 463 207 411 207 q 580 210 504 207 q 744 222 656 213 l 771 47 q 667 8 722 22 q 552 -11 611 -6 q 431 -17 493 -17 q 199 24 286 -17 q 73 144 111 64 q 35 342 35 224 q 74 560 35 479 q 199 678 113 642 q 429 714 286 714 m 610 1008 q 664 954 664 1008 l 664 867 q 610 813 664 813 l 514 813 q 460 867 460 813 l 460 954 q 514 1008 460 1008 l 610 1008 m 347 1008 q 401 954 401 1008 l 401 867 q 347 813 401 813 l 251 813 q 197 867 197 813 l 197 954 q 251 1008 197 1008 l 347 1008 z "},"ē":{"ha":819,"x_min":35,"x_max":792,"o":"m 429 714 q 707 651 625 714 q 790 467 789 589 q 733 326 792 369 q 521 283 674 283 l 147 283 l 147 421 l 439 421 q 499 430 486 421 q 511 474 511 439 q 494 517 511 507 q 438 526 478 526 q 376 518 397 528 q 348 476 356 508 q 340 374 340 443 q 349 274 340 310 q 385 222 358 238 q 463 207 411 207 q 580 210 504 207 q 744 222 656 213 l 771 47 q 667 8 722 22 q 552 -11 611 -6 q 431 -17 493 -17 q 199 24 286 -17 q 73 144 111 64 q 35 342 35 224 q 74 560 35 479 q 199 678 113 642 q 429 714 286 714 m 657 996 l 657 825 l 213 825 l 213 996 l 657 996 z "},"ĕ":{"ha":819,"x_min":35,"x_max":792,"o":"m 429 714 q 707 651 625 714 q 790 467 789 589 q 733 326 792 369 q 521 283 674 283 l 147 283 l 147 421 l 439 421 q 499 430 486 421 q 511 474 511 439 q 494 517 511 507 q 438 526 478 526 q 376 518 397 528 q 348 476 356 508 q 340 374 340 443 q 349 274 340 310 q 385 222 358 238 q 463 207 411 207 q 580 210 504 207 q 744 222 656 213 l 771 47 q 667 8 722 22 q 552 -11 611 -6 q 431 -17 493 -17 q 199 24 286 -17 q 73 144 111 64 q 35 342 35 224 q 74 560 35 479 q 199 678 113 642 q 429 714 286 714 m 546 1033 l 681 1015 q 665 899 692 954 q 578 810 638 844 q 433 776 519 776 q 289 810 349 776 q 201 899 229 844 q 185 1015 174 954 l 319 1033 q 345 971 319 990 q 433 951 371 951 q 520 971 494 951 q 546 1033 546 990 z "},"ė":{"ha":819,"x_min":35,"x_max":792,"o":"m 429 714 q 707 651 625 714 q 790 467 789 589 q 733 326 792 369 q 521 283 674 283 l 147 283 l 147 421 l 439 421 q 499 430 486 421 q 511 474 511 439 q 494 517 511 507 q 438 526 478 526 q 376 518 397 528 q 348 476 356 508 q 340 374 340 443 q 349 274 340 310 q 385 222 358 238 q 463 207 411 207 q 580 210 504 207 q 744 222 656 213 l 771 47 q 667 8 722 22 q 552 -11 611 -6 q 431 -17 493 -17 q 199 24 286 -17 q 73 144 111 64 q 35 342 35 224 q 74 560 35 479 q 199 678 113 642 q 429 714 286 714 m 478 1021 q 560 942 560 1021 l 560 876 q 478 797 560 797 l 390 797 q 308 876 308 797 l 308 942 q 390 1021 308 1021 l 478 1021 z "},"ę":{"ha":819,"x_min":35,"x_max":792,"o":"m 429 714 q 707 651 625 714 q 790 467 789 589 q 733 326 792 369 q 521 283 674 283 l 147 283 l 147 421 l 439 421 q 499 430 486 421 q 511 474 511 439 q 494 517 511 507 q 438 526 478 526 q 376 518 397 528 q 348 476 356 508 q 340 374 340 443 q 349 274 340 310 q 385 222 358 238 q 463 207 411 207 q 580 210 504 207 q 744 222 656 213 l 771 47 q 667 8 722 22 q 552 -11 611 -6 q 431 -17 493 -17 q 199 24 286 -17 q 73 144 111 64 q 35 342 35 224 q 74 560 35 479 q 199 678 113 642 q 429 714 286 714 m 660 50 l 771 47 q 738 -11 754 17 q 706 -74 722 -39 q 710 -118 688 -111 q 772 -119 733 -125 l 789 -219 q 646 -251 704 -251 q 554 -229 588 -251 q 511 -172 521 -207 q 514 -99 501 -136 q 560 -26 525 -65 q 660 50 596 13 z "},"ě":{"ha":819,"x_min":35,"x_max":792,"o":"m 429 714 q 707 651 625 714 q 790 467 789 589 q 733 326 792 369 q 521 283 674 283 l 147 283 l 147 421 l 439 421 q 499 430 486 421 q 511 474 511 439 q 494 517 511 507 q 438 526 478 526 q 376 518 397 528 q 348 476 356 508 q 340 374 340 443 q 349 274 340 310 q 385 222 358 238 q 463 207 411 207 q 580 210 504 207 q 744 222 656 213 l 771 47 q 667 8 722 22 q 552 -11 611 -6 q 431 -17 493 -17 q 199 24 286 -17 q 73 144 111 64 q 35 342 35 224 q 74 560 35 479 q 199 678 113 642 q 429 714 286 714 m 650 1064 l 717 957 l 490 775 l 376 775 l 149 957 l 218 1064 l 428 958 l 439 958 l 650 1064 z "},"ĝ":{"ha":839,"x_min":10,"x_max":835,"o":"m 400 714 q 608 692 531 714 q 721 623 686 671 q 756 494 756 575 q 722 366 756 414 q 609 297 688 318 q 399 275 531 275 q 189 297 268 275 q 75 366 110 318 q 40 494 40 414 q 76 623 40 575 q 190 692 111 671 q 400 714 269 714 m 399 554 q 329 542 347 554 q 311 494 311 531 q 329 446 311 458 q 399 433 347 433 q 467 446 450 433 q 485 494 485 458 q 467 542 485 531 q 399 554 450 554 m 835 694 l 821 588 l 626 554 l 575 694 l 835 694 m 178 314 l 313 290 q 290 270 297 288 q 293 236 283 253 q 335 217 303 219 l 588 200 q 758 138 707 192 q 810 -18 810 85 q 768 -167 810 -117 q 638 -234 726 -217 q 408 -251 550 -251 q 206 -240 283 -251 q 85 -206 128 -229 q 26 -146 42 -183 q 10 -54 10 -108 q 27 22 10 -11 q 90 80 44 54 q 221 125 136 106 l 340 151 l 435 115 l 390 92 q 325 48 349 63 q 292 23 301 33 q 282 -10 282 13 q 292 -37 282 -28 q 330 -51 303 -47 q 404 -54 357 -54 q 486 -51 457 -54 q 526 -40 515 -49 q 538 -17 538 -32 q 526 9 538 1 q 491 20 515 17 q 429 26 467 24 l 240 40 q 142 72 178 46 q 92 134 106 97 q 85 208 79 171 q 116 275 92 246 q 178 314 140 304 m 513 1031 l 700 835 l 633 739 l 413 868 l 401 868 l 176 739 l 107 846 l 301 1031 l 513 1031 z "},"ğ":{"ha":839,"x_min":10,"x_max":835,"o":"m 400 714 q 608 692 531 714 q 721 623 686 671 q 756 494 756 575 q 722 366 756 414 q 609 297 688 318 q 399 275 531 275 q 189 297 268 275 q 75 366 110 318 q 40 494 40 414 q 76 623 40 575 q 190 692 111 671 q 400 714 269 714 m 399 554 q 329 542 347 554 q 311 494 311 531 q 329 446 311 458 q 399 433 347 433 q 467 446 450 433 q 485 494 485 458 q 467 542 485 531 q 399 554 450 554 m 835 694 l 821 588 l 626 554 l 575 694 l 835 694 m 178 314 l 313 290 q 290 270 297 288 q 293 236 283 253 q 335 217 303 219 l 588 200 q 758 138 707 192 q 810 -18 810 85 q 768 -167 810 -117 q 638 -234 726 -217 q 408 -251 550 -251 q 206 -240 283 -251 q 85 -206 128 -229 q 26 -146 42 -183 q 10 -54 10 -108 q 27 22 10 -11 q 90 80 44 54 q 221 125 136 106 l 340 151 l 435 115 l 390 92 q 325 48 349 63 q 292 23 301 33 q 282 -10 282 13 q 292 -37 282 -28 q 330 -51 303 -47 q 404 -54 357 -54 q 486 -51 457 -54 q 526 -40 515 -49 q 538 -17 538 -32 q 526 9 538 1 q 491 20 515 17 q 429 26 467 24 l 240 40 q 142 72 178 46 q 92 134 106 97 q 85 208 79 171 q 116 275 92 246 q 178 314 140 304 m 518 1019 l 653 1001 q 637 885 664 940 q 551 797 610 831 q 406 763 492 763 q 261 797 321 763 q 174 885 201 831 q 157 1001 146 940 l 292 1019 q 317 957 292 976 q 406 938 343 938 q 492 957 467 938 q 518 1019 518 976 z "},"ġ":{"ha":839,"x_min":10,"x_max":835,"o":"m 400 714 q 608 692 531 714 q 721 623 686 671 q 756 494 756 575 q 722 366 756 414 q 609 297 688 318 q 399 275 531 275 q 189 297 268 275 q 75 366 110 318 q 40 494 40 414 q 76 623 40 575 q 190 692 111 671 q 400 714 269 714 m 399 554 q 329 542 347 554 q 311 494 311 531 q 329 446 311 458 q 399 433 347 433 q 467 446 450 433 q 485 494 485 458 q 467 542 485 531 q 399 554 450 554 m 835 694 l 821 588 l 626 554 l 575 694 l 835 694 m 178 314 l 313 290 q 290 270 297 288 q 293 236 283 253 q 335 217 303 219 l 588 200 q 758 138 707 192 q 810 -18 810 85 q 768 -167 810 -117 q 638 -234 726 -217 q 408 -251 550 -251 q 206 -240 283 -251 q 85 -206 128 -229 q 26 -146 42 -183 q 10 -54 10 -108 q 27 22 10 -11 q 90 80 44 54 q 221 125 136 106 l 340 151 l 435 115 l 390 92 q 325 48 349 63 q 292 23 301 33 q 282 -10 282 13 q 292 -37 282 -28 q 330 -51 303 -47 q 404 -54 357 -54 q 486 -51 457 -54 q 526 -40 515 -49 q 538 -17 538 -32 q 526 9 538 1 q 491 20 515 17 q 429 26 467 24 l 240 40 q 142 72 178 46 q 92 134 106 97 q 85 208 79 171 q 116 275 92 246 q 178 314 140 304 m 450 1007 q 532 928 532 1007 l 532 863 q 450 783 532 783 l 363 783 q 281 863 281 783 l 281 928 q 363 1007 281 1007 l 450 1007 z "},"ģ":{"ha":839,"x_min":10,"x_max":835,"o":"m 394 761 q 325 777 344 761 q 304 836 306 793 l 304 903 q 314 994 304 956 q 343 1063 324 1032 q 389 1124 363 1093 l 488 1097 q 469 1026 474 1063 q 463 954 464 989 q 540 888 538 954 l 536 836 q 517 777 536 793 q 447 761 497 761 l 394 761 m 400 714 q 608 692 531 714 q 721 623 686 671 q 756 494 756 575 q 722 366 756 414 q 609 297 688 318 q 399 275 531 275 q 189 297 268 275 q 75 366 110 318 q 40 494 40 414 q 76 623 40 575 q 190 692 111 671 q 400 714 269 714 m 399 554 q 329 542 347 554 q 311 494 311 531 q 329 446 311 458 q 399 433 347 433 q 467 446 450 433 q 485 494 485 458 q 467 542 485 531 q 399 554 450 554 m 835 694 l 821 588 l 626 554 l 575 694 l 835 694 m 178 314 l 313 290 q 290 270 297 288 q 293 236 283 253 q 335 217 303 219 l 588 200 q 758 138 707 192 q 810 -18 810 85 q 768 -167 810 -117 q 638 -234 726 -217 q 408 -251 550 -251 q 206 -240 283 -251 q 85 -206 128 -229 q 26 -146 42 -183 q 10 -54 10 -108 q 27 22 10 -11 q 90 80 44 54 q 221 125 136 106 l 340 151 l 435 115 l 390 92 q 325 48 349 63 q 292 23 301 33 q 282 -10 282 13 q 292 -37 282 -28 q 330 -51 303 -47 q 404 -54 357 -54 q 486 -51 457 -54 q 526 -40 515 -49 q 538 -17 538 -32 q 526 9 538 1 q 491 20 515 17 q 429 26 467 24 l 240 40 q 142 72 178 46 q 92 134 106 97 q 85 208 79 171 q 116 275 92 246 q 178 314 140 304 z "},"ĥ":{"ha":863,"x_min":-93,"x_max":807,"o":"m 601 714 q 807 519 807 714 l 807 0 l 515 0 l 515 426 q 504 459 515 450 q 465 468 493 468 q 406 464 439 468 q 321 442 374 460 l 290 568 q 445 678 364 642 q 601 714 526 714 m 351 972 l 353 765 q 344 645 353 703 q 324 553 335 588 l 351 536 l 351 0 l 60 0 l 60 972 l 351 972 m 313 1264 l 500 1068 l 433 972 l 213 1101 l 201 1101 l -24 972 l -93 1079 l 101 1264 l 313 1264 z "},"ħ":{"ha":867,"x_min":-12,"x_max":811,"o":"m 503 876 l 503 760 l -12 760 l -12 876 l 503 876 m 606 714 q 811 519 811 714 l 811 0 l 519 0 l 519 426 q 508 459 519 450 q 469 468 497 468 q 410 464 443 468 q 325 442 378 460 l 294 568 q 449 678 368 642 q 606 714 531 714 m 356 972 l 357 765 q 348 645 357 703 q 328 553 339 588 l 356 536 l 356 0 l 64 0 l 64 972 l 356 972 z "},"ì":{"ha":424,"x_min":-86,"x_max":358,"o":"m 358 694 l 358 0 l 65 0 l 65 694 l 358 694 m 24 1108 l 347 900 l 268 781 l -86 924 l 24 1108 z "},"í":{"ha":424,"x_min":65,"x_max":500,"o":"m 358 694 l 358 0 l 65 0 l 65 694 l 358 694 m 390 1081 l 500 896 l 146 753 l 67 872 l 390 1081 z "},"î":{"ha":424,"x_min":-90,"x_max":503,"o":"m 358 694 l 358 0 l 65 0 l 65 694 l 358 694 m 315 1044 l 503 849 l 436 753 l 215 882 l 204 882 l -21 753 l -90 860 l 104 1044 l 315 1044 z "},"ĩ":{"ha":424,"x_min":-72,"x_max":479,"o":"m 358 694 l 358 0 l 65 0 l 65 694 l 358 694 m 61 1031 q 128 1021 97 1028 q 187 1004 158 1014 q 242 985 215 994 q 296 971 269 976 q 332 978 328 965 q 336 1024 336 990 l 457 1024 q 442 846 479 907 q 339 789 404 785 q 249 805 292 793 q 171 830 207 817 q 103 849 135 843 q 68 842 72 854 q 64 796 64 829 l -57 796 q -57 932 -72 879 q -8 1009 -42 985 q 61 1031 25 1033 z "},"ï":{"ha":424,"x_min":-28,"x_max":439,"o":"m 358 694 l 358 0 l 65 0 l 65 694 l 358 694 m 385 1008 q 439 954 439 1008 l 439 867 q 385 813 439 813 l 289 813 q 235 867 235 813 l 235 954 q 289 1008 235 1008 l 385 1008 m 122 1008 q 176 954 176 1008 l 176 867 q 122 813 176 813 l 26 813 q -28 867 -28 813 l -28 954 q 26 1008 -28 1008 l 122 1008 z "},"ī":{"ha":424,"x_min":-12,"x_max":432,"o":"m 358 694 l 358 0 l 65 0 l 65 694 l 358 694 m 432 996 l 432 825 l -12 825 l -12 996 l 432 996 z "},"ĭ":{"ha":424,"x_min":-51,"x_max":467,"o":"m 358 694 l 358 0 l 65 0 l 65 694 l 358 694 m 321 1033 l 456 1015 q 440 899 467 954 q 353 810 413 844 q 208 776 294 776 q 64 810 124 776 q -24 899 4 844 q -40 1015 -51 954 l 94 1033 q 120 971 94 990 q 208 951 146 951 q 295 971 269 951 q 321 1033 321 990 z "},"į":{"ha":424,"x_min":61,"x_max":358,"o":"m 358 694 l 358 0 l 65 0 l 65 694 l 358 694 m 253 1021 q 335 942 335 1021 l 335 876 q 253 797 335 797 l 165 797 q 83 876 83 797 l 83 942 q 165 1021 83 1021 l 253 1021 m 219 3 l 331 0 q 298 -58 314 -31 q 265 -121 282 -86 q 270 -165 247 -158 q 332 -167 293 -172 l 349 -267 q 206 -299 264 -299 q 114 -276 147 -299 q 71 -219 81 -254 q 74 -146 61 -183 q 120 -74 85 -112 q 219 3 156 -35 z "},"ĳ":{"ha":843,"x_min":64,"x_max":778,"o":"m 356 694 l 356 0 l 65 0 l 65 694 l 356 694 m 272 1013 q 357 926 357 1013 l 357 856 q 272 769 357 769 l 149 769 q 64 856 64 769 l 64 926 q 149 1013 64 1013 l 272 1013 m 778 694 l 778 81 q 751 -60 778 8 q 674 -181 724 -128 q 553 -264 624 -235 l 392 -136 q 467 -30 447 -81 q 488 81 488 21 l 488 694 l 778 694 m 690 1026 q 775 940 775 1026 l 775 869 q 690 783 775 783 l 567 783 q 482 869 482 783 l 482 940 q 567 1026 482 1026 l 690 1026 z "},"ĵ":{"ha":422,"x_min":-89,"x_max":504,"o":"m 357 694 l 357 81 q 330 -60 357 8 q 253 -181 303 -128 q 132 -264 203 -235 l -29 -136 q 47 -30 26 -81 q 67 81 67 21 l 67 694 l 357 694 m 317 1044 l 504 849 l 438 753 l 217 882 l 206 882 l -19 753 l -89 860 l 106 1044 l 317 1044 z "},"ķ":{"ha":846,"x_min":60,"x_max":858,"o":"m 451 -53 q 521 -69 501 -53 q 542 -128 540 -85 l 542 -194 q 532 -285 542 -247 q 503 -354 522 -324 q 457 -415 483 -385 l 358 -389 q 377 -317 372 -354 q 383 -246 382 -281 q 306 -179 308 -246 l 310 -128 q 329 -69 310 -85 q 399 -53 349 -53 l 451 -53 m 832 694 l 686 467 q 646 416 671 439 q 606 383 621 393 l 606 378 q 646 342 621 369 q 686 285 671 314 l 858 0 l 538 0 l 335 385 l 513 694 l 832 694 m 351 972 l 351 600 q 344 492 351 547 q 322 388 338 436 q 342 291 333 343 q 351 199 351 239 l 351 0 l 60 0 l 60 972 l 351 972 m 428 464 l 428 300 l 265 300 l 265 464 l 428 464 z "},"ĺ":{"ha":497,"x_min":61,"x_max":500,"o":"m 351 972 l 351 253 q 369 215 351 226 q 421 203 386 203 l 468 203 l 500 17 q 441 -3 479 4 q 363 -15 403 -11 q 296 -19 324 -19 q 124 32 186 -19 q 61 175 61 83 l 61 972 l 351 972 m 389 1325 l 499 1140 l 144 997 l 65 1117 l 389 1325 z "},"ļ":{"ha":497,"x_min":61,"x_max":500,"o":"m 292 -67 q 361 -83 342 -67 q 382 -142 381 -99 l 382 -208 q 372 -299 382 -261 q 343 -368 363 -337 q 297 -429 324 -399 l 199 -403 q 217 -331 213 -368 q 224 -260 222 -294 q 146 -193 149 -260 l 150 -142 q 169 -83 150 -99 q 239 -67 189 -67 l 292 -67 m 351 972 l 351 253 q 369 215 351 226 q 421 203 386 203 l 468 203 l 500 17 q 441 -3 479 4 q 363 -15 403 -11 q 296 -19 324 -19 q 124 32 186 -19 q 61 175 61 83 l 61 972 l 351 972 z "},"ľ":{"ha":497,"x_min":61,"x_max":613,"o":"m 351 972 l 351 253 q 369 215 351 226 q 421 203 386 203 l 468 203 l 500 17 q 441 -3 479 4 q 363 -15 403 -11 q 296 -19 324 -19 q 124 32 186 -19 q 61 175 61 83 l 61 972 l 351 972 m 535 978 q 595 960 578 978 q 613 894 613 943 l 613 821 q 594 682 613 735 q 540 579 575 629 l 454 608 q 470 687 467 647 q 475 765 474 726 q 408 839 404 765 l 411 894 q 430 960 414 943 q 489 978 446 978 l 535 978 z "},"ŀ":{"ha":664,"x_min":61,"x_max":661,"o":"m 492 432 q 410 511 410 432 l 410 576 q 492 656 410 656 l 579 656 q 661 576 661 656 l 661 511 q 579 432 661 432 l 492 432 m 351 972 l 351 253 q 369 215 351 226 q 421 203 386 203 l 468 203 l 500 17 q 441 -3 479 4 q 363 -15 403 -11 q 296 -19 324 -19 q 124 32 186 -19 q 61 175 61 83 l 61 972 l 351 972 z "},"ł":{"ha":542,"x_min":6,"x_max":540,"o":"m 507 699 l 507 554 l 6 360 l 6 504 l 507 699 m 392 972 l 392 253 q 409 215 392 226 q 461 203 426 203 l 508 203 l 540 17 q 481 -3 519 4 q 403 -15 443 -11 q 336 -19 364 -19 q 164 32 226 -19 q 101 175 101 83 l 101 972 l 392 972 z "},"ñ":{"ha":863,"x_min":60,"x_max":807,"o":"m 601 714 q 807 519 807 714 l 807 0 l 515 0 l 515 426 q 504 459 515 450 q 465 468 493 468 q 406 464 439 468 q 321 442 374 460 l 307 585 q 453 682 376 650 q 601 714 529 714 m 289 694 l 325 553 l 351 536 l 351 0 l 60 0 l 60 694 l 289 694 m 286 1031 q 353 1021 322 1028 q 412 1004 383 1014 q 467 985 440 994 q 521 971 494 976 q 557 978 553 965 q 561 1024 561 990 l 682 1024 q 667 846 704 907 q 564 789 629 785 q 474 805 517 793 q 396 830 432 817 q 328 849 360 843 q 293 842 297 854 q 289 796 289 829 l 168 796 q 168 932 153 879 q 217 1009 183 985 q 286 1031 250 1033 z "},"ń":{"ha":863,"x_min":60,"x_max":807,"o":"m 601 714 q 807 519 807 714 l 807 0 l 515 0 l 515 426 q 504 459 515 450 q 465 468 493 468 q 406 464 439 468 q 321 442 374 460 l 307 585 q 453 682 376 650 q 601 714 529 714 m 289 694 l 325 553 l 351 536 l 351 0 l 60 0 l 60 694 l 289 694 m 615 1081 l 725 896 l 371 753 l 292 872 l 615 1081 z "},"ņ":{"ha":863,"x_min":60,"x_max":807,"o":"m 442 -53 q 511 -69 492 -53 q 532 -128 531 -85 l 532 -194 q 522 -285 532 -247 q 493 -354 513 -324 q 447 -415 474 -385 l 349 -389 q 367 -317 363 -354 q 374 -246 372 -281 q 296 -179 299 -246 l 300 -128 q 319 -69 300 -85 q 389 -53 339 -53 l 442 -53 m 601 714 q 807 519 807 714 l 807 0 l 515 0 l 515 426 q 504 459 515 450 q 465 468 493 468 q 406 464 439 468 q 321 442 374 460 l 307 585 q 453 682 376 650 q 601 714 529 714 m 289 694 l 325 553 l 351 536 l 351 0 l 60 0 l 60 694 l 289 694 z "},"ň":{"ha":863,"x_min":60,"x_max":807,"o":"m 601 714 q 807 519 807 714 l 807 0 l 515 0 l 515 426 q 504 459 515 450 q 465 468 493 468 q 406 464 439 468 q 321 442 374 460 l 307 585 q 453 682 376 650 q 601 714 529 714 m 289 694 l 325 553 l 351 536 l 351 0 l 60 0 l 60 694 l 289 694 m 650 1064 l 717 957 l 490 775 l 376 775 l 149 957 l 218 1064 l 428 958 l 439 958 l 650 1064 z "},"ŋ":{"ha":863,"x_min":60,"x_max":807,"o":"m 601 714 q 807 519 807 714 l 807 -33 q 750 -208 807 -146 q 589 -271 693 -271 q 519 -267 561 -271 q 439 -255 478 -262 q 376 -235 400 -247 l 408 -46 l 458 -46 q 515 -8 515 -46 l 515 426 q 504 459 515 450 q 465 468 493 468 q 416 466 443 468 q 351 453 389 464 l 351 0 l 60 0 l 60 694 l 288 694 l 314 593 q 458 684 383 654 q 601 714 533 714 z "},"ò":{"ha":849,"x_min":36,"x_max":813,"o":"m 425 714 q 652 678 567 714 q 775 563 738 643 q 813 346 813 482 q 775 133 813 213 q 652 19 738 54 q 425 -17 567 -17 q 198 19 283 -17 q 74 133 113 54 q 36 346 36 213 q 74 563 36 482 q 198 678 113 643 q 425 714 283 714 m 425 517 q 374 503 392 517 q 349 454 356 490 q 342 346 342 418 q 349 241 342 276 q 374 193 356 206 q 425 181 392 181 q 476 193 458 181 q 501 241 494 206 q 507 346 507 276 q 501 454 507 418 q 476 503 494 490 q 425 517 458 517 m 240 1094 l 564 886 l 485 767 l 131 910 l 240 1094 z "},"ó":{"ha":849,"x_min":36,"x_max":813,"o":"m 425 714 q 652 678 567 714 q 775 563 738 643 q 813 346 813 482 q 775 133 813 213 q 652 19 738 54 q 425 -17 567 -17 q 198 19 283 -17 q 74 133 113 54 q 36 346 36 213 q 74 563 36 482 q 198 678 113 643 q 425 714 283 714 m 425 517 q 374 503 392 517 q 349 454 356 490 q 342 346 342 418 q 349 241 342 276 q 374 193 356 206 q 425 181 392 181 q 476 193 458 181 q 501 241 494 206 q 507 346 507 276 q 501 454 507 418 q 476 503 494 490 q 425 517 458 517 m 607 1067 l 717 882 l 363 739 l 283 858 l 607 1067 z "},"ô":{"ha":849,"x_min":36,"x_max":813,"o":"m 425 714 q 652 678 567 714 q 775 563 738 643 q 813 346 813 482 q 775 133 813 213 q 652 19 738 54 q 425 -17 567 -17 q 198 19 283 -17 q 74 133 113 54 q 36 346 36 213 q 74 563 36 482 q 198 678 113 643 q 425 714 283 714 m 425 517 q 374 503 392 517 q 349 454 356 490 q 342 346 342 418 q 349 241 342 276 q 374 193 356 206 q 425 181 392 181 q 476 193 458 181 q 501 241 494 206 q 507 346 507 276 q 501 454 507 418 q 476 503 494 490 q 425 517 458 517 m 532 1031 l 719 835 l 653 739 l 432 868 l 421 868 l 196 739 l 126 846 l 321 1031 l 532 1031 z "},"õ":{"ha":849,"x_min":36,"x_max":813,"o":"m 425 714 q 652 678 567 714 q 775 563 738 643 q 813 346 813 482 q 775 133 813 213 q 652 19 738 54 q 425 -17 567 -17 q 198 19 283 -17 q 74 133 113 54 q 36 346 36 213 q 74 563 36 482 q 198 678 113 643 q 425 714 283 714 m 425 517 q 374 503 392 517 q 349 454 356 490 q 342 346 342 418 q 349 241 342 276 q 374 193 356 206 q 425 181 392 181 q 476 193 458 181 q 501 241 494 206 q 507 346 507 276 q 501 454 507 418 q 476 503 494 490 q 425 517 458 517 m 278 1017 q 344 1007 314 1014 q 403 990 375 1000 q 459 972 432 981 q 513 957 486 963 q 549 964 544 951 q 553 1010 553 976 l 674 1010 q 658 832 696 893 q 556 775 621 771 q 466 791 508 779 q 388 816 424 803 q 319 835 351 829 q 285 828 289 840 q 281 782 281 815 l 160 782 q 160 918 144 865 q 208 995 175 971 q 278 1017 242 1019 z "},"ö":{"ha":849,"x_min":36,"x_max":813,"o":"m 425 714 q 652 678 567 714 q 775 563 738 643 q 813 346 813 482 q 775 133 813 213 q 652 19 738 54 q 425 -17 567 -17 q 198 19 283 -17 q 74 133 113 54 q 36 346 36 213 q 74 563 36 482 q 198 678 113 643 q 425 714 283 714 m 425 517 q 374 503 392 517 q 349 454 356 490 q 342 346 342 418 q 349 241 342 276 q 374 193 356 206 q 425 181 392 181 q 476 193 458 181 q 501 241 494 206 q 507 346 507 276 q 501 454 507 418 q 476 503 494 490 q 425 517 458 517 m 601 994 q 656 940 656 994 l 656 853 q 601 799 656 799 l 506 799 q 451 853 451 799 l 451 940 q 506 994 451 994 l 601 994 m 339 994 q 393 940 393 994 l 393 853 q 339 799 393 799 l 243 799 q 189 853 189 799 l 189 940 q 243 994 189 994 l 339 994 z "},"ō":{"ha":849,"x_min":36,"x_max":813,"o":"m 425 714 q 652 678 567 714 q 775 563 738 643 q 813 346 813 482 q 775 133 813 213 q 652 19 738 54 q 425 -17 567 -17 q 198 19 283 -17 q 74 133 113 54 q 36 346 36 213 q 74 563 36 482 q 198 678 113 643 q 425 714 283 714 m 425 517 q 374 503 392 517 q 349 454 356 490 q 342 346 342 418 q 349 241 342 276 q 374 193 356 206 q 425 181 392 181 q 476 193 458 181 q 501 241 494 206 q 507 346 507 276 q 501 454 507 418 q 476 503 494 490 q 425 517 458 517 m 649 982 l 649 811 l 204 811 l 204 982 l 649 982 z "},"ŏ":{"ha":849,"x_min":36,"x_max":813,"o":"m 425 714 q 652 678 567 714 q 775 563 738 643 q 813 346 813 482 q 775 133 813 213 q 652 19 738 54 q 425 -17 567 -17 q 198 19 283 -17 q 74 133 113 54 q 36 346 36 213 q 74 563 36 482 q 198 678 113 643 q 425 714 283 714 m 425 517 q 374 503 392 517 q 349 454 356 490 q 342 346 342 418 q 349 241 342 276 q 374 193 356 206 q 425 181 392 181 q 476 193 458 181 q 501 241 494 206 q 507 346 507 276 q 501 454 507 418 q 476 503 494 490 q 425 517 458 517 m 538 1019 l 672 1001 q 656 885 683 940 q 570 797 629 831 q 425 763 511 763 q 281 797 340 763 q 193 885 221 831 q 176 1001 165 940 l 311 1019 q 337 957 311 976 q 425 938 363 938 q 512 957 486 938 q 538 1019 538 976 z "},"ő":{"ha":849,"x_min":36,"x_max":813,"o":"m 425 714 q 652 678 567 714 q 775 563 738 643 q 813 346 813 482 q 775 133 813 213 q 652 19 738 54 q 425 -17 567 -17 q 198 19 283 -17 q 74 133 113 54 q 36 346 36 213 q 74 563 36 482 q 198 678 113 643 q 425 714 283 714 m 425 517 q 374 503 392 517 q 349 454 356 490 q 342 346 342 418 q 349 241 342 276 q 374 193 356 206 q 425 181 392 181 q 476 193 458 181 q 501 241 494 206 q 507 346 507 276 q 501 454 507 418 q 476 503 494 490 q 425 517 458 517 m 314 1083 l 493 967 l 258 722 l 143 815 l 314 1083 m 613 1083 l 792 967 l 556 722 l 442 814 l 613 1083 z "},"ø":{"ha":849,"x_min":36,"x_max":813,"o":"m 607 829 l 671 799 l 240 -129 l 176 -99 l 607 829 m 425 714 q 652 678 567 714 q 775 563 738 643 q 813 346 813 482 q 775 133 813 213 q 652 19 738 54 q 425 -17 567 -17 q 198 19 283 -17 q 74 133 113 54 q 36 346 36 213 q 74 563 36 482 q 198 678 113 643 q 425 714 283 714 m 425 517 q 374 503 392 517 q 349 454 356 490 q 342 346 342 418 q 349 241 342 276 q 374 193 356 206 q 425 181 392 181 q 476 193 458 181 q 501 241 494 206 q 507 346 507 276 q 501 454 507 418 q 476 503 494 490 q 425 517 458 517 z "},"œ":{"ha":1263,"x_min":36,"x_max":1235,"o":"m 418 -17 q 194 19 278 -17 q 73 133 110 54 q 36 346 36 213 q 73 563 36 482 q 194 678 110 643 q 418 714 278 714 q 636 678 554 714 q 755 563 718 643 q 792 346 792 482 q 755 133 792 213 q 636 19 718 54 q 418 -17 554 -17 m 418 181 q 471 193 453 181 q 495 241 489 206 q 501 346 501 276 q 495 454 501 418 q 472 503 489 490 q 422 517 456 517 q 372 503 389 517 q 349 454 354 490 q 343 346 343 418 q 349 241 343 276 q 371 193 354 206 q 418 181 388 181 m 881 -19 q 659 21 743 -19 q 538 141 575 61 q 500 339 500 221 q 538 558 500 476 q 658 675 575 639 q 879 711 742 711 q 1152 649 1072 711 q 1233 464 1232 586 q 1210 359 1235 400 q 1126 299 1185 318 q 963 281 1067 281 l 606 281 l 606 418 l 882 418 q 942 427 929 418 q 954 471 954 436 q 938 514 954 504 q 883 524 921 524 q 824 515 844 525 q 797 473 804 506 q 790 371 790 440 q 799 271 790 307 q 833 219 807 235 q 913 204 860 204 q 1025 207 951 204 q 1188 219 1099 210 l 1214 44 q 1112 6 1165 19 q 1001 -14 1058 -8 q 881 -19 943 -19 z "},"ŕ":{"ha":628,"x_min":60,"x_max":625,"o":"m 288 694 l 324 553 l 351 536 l 351 0 l 60 0 l 60 694 l 288 694 m 625 714 l 600 447 l 526 447 q 442 444 489 447 q 321 428 396 440 l 304 585 q 444 682 372 650 q 585 714 517 714 l 625 714 m 503 1081 l 613 896 l 258 753 l 179 872 l 503 1081 z "},"ŗ":{"ha":628,"x_min":60,"x_max":625,"o":"m 215 -53 q 285 -69 265 -53 q 306 -128 304 -85 l 306 -194 q 296 -285 306 -247 q 267 -354 286 -324 q 221 -415 247 -385 l 122 -389 q 141 -317 136 -354 q 147 -246 146 -281 q 69 -179 72 -246 l 74 -128 q 93 -69 74 -85 q 163 -53 113 -53 l 215 -53 m 288 694 l 324 553 l 351 536 l 351 0 l 60 0 l 60 694 l 288 694 m 625 714 l 600 447 l 526 447 q 442 444 489 447 q 321 428 396 440 l 304 585 q 444 682 372 650 q 585 714 517 714 l 625 714 z "},"ř":{"ha":628,"x_min":36,"x_max":625,"o":"m 288 694 l 324 553 l 351 536 l 351 0 l 60 0 l 60 694 l 288 694 m 625 714 l 600 447 l 526 447 q 442 444 489 447 q 321 428 396 440 l 304 585 q 444 682 372 650 q 585 714 517 714 l 625 714 m 538 1064 l 604 957 l 378 775 l 264 775 l 36 957 l 106 1064 l 315 958 l 326 958 l 538 1064 z "},"ś":{"ha":768,"x_min":33,"x_max":740,"o":"m 356 714 q 477 710 411 714 q 606 699 543 706 q 711 683 668 693 l 693 514 q 553 514 624 514 q 419 514 483 514 q 351 513 374 514 q 322 510 329 513 q 315 497 315 507 q 331 482 315 486 q 397 464 347 478 l 557 424 q 695 351 650 397 q 740 214 740 304 q 707 76 740 126 q 599 6 674 26 q 404 -15 525 -15 q 256 -10 354 -15 q 43 14 158 -6 l 61 183 q 119 183 79 183 q 209 183 158 183 q 308 183 260 183 q 407 184 375 183 q 449 190 439 185 q 458 204 458 194 q 440 222 458 217 q 368 242 422 226 l 215 283 q 100 338 139 306 q 47 414 61 371 q 33 511 33 457 q 63 620 33 575 q 163 690 93 665 q 356 714 233 714 m 572 1067 l 682 882 l 328 739 l 249 858 l 572 1067 z "},"ŝ":{"ha":768,"x_min":33,"x_max":740,"o":"m 356 714 q 477 710 411 714 q 606 699 543 706 q 711 683 668 693 l 693 514 q 553 514 624 514 q 419 514 483 514 q 351 513 374 514 q 322 510 329 513 q 315 497 315 507 q 331 482 315 486 q 397 464 347 478 l 557 424 q 695 351 650 397 q 740 214 740 304 q 707 76 740 126 q 599 6 674 26 q 404 -15 525 -15 q 256 -10 354 -15 q 43 14 158 -6 l 61 183 q 119 183 79 183 q 209 183 158 183 q 308 183 260 183 q 407 184 375 183 q 449 190 439 185 q 458 204 458 194 q 440 222 458 217 q 368 242 422 226 l 215 283 q 100 338 139 306 q 47 414 61 371 q 33 511 33 457 q 63 620 33 575 q 163 690 93 665 q 356 714 233 714 m 497 1031 l 685 835 l 618 739 l 397 868 l 386 868 l 161 739 l 92 846 l 286 1031 l 497 1031 z "},"ş":{"ha":768,"x_min":33,"x_max":740,"o":"m 356 714 q 477 710 411 714 q 606 699 543 706 q 711 683 668 693 l 693 514 q 553 514 624 514 q 419 514 483 514 q 351 513 374 514 q 322 510 329 513 q 315 497 315 507 q 331 482 315 486 q 397 464 347 478 l 557 424 q 695 351 650 397 q 740 214 740 304 q 707 76 740 126 q 599 6 674 26 q 404 -15 525 -15 q 256 -10 354 -15 q 43 14 158 -6 l 61 183 q 119 183 79 183 q 209 183 158 183 q 308 183 260 183 q 407 184 375 183 q 449 190 439 185 q 458 204 458 194 q 440 222 458 217 q 368 242 422 226 l 215 283 q 100 338 139 306 q 47 414 61 371 q 33 511 33 457 q 63 620 33 575 q 163 690 93 665 q 356 714 233 714 m 271 -68 q 413 -58 358 -58 q 493 -81 468 -58 q 515 -158 518 -103 q 467 -287 513 -237 q 350 -355 422 -336 q 190 -362 278 -374 l 221 -254 q 302 -243 267 -254 q 342 -183 338 -232 q 327 -168 344 -168 q 244 -168 310 -168 l 271 -68 z "},"š":{"ha":768,"x_min":33,"x_max":740,"o":"m 356 714 q 477 710 411 714 q 606 699 543 706 q 711 683 668 693 l 693 514 q 553 514 624 514 q 419 514 483 514 q 351 513 374 514 q 322 510 329 513 q 315 497 315 507 q 331 482 315 486 q 397 464 347 478 l 557 424 q 695 351 650 397 q 740 214 740 304 q 707 76 740 126 q 599 6 674 26 q 404 -15 525 -15 q 256 -10 354 -15 q 43 14 158 -6 l 61 183 q 119 183 79 183 q 209 183 158 183 q 308 183 260 183 q 407 184 375 183 q 449 190 439 185 q 458 204 458 194 q 440 222 458 217 q 368 242 422 226 l 215 283 q 100 338 139 306 q 47 414 61 371 q 33 511 33 457 q 63 620 33 575 q 163 690 93 665 q 356 714 233 714 m 607 1050 l 674 943 l 447 761 l 333 761 l 106 943 l 175 1050 l 385 944 l 396 944 l 607 1050 z "},"ș":{"ha":768,"x_min":33,"x_max":740,"o":"m 394 -53 q 464 -69 444 -53 q 485 -128 483 -85 l 485 -194 q 475 -285 485 -247 q 446 -354 465 -324 q 400 -415 426 -385 l 301 -389 q 320 -317 315 -354 q 326 -246 325 -281 q 249 -179 251 -246 l 253 -128 q 272 -69 253 -85 q 342 -53 292 -53 l 394 -53 m 356 714 q 477 710 411 714 q 606 699 543 706 q 711 683 668 693 l 693 514 q 553 514 624 514 q 419 514 483 514 q 351 513 374 514 q 322 510 329 513 q 315 497 315 507 q 331 482 315 486 q 397 464 347 478 l 557 424 q 695 351 650 397 q 740 214 740 304 q 707 76 740 126 q 599 6 674 26 q 404 -15 525 -15 q 256 -10 354 -15 q 43 14 158 -6 l 61 183 q 119 183 79 183 q 209 183 158 183 q 308 183 260 183 q 407 184 375 183 q 449 190 439 185 q 458 204 458 194 q 440 222 458 217 q 368 242 422 226 l 215 283 q 100 338 139 306 q 47 414 61 371 q 33 511 33 457 q 63 620 33 575 q 163 690 93 665 q 356 714 233 714 z "},"ß":{"ha":1025,"x_min":11,"x_max":1017,"o":"m 511 1031 q 738 1007 660 1031 q 843 932 815 983 q 871 797 871 881 q 866 748 871 769 q 848 701 861 726 q 807 640 835 676 q 780 603 793 622 q 758 568 767 585 q 749 536 749 551 q 774 492 749 514 q 831 443 800 471 l 903 385 q 971 322 946 347 q 1006 268 996 296 q 1017 196 1017 240 q 992 82 1017 129 q 906 10 968 35 q 731 -15 843 -15 q 615 -11 671 -15 q 479 0 558 -7 l 497 178 q 571 178 533 178 q 660 178 608 178 q 698 178 685 178 q 716 185 711 179 q 721 206 721 192 q 706 238 721 221 q 665 276 690 256 q 611 321 640 296 l 569 349 q 499 422 525 385 q 474 514 474 460 q 484 566 474 544 q 514 611 494 588 q 558 672 533 635 q 596 733 586 713 q 606 778 606 753 q 599 814 606 801 q 572 831 592 826 q 514 836 553 836 q 452 830 474 836 q 424 806 431 824 q 417 751 417 788 l 417 0 l 125 0 l 125 786 q 146 901 125 854 q 212 977 167 949 q 331 1018 257 1006 q 511 1031 406 1031 m 267 694 l 267 519 l 11 519 l 11 688 l 125 694 l 267 694 z "},"ț":{"ha":608,"x_min":14,"x_max":592,"o":"m 360 -67 q 429 -83 410 -67 q 450 -142 449 -99 l 450 -208 q 440 -299 450 -261 q 411 -368 431 -337 q 365 -429 392 -399 l 267 -403 q 285 -331 281 -368 q 292 -260 290 -294 q 214 -193 217 -260 l 218 -142 q 238 -83 218 -99 q 307 -67 257 -67 l 360 -67 m 424 876 l 424 253 q 438 215 424 226 q 483 203 451 203 l 557 203 l 589 17 q 517 -3 560 4 q 430 -15 474 -11 q 353 -19 386 -19 q 192 32 251 -19 q 132 175 132 83 l 131 876 l 424 876 m 592 694 l 592 519 l 14 519 l 14 688 l 147 694 l 592 694 z "},"ť":{"ha":608,"x_min":14,"x_max":653,"o":"m 424 876 l 424 253 q 438 215 424 226 q 483 203 451 203 l 557 203 l 589 17 q 517 -3 560 4 q 430 -15 474 -11 q 353 -19 386 -19 q 192 32 251 -19 q 132 175 132 83 l 131 876 l 424 876 m 592 694 l 592 519 l 14 519 l 14 688 l 147 694 l 592 694 m 575 1136 q 635 1119 618 1136 q 653 1053 653 1101 l 653 979 q 634 840 653 893 q 581 738 615 788 l 494 767 q 510 845 507 806 q 515 924 514 885 q 449 997 444 924 l 451 1053 q 470 1119 454 1101 q 529 1136 486 1136 l 575 1136 z "},"ŧ":{"ha":608,"x_min":14,"x_max":592,"o":"m 538 438 l 538 307 l 54 307 l 54 438 l 538 438 m 424 876 l 424 253 q 438 215 424 226 q 483 203 451 203 l 557 203 l 589 17 q 517 -3 560 4 q 430 -15 474 -11 q 353 -19 386 -19 q 192 32 251 -19 q 132 175 132 83 l 131 876 l 424 876 m 592 694 l 592 519 l 14 519 l 14 688 l 147 694 l 592 694 z "},"ţ":{"ha":608,"x_min":14,"x_max":592,"o":"m 424 876 l 424 253 q 438 215 424 226 q 483 203 451 203 l 557 203 l 589 17 q 517 -3 560 4 q 430 -15 474 -11 q 353 -19 386 -19 q 192 32 251 -19 q 132 175 132 83 l 131 876 l 424 876 m 592 694 l 592 519 l 14 519 l 14 688 l 147 694 l 592 694 m 274 -62 q 416 -53 361 -53 q 496 -75 471 -53 q 518 -153 521 -97 q 470 -281 515 -232 q 353 -349 425 -331 q 193 -357 281 -368 l 224 -249 q 305 -237 269 -249 q 344 -178 340 -226 q 330 -162 347 -162 q 247 -162 313 -162 l 274 -62 z "},"þ":{"ha":861,"x_min":60,"x_max":822,"o":"m 569 711 q 765 614 707 711 q 822 339 822 517 q 792 118 822 196 q 704 10 763 40 q 560 -19 646 -19 q 410 4 481 -19 q 297 86 340 28 l 319 200 q 374 181 347 190 q 442 171 400 171 q 489 181 471 171 q 515 227 507 192 q 522 336 522 263 q 515 447 522 411 q 490 492 507 482 q 446 501 474 501 q 390 494 411 501 q 347 475 368 486 l 304 585 q 396 674 333 636 q 569 711 458 711 m 351 972 l 351 833 q 349 732 353 785 q 343 635 346 679 l 351 618 l 351 103 l 343 86 q 349 -11 346 42 q 351 -112 353 -64 l 351 -250 l 60 -250 l 60 972 l 351 972 z "},"ù":{"ha":854,"x_min":56,"x_max":794,"o":"m 347 694 l 347 268 q 360 235 347 246 q 399 225 372 225 q 456 230 426 225 q 532 253 485 235 l 549 110 q 408 13 478 44 q 261 -19 339 -19 q 56 175 56 -19 l 56 694 l 347 694 m 794 694 l 794 0 l 565 0 l 529 142 l 501 158 l 501 694 l 794 694 m 240 1108 l 564 900 l 485 781 l 131 924 l 240 1108 z "},"ú":{"ha":854,"x_min":56,"x_max":794,"o":"m 347 694 l 347 268 q 360 235 347 246 q 399 225 372 225 q 456 230 426 225 q 532 253 485 235 l 549 110 q 408 13 478 44 q 261 -19 339 -19 q 56 175 56 -19 l 56 694 l 347 694 m 794 694 l 794 0 l 565 0 l 529 142 l 501 158 l 501 694 l 794 694 m 607 1081 l 717 896 l 363 753 l 283 872 l 607 1081 z "},"û":{"ha":854,"x_min":56,"x_max":794,"o":"m 347 694 l 347 268 q 360 235 347 246 q 399 225 372 225 q 456 230 426 225 q 532 253 485 235 l 549 110 q 408 13 478 44 q 261 -19 339 -19 q 56 175 56 -19 l 56 694 l 347 694 m 794 694 l 794 0 l 565 0 l 529 142 l 501 158 l 501 694 l 794 694 m 532 1044 l 719 849 l 653 753 l 432 882 l 421 882 l 196 753 l 126 860 l 321 1044 l 532 1044 z "},"ũ":{"ha":854,"x_min":56,"x_max":794,"o":"m 347 694 l 347 268 q 360 235 347 246 q 399 225 372 225 q 456 230 426 225 q 532 253 485 235 l 549 110 q 408 13 478 44 q 261 -19 339 -19 q 56 175 56 -19 l 56 694 l 347 694 m 794 694 l 794 0 l 565 0 l 529 142 l 501 158 l 501 694 l 794 694 m 278 1031 q 344 1021 314 1028 q 403 1004 375 1014 q 459 985 432 994 q 513 971 486 976 q 549 978 544 965 q 553 1024 553 990 l 674 1024 q 658 846 696 907 q 556 789 621 785 q 466 805 508 793 q 388 830 424 817 q 319 849 351 843 q 285 842 289 854 q 281 796 281 829 l 160 796 q 160 932 144 879 q 208 1009 175 985 q 278 1031 242 1033 z "},"ü":{"ha":854,"x_min":56,"x_max":794,"o":"m 347 694 l 347 268 q 360 235 347 246 q 399 225 372 225 q 456 230 426 225 q 532 253 485 235 l 549 110 q 408 13 478 44 q 261 -19 339 -19 q 56 175 56 -19 l 56 694 l 347 694 m 794 694 l 794 0 l 565 0 l 529 142 l 501 158 l 501 694 l 794 694 m 601 1008 q 656 954 656 1008 l 656 867 q 601 813 656 813 l 506 813 q 451 867 451 813 l 451 954 q 506 1008 451 1008 l 601 1008 m 339 1008 q 393 954 393 1008 l 393 867 q 339 813 393 813 l 243 813 q 189 867 189 813 l 189 954 q 243 1008 189 1008 l 339 1008 z "},"ū":{"ha":854,"x_min":56,"x_max":794,"o":"m 347 694 l 347 268 q 360 235 347 246 q 399 225 372 225 q 456 230 426 225 q 532 253 485 235 l 549 110 q 408 13 478 44 q 261 -19 339 -19 q 56 175 56 -19 l 56 694 l 347 694 m 794 694 l 794 0 l 565 0 l 529 142 l 501 158 l 501 694 l 794 694 m 649 996 l 649 825 l 204 825 l 204 996 l 649 996 z "},"ŭ":{"ha":854,"x_min":56,"x_max":794,"o":"m 347 694 l 347 268 q 360 235 347 246 q 399 225 372 225 q 456 230 426 225 q 532 253 485 235 l 549 110 q 408 13 478 44 q 261 -19 339 -19 q 56 175 56 -19 l 56 694 l 347 694 m 794 694 l 794 0 l 565 0 l 529 142 l 501 158 l 501 694 l 794 694 m 538 1033 l 672 1015 q 656 899 683 954 q 570 810 629 844 q 425 776 511 776 q 281 810 340 776 q 193 899 221 844 q 176 1015 165 954 l 311 1033 q 337 971 311 990 q 425 951 363 951 q 512 971 486 951 q 538 1033 538 990 z "},"ů":{"ha":854,"x_min":56,"x_max":794,"o":"m 347 694 l 347 268 q 360 235 347 246 q 399 225 372 225 q 456 230 426 225 q 532 253 485 235 l 549 110 q 408 13 478 44 q 261 -19 339 -19 q 56 175 56 -19 l 56 694 l 347 694 m 794 694 l 794 0 l 565 0 l 529 142 l 501 158 l 501 694 l 794 694 m 425 1090 q 515 1067 474 1090 q 580 1004 556 1043 q 604 917 604 965 q 580 828 604 868 q 515 766 556 789 q 425 743 474 743 q 335 766 376 743 q 270 828 294 789 q 246 917 246 868 q 270 1004 246 965 q 335 1067 294 1043 q 425 1090 376 1090 m 425 979 q 382 960 400 979 q 364 917 364 942 q 382 872 364 890 q 425 854 400 854 q 468 872 450 854 q 486 917 486 890 q 468 960 486 942 q 425 979 450 979 z "},"ű":{"ha":854,"x_min":56,"x_max":794,"o":"m 347 694 l 347 268 q 360 235 347 246 q 399 225 372 225 q 456 230 426 225 q 532 253 485 235 l 549 110 q 408 13 478 44 q 261 -19 339 -19 q 56 175 56 -19 l 56 694 l 347 694 m 794 694 l 794 0 l 565 0 l 529 142 l 501 158 l 501 694 l 794 694 m 314 1097 l 493 981 l 258 736 l 143 829 l 314 1097 m 613 1097 l 792 981 l 556 736 l 442 828 l 613 1097 z "},"ų":{"ha":854,"x_min":56,"x_max":813,"o":"m 347 694 l 347 268 q 360 235 347 246 q 399 225 372 225 q 456 230 426 225 q 532 253 485 235 l 549 110 q 408 13 478 44 q 261 -19 339 -19 q 56 175 56 -19 l 56 694 l 347 694 m 794 694 l 794 0 l 565 0 l 529 142 l 501 158 l 501 694 l 794 694 m 683 3 l 794 0 q 762 -58 778 -31 q 729 -121 746 -86 q 734 -165 711 -158 q 796 -167 757 -172 l 813 -267 q 669 -299 728 -299 q 578 -276 611 -299 q 535 -219 544 -254 q 538 -146 525 -183 q 584 -74 549 -112 q 683 3 619 -35 z "},"ẁ":{"ha":1217,"x_min":11,"x_max":1206,"o":"m 1206 694 l 1064 74 q 1031 20 1057 40 q 969 0 1006 0 l 765 0 q 698 24 726 0 q 665 86 669 47 l 625 401 q 621 463 622 433 q 617 524 619 493 l 599 524 q 594 463 597 493 q 589 401 592 433 l 549 86 q 516 24 544 47 q 449 0 488 0 l 247 0 q 186 20 213 0 q 153 74 160 40 l 11 694 l 300 694 l 350 304 q 356 243 353 274 q 361 181 360 213 l 378 181 q 384 243 381 213 q 390 304 388 274 l 429 610 q 461 671 433 647 q 528 694 489 694 l 688 694 q 754 671 726 694 q 786 608 782 647 l 824 304 q 831 243 826 274 q 838 181 836 213 l 854 181 q 860 243 857 213 q 867 304 863 274 l 915 694 l 1206 694 m 426 1094 l 750 886 l 671 767 l 317 910 l 426 1094 z "},"ẃ":{"ha":1217,"x_min":11,"x_max":1206,"o":"m 1206 694 l 1064 74 q 1031 20 1057 40 q 969 0 1006 0 l 765 0 q 698 24 726 0 q 665 86 669 47 l 625 401 q 621 463 622 433 q 617 524 619 493 l 599 524 q 594 463 597 493 q 589 401 592 433 l 549 86 q 516 24 544 47 q 449 0 488 0 l 247 0 q 186 20 213 0 q 153 74 160 40 l 11 694 l 300 694 l 350 304 q 356 243 353 274 q 361 181 360 213 l 378 181 q 384 243 381 213 q 390 304 388 274 l 429 610 q 461 671 433 647 q 528 694 489 694 l 688 694 q 754 671 726 694 q 786 608 782 647 l 824 304 q 831 243 826 274 q 838 181 836 213 l 854 181 q 860 243 857 213 q 867 304 863 274 l 915 694 l 1206 694 m 793 1067 l 903 882 l 549 739 l 469 858 l 793 1067 z "},"ŵ":{"ha":1217,"x_min":11,"x_max":1206,"o":"m 1206 694 l 1064 74 q 1031 20 1057 40 q 969 0 1006 0 l 765 0 q 698 24 726 0 q 665 86 669 47 l 625 401 q 621 463 622 433 q 617 524 619 493 l 599 524 q 594 463 597 493 q 589 401 592 433 l 549 86 q 516 24 544 47 q 449 0 488 0 l 247 0 q 186 20 213 0 q 153 74 160 40 l 11 694 l 300 694 l 350 304 q 356 243 353 274 q 361 181 360 213 l 378 181 q 384 243 381 213 q 390 304 388 274 l 429 610 q 461 671 433 647 q 528 694 489 694 l 688 694 q 754 671 726 694 q 786 608 782 647 l 824 304 q 831 243 826 274 q 838 181 836 213 l 854 181 q 860 243 857 213 q 867 304 863 274 l 915 694 l 1206 694 m 718 1031 l 906 835 l 839 739 l 618 868 l 607 868 l 382 739 l 313 846 l 507 1031 l 718 1031 z "},"ẅ":{"ha":1217,"x_min":11,"x_max":1206,"o":"m 1206 694 l 1064 74 q 1031 20 1057 40 q 969 0 1006 0 l 765 0 q 698 24 726 0 q 665 86 669 47 l 625 401 q 621 463 622 433 q 617 524 619 493 l 599 524 q 594 463 597 493 q 589 401 592 433 l 549 86 q 516 24 544 47 q 449 0 488 0 l 247 0 q 186 20 213 0 q 153 74 160 40 l 11 694 l 300 694 l 350 304 q 356 243 353 274 q 361 181 360 213 l 378 181 q 384 243 381 213 q 390 304 388 274 l 429 610 q 461 671 433 647 q 528 694 489 694 l 688 694 q 754 671 726 694 q 786 608 782 647 l 824 304 q 831 243 826 274 q 838 181 836 213 l 854 181 q 860 243 857 213 q 867 304 863 274 l 915 694 l 1206 694 m 788 994 q 842 940 842 994 l 842 853 q 788 799 842 799 l 692 799 q 638 853 638 799 l 638 940 q 692 994 638 994 l 788 994 m 525 994 q 579 940 579 994 l 579 853 q 525 799 579 799 l 429 799 q 375 853 375 799 l 375 940 q 429 994 375 994 l 525 994 z "},"ỳ":{"ha":836,"x_min":-4,"x_max":839,"o":"m 839 694 l 618 19 q 566 -99 600 -37 q 477 -208 532 -160 q 343 -276 422 -256 q 156 -274 264 -296 l 136 -117 q 273 -69 222 -99 q 350 19 324 -39 l 401 131 q 428 219 417 165 q 447 311 440 274 l 529 694 l 839 694 m 306 694 l 388 311 q 397 246 393 279 q 406 181 401 213 l 447 181 l 357 0 l 293 0 q 235 19 260 0 q 201 68 211 38 l -4 694 l 306 694 m 240 1108 l 564 900 l 485 781 l 131 924 l 240 1108 z "},"ý":{"ha":836,"x_min":-4,"x_max":839,"o":"m 839 694 l 618 19 q 566 -99 600 -37 q 477 -208 532 -160 q 343 -276 422 -256 q 156 -274 264 -296 l 136 -117 q 273 -69 222 -99 q 350 19 324 -39 l 401 131 q 428 219 417 165 q 447 311 440 274 l 529 694 l 839 694 m 306 694 l 388 311 q 397 246 393 279 q 406 181 401 213 l 447 181 l 357 0 l 293 0 q 235 19 260 0 q 201 68 211 38 l -4 694 l 306 694 m 607 1081 l 717 896 l 363 753 l 283 872 l 607 1081 z "},"ŷ":{"ha":836,"x_min":-4,"x_max":839,"o":"m 839 694 l 618 19 q 566 -99 600 -37 q 477 -208 532 -160 q 343 -276 422 -256 q 156 -274 264 -296 l 136 -117 q 273 -69 222 -99 q 350 19 324 -39 l 401 131 q 428 219 417 165 q 447 311 440 274 l 529 694 l 839 694 m 306 694 l 388 311 q 397 246 393 279 q 406 181 401 213 l 447 181 l 357 0 l 293 0 q 235 19 260 0 q 201 68 211 38 l -4 694 l 306 694 m 532 1044 l 719 849 l 653 753 l 432 882 l 421 882 l 196 753 l 126 860 l 321 1044 l 532 1044 z "},"ÿ":{"ha":836,"x_min":-4,"x_max":839,"o":"m 839 694 l 618 19 q 566 -99 600 -37 q 477 -208 532 -160 q 343 -276 422 -256 q 156 -274 264 -296 l 136 -117 q 273 -69 222 -99 q 350 19 324 -39 l 401 131 q 428 219 417 165 q 447 311 440 274 l 529 694 l 839 694 m 306 694 l 388 311 q 397 246 393 279 q 406 181 401 213 l 447 181 l 357 0 l 293 0 q 235 19 260 0 q 201 68 211 38 l -4 694 l 306 694 m 601 1008 q 656 954 656 1008 l 656 867 q 601 813 656 813 l 506 813 q 451 867 451 813 l 451 954 q 506 1008 451 1008 l 601 1008 m 339 1008 q 393 954 393 1008 l 393 867 q 339 813 393 813 l 243 813 q 189 867 189 813 l 189 954 q 243 1008 189 1008 l 339 1008 z "},"ź":{"ha":751,"x_min":40,"x_max":711,"o":"m 364 508 l 703 507 l 379 186 l 40 188 l 364 508 m 711 188 l 711 0 l 40 0 l 40 188 l 711 188 m 703 694 l 703 507 l 49 507 l 49 694 l 703 694 m 574 1081 l 683 896 l 329 753 l 250 872 l 574 1081 z "},"ż":{"ha":751,"x_min":40,"x_max":711,"o":"m 364 508 l 703 507 l 379 186 l 40 188 l 364 508 m 711 188 l 711 0 l 40 0 l 40 188 l 711 188 m 703 694 l 703 507 l 49 507 l 49 694 l 703 694 m 436 1021 q 518 942 518 1021 l 518 876 q 436 797 518 797 l 349 797 q 267 876 267 797 l 267 942 q 349 1021 267 1021 l 436 1021 z "},"ž":{"ha":751,"x_min":40,"x_max":711,"o":"m 364 508 l 703 507 l 379 186 l 40 188 l 364 508 m 711 188 l 711 0 l 40 0 l 40 188 l 711 188 m 703 694 l 703 507 l 49 507 l 49 694 l 703 694 m 608 1064 l 675 957 l 449 775 l 335 775 l 107 957 l 176 1064 l 386 958 l 397 958 l 608 1064 z "},"ǽ":{"ha":1231,"x_min":29,"x_max":1203,"o":"m 847 714 q 1120 651 1040 714 q 1201 467 1200 589 q 1178 362 1203 403 q 1094 302 1153 321 q 933 283 1036 283 l 574 283 l 574 421 l 851 421 q 910 430 897 421 q 922 474 922 439 q 907 517 922 507 q 856 526 892 526 q 790 518 813 528 q 760 476 768 508 q 753 374 753 443 q 762 274 753 310 q 798 222 771 238 q 881 207 825 207 q 993 210 919 207 q 1156 222 1067 213 l 1182 47 q 1080 8 1133 22 q 969 -11 1026 -6 q 849 -17 911 -17 q 621 24 706 -17 q 498 144 536 64 q 460 342 460 224 q 498 560 460 479 q 621 678 536 642 q 847 714 706 714 m 642 422 l 640 283 l 363 286 q 325 274 338 286 q 313 243 313 263 l 313 221 q 326 190 313 203 q 367 178 340 178 q 433 194 399 178 q 499 235 467 210 q 553 286 531 260 l 567 183 q 536 128 557 161 q 480 60 515 94 q 391 3 444 26 q 263 -19 338 -19 q 147 3 200 -19 q 61 69 93 25 q 29 178 29 113 l 29 247 q 90 375 29 328 q 253 422 150 422 l 642 422 m 454 714 q 617 688 551 714 q 718 601 683 663 q 753 431 753 539 l 753 311 l 460 311 l 460 432 q 443 485 460 468 q 385 501 426 501 q 255 500 332 501 q 92 494 178 499 l 65 679 q 188 697 117 689 q 331 709 260 704 q 454 714 403 714 m 824 1119 l 933 935 l 579 792 l 500 911 l 824 1119 z "},"ǿ":{"ha":849,"x_min":36,"x_max":813,"o":"m 607 829 l 671 799 l 240 -129 l 176 -99 l 607 829 m 425 714 q 652 678 567 714 q 775 563 738 643 q 813 346 813 482 q 775 133 813 213 q 652 19 738 54 q 425 -17 567 -17 q 198 19 283 -17 q 74 133 113 54 q 36 346 36 213 q 74 563 36 482 q 198 678 113 643 q 425 714 283 714 m 425 517 q 374 503 392 517 q 349 454 356 490 q 342 346 342 418 q 349 241 342 276 q 374 193 356 206 q 425 181 392 181 q 476 193 458 181 q 501 241 494 206 q 507 346 507 276 q 501 454 507 418 q 476 503 494 490 q 425 517 458 517 m 606 1108 l 715 924 l 361 781 l 282 900 l 606 1108 z "},"ǻ":{"ha":819,"x_min":29,"x_max":767,"o":"m 490 1418 l 600 1233 l 246 1090 l 167 1210 l 490 1418 m 463 714 q 628 688 561 714 q 731 601 696 663 q 767 431 767 539 l 767 0 l 535 0 l 494 149 l 475 176 l 475 432 q 456 485 474 468 q 393 501 439 501 q 260 500 339 501 q 93 494 182 499 l 67 679 q 192 697 119 689 q 338 709 265 704 q 463 714 410 714 m 654 426 l 653 286 l 365 286 q 326 274 339 286 q 313 243 313 263 l 313 221 q 327 190 313 203 q 371 178 342 178 q 440 194 404 178 q 510 235 476 210 q 567 286 543 260 l 567 197 q 536 138 557 174 q 480 65 515 101 q 392 5 444 29 q 268 -19 340 -19 q 149 3 204 -19 q 62 69 94 25 q 29 178 29 113 l 29 247 q 91 378 29 331 q 258 426 153 426 l 654 426 m 421 1101 q 510 1078 469 1101 q 576 1015 551 1054 q 600 928 600 976 q 576 840 600 879 q 510 777 551 800 q 421 754 469 754 q 331 777 372 754 q 266 840 290 800 q 242 928 242 879 q 266 1015 242 976 q 331 1078 290 1054 q 421 1101 372 1101 m 421 990 q 378 972 396 990 q 360 928 360 953 q 378 883 360 901 q 421 865 396 865 q 464 883 446 865 q 482 928 482 901 q 464 972 482 953 q 421 990 446 990 z "},"ə":{"ha":819,"x_min":28,"x_max":785,"o":"m 390 -17 q 113 46 194 -17 q 29 231 31 108 q 87 371 28 328 q 299 414 146 414 l 672 414 l 672 276 l 381 276 q 321 268 333 276 q 308 224 308 260 q 326 181 308 190 q 382 171 343 171 q 443 180 422 171 q 472 222 464 189 q 479 324 479 256 q 470 424 479 388 q 435 475 461 460 q 357 490 410 490 q 240 488 315 490 q 75 475 165 485 l 49 650 q 153 689 99 675 q 267 708 208 703 q 389 714 326 714 q 622 674 535 714 q 747 553 708 633 q 785 356 785 474 q 746 138 785 219 q 621 19 707 56 q 390 -17 535 -17 z "},"ĸ":{"ha":846,"x_min":60,"x_max":858,"o":"m 832 694 l 686 446 q 645 395 669 418 q 606 363 621 372 l 606 357 q 644 320 621 349 q 686 264 668 292 l 858 0 l 538 0 l 335 354 l 513 694 l 832 694 m 351 694 l 351 569 q 344 461 351 517 q 322 357 338 406 q 342 260 333 313 q 351 168 351 208 l 351 0 l 60 0 l 60 694 l 351 694 m 428 433 l 428 269 l 265 269 l 265 433 l 428 433 z "},"@":{"ha":1113,"x_min":54,"x_max":1056,"o":"m 779 857 q 983 800 913 857 q 1054 594 1054 743 l 1054 192 l 842 192 l 819 279 q 768 228 799 253 q 697 189 738 204 q 603 174 656 174 q 497 194 546 174 q 417 253 447 214 q 388 351 388 293 l 388 414 q 442 534 388 490 q 592 578 497 578 l 788 578 l 788 596 q 773 644 788 629 q 718 658 758 658 l 554 658 q 428 653 475 658 q 358 622 382 647 q 327 539 335 597 q 319 375 319 481 q 325 231 319 286 q 348 147 331 176 q 399 106 365 118 q 489 93 433 94 q 626 92 544 92 l 1056 92 l 1056 -86 q 842 -103 950 -96 q 626 -110 733 -110 q 369 -99 472 -110 q 202 -60 265 -89 q 107 22 139 -32 q 65 162 75 75 q 54 375 54 249 q 63 587 54 501 q 101 726 72 672 q 184 808 129 779 q 329 847 239 836 q 554 857 419 857 l 779 857 m 788 457 l 692 450 q 657 438 669 449 q 644 411 644 428 l 644 392 q 658 364 644 375 q 696 353 671 353 q 726 356 710 353 q 758 367 742 360 q 788 382 774 374 l 788 457 z "},"®":{"ha":685,"x_min":33,"x_max":651,"o":"m 343 978 q 499 936 429 978 q 610 825 568 894 q 651 669 651 756 q 610 513 651 583 q 499 401 568 443 q 343 360 429 360 q 187 401 257 360 q 75 513 117 443 q 33 669 33 583 q 75 825 33 756 q 187 936 117 894 q 343 978 257 978 m 324 821 l 324 532 l 206 532 l 206 821 l 324 821 m 343 899 q 228 867 281 899 q 145 785 176 836 q 114 669 114 733 q 145 553 114 606 q 228 470 176 501 q 343 439 281 439 q 457 470 406 439 q 540 553 508 501 q 571 669 571 606 q 540 785 571 733 q 457 867 508 836 q 343 899 406 899 m 349 825 q 458 806 424 825 q 493 736 493 788 q 479 694 493 714 q 425 669 465 674 l 425 667 q 458 658 440 665 q 482 619 475 651 l 506 532 l 381 532 l 365 615 q 356 628 361 626 q 340 631 351 631 q 261 631 285 631 q 213 632 238 631 l 213 701 l 344 701 q 369 706 364 701 q 374 724 374 711 q 369 740 374 736 q 344 743 364 743 q 261 743 296 743 q 214 740 226 743 l 206 821 q 268 824 239 824 q 349 825 297 825 z "},"©":{"ha":1086,"x_min":38,"x_max":1049,"o":"m 543 978 q 742 941 650 978 q 902 838 833 904 q 1010 679 971 771 q 1049 479 1049 588 q 1010 279 1049 371 q 902 121 971 188 q 742 17 833 54 q 543 -19 650 -19 q 345 17 438 -19 q 184 121 253 54 q 76 279 115 188 q 38 479 38 371 q 76 679 38 588 q 184 838 115 771 q 345 941 253 904 q 543 978 438 978 m 549 751 q 658 746 618 751 q 742 729 697 740 l 726 578 q 645 577 682 576 q 549 578 608 578 q 516 571 526 578 q 503 543 506 564 q 500 481 500 522 q 503 418 500 439 q 516 390 506 397 q 549 383 526 383 q 653 384 611 383 q 739 388 696 385 l 754 238 q 663 215 708 222 q 549 208 618 208 q 391 235 450 208 q 306 321 332 261 q 279 481 279 381 q 306 640 279 581 q 391 726 332 700 q 549 751 450 751 m 543 843 q 403 816 468 843 q 287 740 338 789 q 208 625 236 692 q 179 479 179 558 q 208 333 179 400 q 287 218 236 267 q 403 142 338 169 q 543 115 468 115 q 684 142 618 115 q 800 218 750 169 q 878 333 850 267 q 907 479 907 400 q 878 625 907 558 q 800 740 850 692 q 684 816 750 789 q 543 843 618 843 z "},"™":{"ha":1383,"x_min":61,"x_max":1321,"o":"m 1238 967 q 1306 899 1301 967 l 1321 439 l 1142 439 l 1125 818 l 1114 818 l 1083 592 q 1008 532 1075 532 l 903 532 q 828 592 836 532 l 796 818 l 785 818 l 772 439 l 592 439 l 608 899 q 675 967 611 967 l 851 967 q 901 951 882 967 q 925 906 921 936 l 946 735 q 950 694 949 715 q 953 654 951 674 l 958 654 q 963 694 961 674 q 965 735 964 715 l 983 906 q 1058 967 992 967 l 1238 967 m 408 967 l 408 439 l 210 439 l 210 967 l 408 967 m 556 967 l 556 818 l 61 818 l 61 967 l 556 967 z "},"+":{"ha":726,"x_min":36,"x_max":690,"o":"m 690 529 l 690 314 l 36 314 l 36 529 l 690 529 m 469 749 l 469 94 l 257 94 l 257 749 l 469 749 z "},"−":{"ha":793,"x_min":63,"x_max":731,"o":"m 731 507 l 731 304 l 63 304 l 63 507 l 731 507 z "},"×":{"ha":703,"x_min":26,"x_max":679,"o":"m 544 717 l 26 257 l 160 97 l 679 556 l 544 717 m 160 717 l 26 556 l 544 97 l 679 257 l 160 717 z "},"÷":{"ha":743,"x_min":38,"x_max":706,"o":"m 706 507 l 706 304 l 38 304 l 38 507 l 706 507 m 406 244 q 490 222 467 244 q 513 138 513 199 l 513 113 q 490 29 513 53 q 406 6 467 6 l 336 6 q 252 29 275 6 q 229 113 229 53 l 229 138 q 252 222 229 199 q 336 244 275 244 l 406 244 m 406 801 q 490 778 467 801 q 513 694 513 756 l 513 669 q 490 585 513 608 q 406 563 467 563 l 336 563 q 252 585 275 563 q 229 669 229 608 l 229 694 q 252 778 229 756 q 336 801 275 801 l 406 801 z "},"=":{"ha":793,"x_min":63,"x_max":731,"o":"m 731 671 l 731 468 l 63 468 l 63 671 l 731 671 m 731 371 l 731 168 l 63 168 l 63 371 l 731 371 z "},"<":{"ha":701,"x_min":36,"x_max":640,"o":"m 640 751 l 640 525 l 281 421 l 640 317 l 640 90 l 36 310 l 36 533 l 640 751 z "},">":{"ha":697,"x_min":61,"x_max":661,"o":"m 61 751 l 661 533 l 661 310 l 61 90 l 61 317 l 417 421 l 61 525 l 61 751 z "},"$":{"ha":826,"x_min":44,"x_max":794,"o":"m 429 978 q 594 969 503 978 q 768 929 685 960 l 750 736 q 600 738 690 738 q 421 739 510 739 q 380 738 396 739 q 354 732 364 736 q 341 721 344 728 q 338 703 338 714 q 354 670 338 683 q 421 638 371 657 l 586 565 q 748 447 701 514 q 794 274 794 379 q 776 137 794 193 q 713 47 757 81 q 597 -3 669 13 q 414 -19 524 -19 q 271 -12 367 -19 q 51 28 175 -4 l 69 239 q 217 235 149 238 q 335 233 285 233 q 408 232 385 232 q 464 235 444 232 q 491 245 483 238 q 499 265 499 253 q 493 288 499 279 q 474 306 488 297 q 433 324 460 314 l 251 407 q 92 525 139 460 q 44 696 44 590 q 65 832 44 778 q 131 918 85 886 q 250 964 176 950 q 429 978 324 978 m 365 503 l 438 503 l 374 -153 l 300 -153 l 365 503 m 544 1096 l 471 503 l 396 503 l 469 1096 l 544 1096 z "},"¢":{"ha":751,"x_min":35,"x_max":714,"o":"m 411 847 q 506 843 454 847 q 610 828 558 839 q 704 796 663 817 l 675 629 q 557 629 608 629 q 461 629 506 629 q 376 617 407 629 q 334 574 346 606 q 322 482 322 543 q 334 389 322 421 q 376 345 346 357 q 461 333 407 333 q 521 334 485 333 q 600 337 557 335 q 688 343 643 339 l 714 175 q 571 130 651 143 q 408 117 490 117 q 189 152 271 117 q 71 268 107 188 q 35 482 35 349 q 72 697 35 617 q 191 812 108 776 q 411 847 274 847 m 454 243 l 425 0 l 349 0 l 378 243 l 454 243 m 514 681 l 458 243 l 382 243 l 438 681 l 514 681 m 553 958 l 518 681 l 442 681 l 475 958 l 553 958 z "},"£":{"ha":838,"x_min":49,"x_max":799,"o":"m 443 976 q 526 975 475 976 q 641 971 578 974 q 768 963 704 968 l 754 747 q 722 747 736 747 q 685 747 708 747 q 619 747 663 747 q 497 747 575 747 q 442 734 458 747 q 429 693 426 721 l 458 422 q 449 322 464 360 q 409 262 435 285 q 356 218 383 239 q 415 231 385 229 q 475 232 444 232 l 799 232 l 799 0 l 53 0 l 53 232 q 146 315 126 267 q 158 422 165 363 l 135 707 q 145 840 129 788 q 199 922 161 892 q 298 964 238 951 q 443 976 358 976 m 679 575 l 672 436 l 51 436 l 49 575 l 679 575 z "},"¥":{"ha":986,"x_min":25,"x_max":961,"o":"m 961 958 l 638 285 l 349 285 l 25 958 l 335 958 l 456 657 q 474 590 468 626 q 485 522 479 554 l 503 522 q 515 591 508 554 q 532 658 521 628 l 651 958 l 961 958 m 644 456 l 644 0 l 343 0 l 343 456 l 644 456 m 849 317 l 849 178 l 140 178 l 138 317 l 849 317 m 849 497 l 849 358 l 140 358 l 138 497 l 849 497 z "},"ƒ":{"ha":713,"x_min":-37,"x_max":697,"o":"m 483 978 q 547 976 507 978 q 628 969 586 974 q 697 958 669 965 l 654 783 l 569 783 q 524 767 538 783 q 507 711 510 751 l 443 -24 q 409 -140 438 -89 q 324 -221 381 -192 q 176 -250 268 -250 q 113 -248 153 -250 q 33 -242 74 -246 q -37 -231 -8 -237 l 6 -56 l 90 -56 q 136 -40 122 -56 q 153 17 150 -24 l 217 751 q 251 868 224 817 q 335 949 279 919 q 483 978 392 978 m 625 569 l 611 394 l 60 394 l 72 563 l 210 569 l 625 569 z "},"₡":{"ha":840,"x_min":44,"x_max":822,"o":"m 479 975 q 607 971 554 975 q 703 959 660 967 q 794 938 747 951 l 772 718 q 682 719 724 719 q 593 720 640 719 q 479 721 546 721 q 406 701 432 721 q 371 628 381 681 q 361 479 361 576 q 371 330 361 382 q 406 258 381 278 q 479 238 432 238 q 653 240 583 238 q 793 249 724 242 l 815 29 q 667 -6 743 4 q 479 -17 592 -17 q 225 31 321 -17 q 87 188 129 79 q 44 479 44 296 q 87 771 44 663 q 225 927 129 879 q 479 975 321 975 m 342 -187 l 744 1117 l 822 1117 l 419 -187 l 342 -187 m 203 -187 l 606 1117 l 683 1117 l 281 -187 l 203 -187 z "},"₤":{"ha":838,"x_min":49,"x_max":799,"o":"m 443 976 q 526 975 475 976 q 641 971 578 974 q 768 963 704 968 l 754 747 q 722 747 736 747 q 685 747 708 747 q 619 747 663 747 q 497 747 575 747 q 442 734 458 747 q 429 693 426 721 l 458 422 q 449 322 464 360 q 409 262 435 285 q 356 218 383 239 q 415 231 385 229 q 475 232 444 232 l 799 232 l 799 0 l 53 0 l 53 232 q 146 315 126 267 q 158 422 165 363 l 135 707 q 145 840 129 788 q 199 922 161 892 q 298 964 238 951 q 443 976 358 976 m 679 640 l 672 515 l 51 515 l 49 640 l 679 640 m 679 446 l 672 321 l 51 321 l 49 446 l 679 446 z "},"₦":{"ha":1076,"x_min":11,"x_max":1065,"o":"m 979 958 l 979 104 q 875 0 979 0 l 760 0 q 690 22 713 0 q 643 88 667 44 l 435 417 q 399 495 415 453 q 371 581 383 538 l 361 581 q 372 492 368 538 q 375 406 375 447 l 375 0 l 97 0 l 97 854 q 201 958 97 958 l 317 958 q 386 936 364 958 q 433 871 408 914 l 633 557 q 672 481 653 522 q 707 393 690 439 l 717 393 q 708 481 711 438 q 704 567 704 524 l 703 958 l 979 958 m 1065 689 l 1058 564 l 14 564 l 11 689 l 1065 689 m 1065 411 l 1058 286 l 14 286 l 11 411 l 1065 411 z "},"₩":{"ha":1429,"x_min":17,"x_max":1413,"o":"m 1386 958 l 1267 81 q 1232 22 1261 44 q 1164 0 1203 0 l 908 0 q 840 22 869 0 q 806 81 810 44 l 740 610 q 734 680 736 644 q 729 750 732 715 l 706 750 q 701 679 704 715 q 694 608 699 643 l 631 81 q 597 22 626 44 q 528 0 567 0 l 271 0 q 203 22 232 0 q 168 81 174 44 l 49 958 l 346 958 l 394 371 q 399 297 397 336 q 400 211 400 257 l 422 211 q 433 291 428 247 q 444 372 439 335 l 508 869 q 542 934 514 910 q 610 958 569 958 l 825 958 q 893 934 865 958 q 926 869 921 910 l 992 369 q 1002 290 997 332 q 1013 211 1007 249 l 1035 211 q 1037 292 1035 250 q 1042 368 1039 333 l 1089 958 l 1386 958 m 1413 658 l 1406 533 l 19 533 l 17 658 l 1413 658 m 1413 450 l 1406 325 l 19 325 l 17 450 l 1413 450 z "},"₫":{"ha":857,"x_min":39,"x_max":876,"o":"m 808 -69 l 808 -204 l 85 -204 l 85 -69 l 808 -69 m 876 876 l 876 760 l 361 760 l 361 876 l 876 876 m 303 714 q 451 690 382 714 q 563 608 519 667 l 542 494 q 488 513 514 503 q 419 524 463 524 q 373 513 390 524 q 347 468 356 503 q 339 358 339 433 q 347 265 339 294 q 372 226 354 235 q 415 217 389 217 q 467 222 446 217 q 503 235 488 226 q 538 253 519 243 l 556 133 q 465 26 528 69 q 290 -17 401 -17 q 97 81 154 -17 q 39 356 39 179 q 69 576 39 499 q 158 683 99 653 q 303 714 217 714 m 801 972 l 801 0 l 569 0 l 542 133 l 510 156 l 510 592 l 518 608 q 513 705 515 653 q 510 807 510 757 l 510 972 l 801 972 z "},"€":{"ha":894,"x_min":38,"x_max":861,"o":"m 578 975 q 724 964 660 975 q 835 938 788 953 l 811 732 q 770 735 801 733 q 699 740 739 738 q 619 741 658 742 q 554 735 581 740 q 485 699 511 725 q 447 619 458 672 q 435 474 435 565 q 460 289 435 343 q 554 224 486 235 q 635 219 585 219 q 740 223 685 218 q 839 235 796 228 l 861 29 q 740 -3 810 10 q 578 -17 669 -17 q 306 37 407 -17 q 162 200 206 90 q 118 479 118 310 q 162 758 118 649 q 306 922 206 868 q 578 975 407 975 m 703 457 l 689 318 l 38 318 l 38 457 l 703 457 m 726 643 l 713 504 l 39 504 l 39 643 l 726 643 z "},"₱":{"ha":1008,"x_min":14,"x_max":993,"o":"m 507 972 q 746 944 660 972 q 868 844 832 915 q 904 646 904 774 q 870 449 904 519 q 758 351 836 379 q 549 322 681 322 q 410 330 479 322 q 280 349 340 338 q 176 374 219 361 q 117 399 133 388 l 121 569 l 504 569 q 563 576 542 569 q 594 601 585 583 q 603 653 603 619 q 594 697 603 682 q 563 718 585 713 q 504 724 542 724 l 122 724 l 101 958 q 222 968 165 965 q 344 972 278 971 q 507 972 411 972 m 403 958 l 403 0 l 101 0 l 101 958 l 403 958 m 993 825 l 989 724 l 15 724 l 14 825 l 993 825 m 993 569 l 989 468 l 15 468 l 14 569 l 993 569 z "},"₲":{"ha":928,"x_min":44,"x_max":876,"o":"m 496 978 q 630 974 572 978 q 737 961 688 969 q 836 938 786 953 l 814 721 q 713 722 761 722 q 614 723 665 722 q 497 724 563 724 q 415 703 444 724 q 373 631 385 683 q 361 479 361 578 q 372 330 361 382 q 410 258 383 278 q 483 238 436 238 q 550 240 514 238 q 617 246 586 242 q 661 253 649 250 l 690 126 q 625 64 674 99 q 508 5 576 29 q 363 -19 439 -19 q 182 30 253 -19 q 78 189 111 79 q 44 479 44 299 q 88 773 44 664 q 231 930 132 882 q 496 978 331 978 m 629 551 l 876 551 l 876 0 l 696 0 l 657 149 l 629 200 l 629 551 m 542 1096 l 617 1096 l 475 -153 l 401 -153 l 542 1096 z "},"₵":{"ha":840,"x_min":44,"x_max":815,"o":"m 479 975 q 607 971 554 975 q 703 959 660 967 q 794 938 747 951 l 772 718 q 682 719 724 719 q 593 720 640 719 q 479 721 546 721 q 406 701 432 721 q 371 628 381 681 q 361 479 361 576 q 371 330 361 382 q 406 258 381 278 q 479 238 432 238 q 653 240 583 238 q 793 249 724 242 l 815 29 q 667 -6 743 4 q 479 -17 592 -17 q 225 31 321 -17 q 87 188 129 79 q 44 479 44 296 q 87 771 44 663 q 225 927 129 879 q 479 975 321 975 m 429 -153 l 569 1096 l 644 1096 l 503 -153 l 429 -153 z "},"₼":{"ha":893,"x_min":42,"x_max":851,"o":"m 42 0 l 42 463 q 94 678 42 593 q 238 806 147 764 q 446 847 329 847 q 654 806 563 847 q 799 678 746 764 q 851 463 851 593 l 851 0 l 569 0 l 569 365 q 563 486 569 435 q 530 565 556 538 q 446 593 504 593 q 363 565 389 593 q 330 486 336 538 q 324 365 324 435 l 324 0 l 42 0 m 501 972 l 501 142 l 392 142 l 392 972 l 501 972 z "},"₽":{"ha":875,"x_min":11,"x_max":842,"o":"m 444 972 q 683 944 597 972 q 806 844 769 915 q 842 646 842 774 q 808 449 842 519 q 696 351 774 379 q 486 322 618 322 q 382 323 431 322 q 288 325 333 324 q 199 330 243 326 q 110 338 156 333 q 13 350 64 343 l 17 535 q 116 535 63 535 q 226 535 169 535 q 336 535 282 535 q 438 535 390 535 q 501 544 479 535 q 532 577 524 553 q 540 646 540 601 q 532 717 540 692 q 501 751 524 742 q 438 760 479 760 q 282 759 343 760 q 183 757 221 758 q 122 753 146 756 l 101 958 q 183 965 150 963 q 249 969 217 968 q 327 972 282 971 q 444 972 372 972 m 403 958 l 403 0 l 101 0 l 101 958 l 403 958 m 678 236 l 671 115 l 14 115 l 11 236 l 678 236 z "},"#":{"ha":1028,"x_min":31,"x_max":999,"o":"m 532 958 l 365 0 l 150 0 l 317 958 l 532 958 m 881 958 l 714 0 l 499 0 l 665 958 l 881 958 m 999 731 l 965 561 l 89 561 l 122 731 l 999 731 m 940 422 l 907 253 l 31 253 l 64 422 l 940 422 z "},"§":{"ha":785,"x_min":44,"x_max":740,"o":"m 279 458 q 288 382 279 408 q 322 338 297 356 q 394 294 347 321 l 596 189 q 656 153 622 175 q 714 85 689 131 q 739 -43 739 40 q 700 -184 739 -133 q 584 -254 661 -235 q 392 -274 507 -274 q 303 -272 361 -274 q 179 -267 244 -271 q 64 -257 114 -262 l 83 -60 q 144 -62 117 -61 q 208 -62 172 -62 q 301 -62 244 -62 q 372 -60 346 -62 q 411 -51 399 -57 q 426 -32 424 -44 q 413 3 432 -10 q 367 28 393 17 l 207 104 q 83 196 121 146 q 46 310 44 246 q 79 458 47 375 l 279 458 m 393 978 q 481 976 424 978 q 604 970 539 974 q 721 961 669 967 l 701 764 q 638 767 668 767 q 573 766 608 767 q 483 765 538 765 q 413 763 440 765 q 374 756 386 761 q 358 736 361 750 q 372 700 353 714 q 418 675 392 686 l 578 600 q 703 509 665 560 q 739 394 740 458 q 706 246 738 331 l 506 246 q 497 322 506 296 q 464 365 489 347 q 390 410 439 383 l 189 515 q 131 551 164 529 q 72 619 97 574 q 46 746 46 664 q 85 888 46 838 q 201 958 124 939 q 393 978 278 978 z "},"¤":{"ha":799,"x_min":42,"x_max":753,"o":"m 399 618 q 337 601 365 618 q 291 555 308 583 q 274 492 274 526 q 291 426 274 456 q 337 380 308 397 q 399 363 365 363 q 460 380 432 363 q 506 426 489 397 q 524 490 524 456 q 506 555 524 526 q 460 601 489 583 q 399 618 432 618 m 169 839 l 290 717 l 172 599 l 50 721 l 169 839 m 635 839 l 753 721 l 635 603 l 517 721 l 635 839 m 175 399 l 301 271 l 169 139 l 42 267 l 175 399 m 622 383 l 753 256 l 633 138 l 504 265 l 622 383 m 399 779 q 544 740 479 779 q 649 635 610 700 q 689 489 689 569 q 649 344 689 410 q 544 238 610 278 q 399 199 479 199 q 253 238 319 199 q 148 344 188 278 q 108 489 108 410 q 148 635 108 569 q 253 740 188 700 q 399 779 319 779 z "},"¶":{"ha":863,"x_min":28,"x_max":763,"o":"m 496 975 q 626 970 551 975 q 763 951 701 965 l 754 788 q 671 798 718 794 q 578 803 624 801 q 497 804 532 804 l 369 278 q 107 372 186 292 q 28 625 28 453 q 75 831 28 754 q 225 941 122 907 q 496 975 328 975 m 532 951 l 532 -292 l 356 -292 l 356 951 l 532 951 m 763 951 l 763 0 l 586 0 l 586 951 l 763 951 z "},"%":{"ha":1279,"x_min":31,"x_max":1250,"o":"m 282 978 q 432 952 376 978 q 512 865 488 926 q 536 692 536 803 q 512 519 536 582 q 432 431 488 457 q 282 406 376 406 q 134 431 189 406 q 55 519 79 457 q 31 692 31 582 q 55 865 31 803 q 134 952 79 926 q 282 978 189 978 m 282 826 q 257 819 265 826 q 246 784 249 813 q 243 692 243 756 q 246 599 243 628 q 257 564 249 571 q 282 557 265 557 q 308 564 300 557 q 320 599 317 571 q 324 692 324 628 q 320 784 324 756 q 308 819 317 813 q 282 826 300 826 m 990 958 l 463 0 l 288 0 l 815 958 l 990 958 m 996 553 q 1146 527 1090 553 q 1226 440 1201 501 q 1250 267 1250 378 q 1226 94 1250 157 q 1146 6 1201 32 q 996 -19 1090 -19 q 848 6 903 -19 q 769 94 793 32 q 744 267 744 157 q 769 440 744 378 q 848 527 793 501 q 996 553 903 553 m 996 401 q 971 394 979 401 q 960 360 963 388 q 957 267 957 332 q 960 174 957 203 q 971 139 963 146 q 996 132 979 132 q 1022 139 1014 132 q 1034 174 1031 146 q 1038 267 1038 203 q 1034 360 1038 332 q 1022 394 1031 388 q 996 401 1014 401 z "},"‰":{"ha":1840,"x_min":31,"x_max":1808,"o":"m 282 978 q 432 952 376 978 q 512 865 488 926 q 536 692 536 803 q 512 519 536 582 q 432 431 488 457 q 282 406 376 406 q 134 431 189 406 q 55 519 79 457 q 31 692 31 582 q 55 865 31 803 q 134 952 79 926 q 282 978 189 978 m 282 826 q 257 819 265 826 q 246 784 249 813 q 243 692 243 756 q 246 599 243 628 q 257 564 249 571 q 282 557 265 557 q 308 564 300 557 q 320 599 317 571 q 324 692 324 628 q 320 784 324 756 q 308 819 317 813 q 282 826 300 826 m 990 958 l 463 0 l 288 0 l 815 958 l 990 958 m 996 553 q 1146 527 1090 553 q 1226 440 1201 501 q 1250 267 1250 378 q 1226 94 1250 157 q 1146 6 1201 32 q 996 -19 1090 -19 q 848 6 903 -19 q 769 94 793 32 q 744 267 744 157 q 769 440 744 378 q 848 527 793 501 q 996 553 903 553 m 996 401 q 971 394 979 401 q 960 360 963 388 q 957 267 957 332 q 960 174 957 203 q 971 139 963 146 q 996 132 979 132 q 1022 139 1014 132 q 1034 174 1031 146 q 1038 267 1038 203 q 1034 360 1038 332 q 1022 394 1031 388 q 996 401 1014 401 m 1554 553 q 1704 527 1649 553 q 1784 440 1760 501 q 1808 267 1808 378 q 1784 94 1808 157 q 1704 6 1760 32 q 1554 -19 1649 -19 q 1406 6 1461 -19 q 1327 94 1351 32 q 1303 267 1303 157 q 1327 440 1303 378 q 1406 527 1351 501 q 1554 553 1461 553 m 1554 401 q 1529 394 1538 401 q 1518 360 1521 388 q 1515 267 1515 332 q 1518 174 1515 203 q 1529 139 1521 146 q 1554 132 1538 132 q 1581 139 1572 132 q 1592 174 1589 146 q 1596 267 1596 203 q 1592 360 1596 332 q 1581 394 1589 388 q 1554 401 1572 401 z "},"°":{"ha":451,"x_min":28,"x_max":424,"o":"m 226 978 q 325 952 281 978 q 397 883 369 926 q 424 785 424 839 q 397 686 424 731 q 325 616 369 642 q 226 590 281 590 q 127 616 172 590 q 55 686 82 642 q 28 785 28 731 q 55 883 28 839 q 127 952 82 926 q 226 978 172 978 m 226 853 q 181 833 200 853 q 161 785 161 814 q 170 749 161 765 q 194 724 179 733 q 226 715 208 715 q 258 724 244 715 q 281 749 272 733 q 290 785 290 765 q 272 833 290 814 q 226 853 253 853 z "},"′":{"ha":297,"x_min":49,"x_max":249,"o":"m 249 958 l 232 642 l 65 642 l 49 958 l 249 958 z "},"″":{"ha":546,"x_min":49,"x_max":497,"o":"m 497 958 l 481 642 l 314 642 l 297 958 l 497 958 m 249 958 l 232 642 l 65 642 l 49 958 l 249 958 z "},"ª":{"ha":601,"x_min":42,"x_max":546,"o":"m 338 865 q 492 824 439 865 q 546 669 546 782 l 546 385 l 378 385 l 350 485 l 336 504 l 336 671 q 325 703 336 694 q 288 713 314 713 q 199 712 251 713 q 88 708 146 711 l 68 842 q 153 853 103 849 q 253 862 203 858 q 338 865 303 865 m 467 672 l 465 590 l 278 572 q 253 565 261 571 q 244 547 244 558 l 244 536 q 253 519 244 526 q 279 513 261 513 q 324 523 301 513 q 368 549 347 533 q 403 582 389 565 l 403 519 q 383 479 397 504 q 347 429 369 454 q 288 388 324 404 q 203 371 253 371 q 90 405 139 371 q 42 504 42 439 l 42 550 q 83 640 42 607 q 197 672 125 672 l 467 672 z "},"º":{"ha":604,"x_min":38,"x_max":567,"o":"m 303 865 q 508 809 449 865 q 567 617 567 753 q 541 474 567 528 q 458 397 515 421 q 303 374 400 374 q 97 428 157 374 q 38 617 38 482 q 97 809 38 753 q 303 865 157 865 m 303 724 q 265 705 274 724 q 257 617 257 686 q 265 533 257 551 q 303 514 274 514 q 339 533 331 514 q 347 617 347 551 q 339 705 347 686 q 303 724 331 724 z "},"⁄":{"ha":222,"x_min":-242,"x_max":461,"o":"m 461 958 l -67 0 l -242 0 l 286 958 l 461 958 z "},"½":{"ha":1310,"x_min":26,"x_max":1268,"o":"m 949 958 l 411 0 l 236 0 l 772 958 l 949 958 m 389 958 l 389 383 l 167 383 l 167 704 q 168 745 167 725 q 175 788 169 765 l 51 768 l 26 904 l 167 958 l 389 958 m 1001 585 q 1145 572 1089 585 q 1228 524 1201 560 q 1256 421 1256 489 q 1233 355 1256 394 q 1168 279 1211 315 l 1047 175 q 1085 185 1068 182 q 1124 186 1103 188 l 1268 182 l 1268 0 l 778 0 l 778 110 q 784 159 778 138 q 808 199 790 181 l 908 286 q 977 349 949 322 q 1014 389 1006 376 q 1011 401 1021 399 q 978 403 1001 403 q 891 403 931 403 q 789 406 851 404 l 783 568 q 911 582 851 579 q 1001 585 971 585 z "},"¼":{"ha":1311,"x_min":26,"x_max":1278,"o":"m 949 958 l 411 0 l 236 0 l 774 958 l 949 958 m 389 958 l 389 383 l 167 383 l 167 704 q 168 745 167 725 q 175 788 169 765 l 51 768 l 26 904 l 167 958 l 389 958 m 1043 575 l 928 260 q 928 249 925 251 q 942 246 932 246 l 1278 246 l 1278 125 l 1217 106 l 772 106 q 712 133 733 106 q 704 196 690 161 l 847 575 l 1043 575 m 1215 460 l 1215 0 l 1011 0 l 1011 375 l 1046 460 l 1215 460 z "},"¾":{"ha":1413,"x_min":42,"x_max":1382,"o":"m 1054 958 l 517 0 l 342 0 l 878 958 l 1054 958 m 282 967 q 456 938 408 967 q 504 832 504 910 q 485 730 504 765 q 396 686 465 694 l 396 683 q 494 642 469 674 q 521 539 519 610 q 468 406 522 444 q 281 367 414 367 q 160 372 221 367 q 42 383 99 376 l 47 540 q 119 539 92 539 q 169 539 147 539 q 217 539 192 539 q 281 544 269 539 q 293 571 293 549 q 290 595 293 588 q 276 606 286 603 q 242 608 265 608 l 124 607 l 124 739 l 242 739 q 274 741 264 739 q 286 750 283 743 q 289 771 289 757 q 281 791 289 788 q 240 796 274 794 q 144 798 190 797 q 61 799 97 799 l 56 950 q 169 963 113 958 q 282 967 226 967 m 1147 575 l 1032 260 q 1033 249 1029 251 q 1047 246 1038 246 l 1382 246 l 1382 125 l 1321 106 l 878 106 q 816 133 838 106 q 808 196 794 161 l 951 575 l 1147 575 m 1319 460 l 1319 0 l 1115 0 l 1115 375 l 1150 460 l 1319 460 z "},"≤":{"ha":769,"x_min":53,"x_max":683,"o":"m 683 818 l 683 592 l 315 546 l 683 497 l 683 271 l 69 435 l 69 658 l 683 818 m 679 253 l 679 33 l 53 33 l 53 253 l 679 253 z "},"≥":{"ha":769,"x_min":86,"x_max":717,"o":"m 86 818 l 700 658 l 700 435 l 86 271 l 86 497 l 454 546 l 86 592 l 86 818 m 717 253 l 717 33 l 90 33 l 90 253 l 717 253 z "},"≠":{"ha":851,"x_min":92,"x_max":760,"o":"m 621 819 l 679 789 l 200 -4 l 142 26 l 621 819 m 760 671 l 760 468 l 92 468 l 92 671 l 760 671 m 760 371 l 760 168 l 92 168 l 92 371 l 760 371 z "},"^":{"ha":690,"x_min":42,"x_max":649,"o":"m 453 907 l 649 575 l 536 517 l 353 735 l 342 735 l 153 517 l 42 575 l 242 907 l 453 907 z "},"~":{"ha":694,"x_min":49,"x_max":654,"o":"m 181 522 q 248 514 206 522 q 336 494 290 506 q 419 474 382 483 q 471 463 457 465 q 507 469 503 457 q 511 515 511 482 l 632 515 q 617 337 654 394 q 514 281 579 279 q 447 289 489 281 q 360 308 406 297 q 277 328 315 318 q 222 340 239 338 q 188 333 192 346 q 183 288 183 321 l 63 288 q 63 423 49 371 q 109 499 76 475 q 181 522 142 524 z "},"±":{"ha":775,"x_min":61,"x_max":714,"o":"m 714 646 l 714 432 l 61 432 l 61 646 l 714 646 m 714 242 l 714 26 l 61 26 l 61 242 l 714 242 m 493 796 l 494 283 l 282 283 l 282 796 l 493 796 z "},"∞":{"ha":1164,"x_min":22,"x_max":1142,"o":"m 563 524 q 667 615 619 578 q 769 672 715 653 q 896 692 822 692 q 1083 622 1024 692 q 1142 432 1142 551 q 1077 235 1142 304 q 871 165 1013 165 q 706 194 776 165 q 579 276 635 222 q 472 407 524 331 q 433 458 451 439 q 392 485 414 476 q 340 493 371 493 q 290 474 304 493 q 276 422 276 456 q 346 349 276 349 q 381 352 361 349 q 421 362 400 356 q 460 376 442 368 l 568 421 l 601 333 q 497 242 544 279 q 395 185 449 204 q 268 165 342 165 q 81 235 140 165 q 22 425 22 306 q 87 622 22 553 q 293 692 151 692 q 458 663 388 692 q 585 580 529 635 q 693 447 642 525 q 731 400 713 418 q 772 373 750 382 q 824 364 794 364 q 874 383 860 364 q 888 435 888 401 q 821 508 888 508 q 785 505 806 508 q 744 496 765 501 q 704 481 724 490 l 596 436 l 563 524 z "},"μ":{"ha":907,"x_min":60,"x_max":899,"o":"m 351 694 l 351 289 q 368 235 351 246 q 403 225 385 225 q 438 237 419 225 q 472 274 456 249 q 498 340 488 300 q 508 436 508 381 l 513 117 q 465 49 496 79 q 394 -1 433 18 q 310 -19 354 -19 q 185 -2 242 -19 q 96 59 129 15 q 63 179 63 103 l 63 694 l 351 694 m 60 694 l 351 694 l 351 -90 l 314 -250 l 60 -250 l 60 694 m 799 694 l 799 225 q 805 177 799 192 q 833 163 811 163 l 889 163 l 899 21 q 799 -6 860 7 q 681 -18 739 -18 q 563 13 613 -18 q 513 113 513 43 l 513 117 l 508 139 l 508 694 l 799 694 z "},"∂":{"ha":851,"x_min":33,"x_max":819,"o":"m 144 978 q 453 965 324 985 q 665 888 583 944 q 783 728 747 831 q 813 471 819 626 q 775 228 806 324 q 690 79 744 132 q 560 5 636 26 q 388 -17 485 -17 q 204 17 275 -17 q 95 106 133 51 q 45 222 57 160 q 38 343 33 285 q 60 446 42 394 q 115 540 78 497 q 210 609 151 583 q 353 635 268 635 q 465 619 417 635 q 553 565 513 604 q 633 451 593 525 l 624 404 q 537 419 569 414 q 480 428 504 425 q 426 431 456 431 q 351 400 372 431 q 328 336 331 369 q 329 260 324 290 q 353 215 335 231 q 403 200 371 200 q 456 215 436 200 q 485 262 475 231 q 502 341 496 293 q 514 453 508 389 q 519 606 522 543 q 483 710 517 669 q 370 770 450 751 q 144 789 290 789 l 144 978 z "},"∑":{"ha":831,"x_min":44,"x_max":794,"o":"m 781 958 l 781 761 l 388 761 l 553 446 l 368 -29 l 794 -29 l 794 -226 l 44 -226 l 44 -29 l 228 446 l 61 761 l 61 958 l 781 958 z "},"∏":{"ha":985,"x_min":35,"x_max":950,"o":"m 853 958 l 853 -125 l 561 -125 l 561 958 l 853 958 m 424 958 l 424 -125 l 132 -125 l 132 958 l 424 958 m 950 958 l 950 756 l 35 756 l 35 958 l 950 958 z "},"π":{"ha":910,"x_min":18,"x_max":892,"o":"m 399 696 l 399 0 l 107 0 l 107 696 l 399 696 m 892 696 l 892 507 l 18 507 l 18 696 l 892 696 m 803 696 l 803 0 l 511 0 l 511 696 l 803 696 z "},"∫":{"ha":489,"x_min":31,"x_max":458,"o":"m 260 992 q 343 992 290 992 q 458 986 396 993 l 442 776 l 358 776 q 340 772 346 776 q 335 747 333 767 l 408 -124 q 375 -263 417 -218 q 213 -308 333 -308 q 181 -308 206 -308 q 124 -308 156 -308 q 67 -306 93 -307 q 31 -303 40 -304 l 47 -93 l 124 -93 q 148 -85 142 -93 q 151 -54 154 -76 l 81 807 q 128 945 75 899 q 260 992 181 992 z "},"Ω":{"ha":1000,"x_min":50,"x_max":950,"o":"m 501 978 q 760 932 664 978 q 899 793 857 886 q 942 557 942 700 q 923 411 942 472 q 863 300 904 350 q 751 197 821 250 q 806 219 782 213 q 856 225 829 225 l 950 225 l 950 0 l 526 0 l 526 211 q 588 291 567 250 q 619 386 610 332 q 628 517 628 440 q 617 668 628 617 q 580 738 607 719 q 500 756 553 756 q 421 737 449 756 q 383 667 393 718 q 372 514 372 615 q 382 377 372 429 q 414 288 392 325 q 474 211 436 251 l 474 0 l 50 0 l 50 225 l 144 225 q 194 219 171 225 q 249 197 218 214 q 139 306 181 254 q 78 418 97 357 q 58 563 58 479 q 101 795 58 703 q 242 933 144 888 q 501 978 339 978 z "},"¬":{"ha":793,"x_min":57,"x_max":726,"o":"m 726 529 l 726 329 l 57 329 l 57 529 l 726 529 m 726 514 l 726 192 l 511 190 l 511 499 l 726 514 z "},"√":{"ha":819,"x_min":4,"x_max":824,"o":"m 824 1217 l 558 11 q 540 0 556 0 l 194 0 q 176 11 179 0 l 4 694 l 235 694 l 358 183 l 376 183 l 590 1217 l 824 1217 z "},"≈":{"ha":800,"x_min":49,"x_max":756,"o":"m 256 388 q 312 378 276 386 q 386 359 347 369 q 460 340 425 349 q 515 329 494 332 q 549 340 547 325 q 550 381 550 354 l 724 381 q 706 194 756 258 q 540 135 656 129 q 484 144 518 136 q 411 162 450 151 q 337 181 372 172 q 278 193 301 190 q 246 183 247 196 q 244 142 244 169 l 69 142 q 68 285 49 229 q 138 368 88 342 q 256 388 188 394 m 256 669 q 312 660 276 668 q 386 642 347 651 q 460 624 425 632 q 515 613 494 615 q 549 622 547 608 q 550 664 550 636 l 724 664 q 706 477 756 542 q 540 418 656 413 q 484 427 518 419 q 411 445 450 435 q 337 464 372 456 q 278 475 301 472 q 246 465 247 478 q 244 425 244 453 l 69 425 q 68 569 49 513 q 138 651 88 625 q 256 669 188 676 z "},"Δ":{"ha":978,"x_min":24,"x_max":954,"o":"m 638 958 l 954 94 l 954 0 l 24 0 l 24 94 l 340 958 l 638 958 m 489 672 q 476 602 482 638 q 460 532 469 567 l 358 211 l 619 211 l 517 532 q 501 602 507 567 q 489 672 496 638 z "},"◊":{"ha":793,"x_min":21,"x_max":772,"o":"m 413 956 l 763 496 q 763 465 772 481 l 413 3 q 382 3 397 -17 l 31 465 q 31 496 21 481 l 382 956 q 413 956 397 975 m 397 675 l 256 481 l 397 283 l 538 481 l 397 675 z "},"´":{"ha":544,"x_min":56,"x_max":489,"o":"m 379 1038 l 489 853 l 135 710 l 56 829 l 379 1038 z "},"˘":{"ha":571,"x_min":26,"x_max":544,"o":"m 399 999 l 533 981 q 517 865 544 919 q 431 776 490 810 q 286 742 372 742 q 142 776 201 742 q 54 865 82 810 q 38 981 26 919 l 172 999 q 198 936 172 956 q 286 917 224 917 q 373 936 347 917 q 399 999 399 956 z "},"ˇ":{"ha":663,"x_min":49,"x_max":617,"o":"m 550 1047 l 617 940 l 390 758 l 276 758 l 49 940 l 118 1047 l 328 942 l 339 942 l 550 1047 z "},"¸":{"ha":365,"x_min":19,"x_max":347,"o":"m 100 -46 q 242 -36 188 -36 q 322 -58 297 -36 q 344 -136 347 -81 q 297 -265 342 -215 q 179 -333 251 -314 q 19 -340 107 -351 l 50 -232 q 131 -221 96 -232 q 171 -161 167 -210 q 156 -146 174 -146 q 74 -146 139 -146 l 100 -46 z "},"ˆ":{"ha":663,"x_min":33,"x_max":626,"o":"m 439 1035 l 626 839 l 560 743 l 339 872 l 328 872 l 103 743 l 33 850 l 228 1035 l 439 1035 z "},"¨":{"ha":606,"x_min":69,"x_max":536,"o":"m 482 1000 q 536 946 536 1000 l 536 858 q 482 804 536 804 l 386 804 q 332 858 332 804 l 332 946 q 386 1000 332 1000 l 482 1000 m 219 1000 q 274 946 274 1000 l 274 858 q 219 804 274 804 l 124 804 q 69 858 69 804 l 69 946 q 124 1000 69 1000 l 219 1000 z "},"˙":{"ha":349,"x_min":49,"x_max":300,"o":"m 218 1006 q 300 926 300 1006 l 300 861 q 218 782 300 782 l 131 782 q 49 861 49 782 l 49 926 q 131 1006 49 1006 l 218 1006 z "},"`":{"ha":544,"x_min":56,"x_max":489,"o":"m 165 1065 l 489 857 l 410 738 l 56 881 l 165 1065 z "},"˝":{"ha":760,"x_min":56,"x_max":704,"o":"m 226 1050 l 406 933 l 171 689 l 56 782 l 226 1050 m 525 1050 l 704 933 l 468 689 l 354 781 l 525 1050 z "},"¯":{"ha":556,"x_min":56,"x_max":500,"o":"m 500 990 l 500 819 l 56 819 l 56 990 l 500 990 z "},"˛":{"ha":347,"x_min":35,"x_max":322,"o":"m 193 3 l 304 0 q 272 -58 288 -31 q 239 -121 256 -86 q 244 -165 221 -158 q 306 -167 267 -172 l 322 -267 q 179 -299 238 -299 q 88 -276 121 -299 q 44 -219 54 -254 q 47 -146 35 -183 q 94 -74 58 -112 q 193 3 129 -35 z "},"˚":{"ha":442,"x_min":42,"x_max":400,"o":"m 221 1083 q 310 1060 269 1083 q 376 997 351 1036 q 400 910 400 958 q 376 822 400 861 q 310 759 351 782 q 221 736 269 736 q 131 759 172 736 q 66 822 90 782 q 42 910 42 861 q 66 997 42 958 q 131 1060 90 1036 q 221 1083 172 1083 m 221 972 q 178 953 196 972 q 160 910 160 935 q 178 865 160 883 q 221 847 196 847 q 264 865 246 847 q 282 910 282 883 q 264 953 282 935 q 221 972 246 972 z "},"˜":{"ha":639,"x_min":47,"x_max":599,"o":"m 181 1006 q 247 996 217 1003 q 306 979 278 989 q 362 960 335 969 q 415 946 389 951 q 451 953 447 940 q 456 999 456 965 l 576 999 q 561 821 599 882 q 458 764 524 760 q 369 780 411 768 q 290 805 326 792 q 222 824 254 818 q 188 817 192 829 q 183 771 183 804 l 63 771 q 63 907 47 854 q 111 984 78 960 q 181 1006 144 1008 z "},"\r":{"ha":292,"x_min":0,"x_max":0,"o":""},"ﬁ":{"ha":1010,"x_min":11,"x_max":946,"o":"m 381 1006 q 482 1001 421 1006 q 590 986 543 997 l 590 811 l 485 811 q 433 795 447 811 q 419 739 419 779 l 419 0 l 126 0 l 126 779 q 151 896 126 844 q 231 976 175 947 q 381 1006 286 1006 m 653 694 l 653 519 l 11 519 l 11 688 l 128 694 l 653 694 m 944 694 l 944 0 l 651 0 l 651 694 l 944 694 m 860 1026 q 946 940 946 1026 l 946 869 q 860 783 946 783 l 739 783 q 653 869 653 783 l 653 940 q 739 1026 653 1026 l 860 1026 z "},"ﬂ":{"ha":1074,"x_min":11,"x_max":1074,"o":"m 376 1006 q 440 1006 394 1006 q 549 1004 486 1006 q 682 999 611 1003 q 822 990 753 996 q 947 972 890 983 l 947 253 q 961 215 947 226 q 1004 203 975 203 l 1042 203 l 1074 17 q 1017 -3 1054 4 q 942 -15 981 -11 q 876 -19 903 -19 q 715 32 774 -19 q 656 175 656 83 l 656 815 l 481 815 q 431 799 444 815 q 417 739 417 783 l 417 0 l 125 0 l 125 779 q 149 896 125 844 q 228 976 172 947 q 376 1006 283 1006 m 563 694 l 563 519 l 11 519 l 11 688 l 125 694 l 563 694 z "},"¹":{"ha":446,"x_min":8,"x_max":382,"o":"m 382 1075 l 382 500 l 160 500 l 160 821 q 161 862 160 842 q 168 904 163 882 l 33 885 l 8 1021 l 160 1075 l 382 1075 z "},"²":{"ha":599,"x_min":51,"x_max":550,"o":"m 279 1085 q 424 1072 367 1085 q 508 1024 481 1060 q 536 921 536 989 q 514 855 536 894 q 447 779 492 815 l 321 675 q 360 685 342 682 q 400 686 378 688 l 550 682 l 550 500 l 51 500 l 51 610 q 58 659 51 638 q 82 699 64 681 l 186 786 q 238 831 215 811 q 274 866 260 851 q 294 889 289 881 q 290 901 301 899 q 256 903 279 903 q 167 903 208 903 q 63 906 126 904 l 57 1068 q 188 1082 126 1079 q 279 1085 249 1085 z "},"³":{"ha":571,"x_min":44,"x_max":535,"o":"m 288 1088 q 467 1059 417 1088 q 517 953 517 1031 q 496 851 517 886 q 406 807 475 815 l 406 804 q 506 763 479 794 q 533 660 532 731 q 479 526 535 565 q 288 488 424 488 q 164 492 226 488 q 44 504 101 497 l 50 661 q 123 660 94 660 q 174 660 151 660 q 224 660 197 660 q 292 665 279 660 q 306 692 306 669 q 302 713 306 706 q 286 722 299 719 q 249 725 274 725 l 128 729 l 128 858 l 249 864 q 283 867 272 865 q 298 874 294 868 q 301 892 301 881 q 292 913 301 908 q 247 917 283 917 q 148 917 196 917 q 64 919 100 918 l 58 1071 q 174 1083 117 1079 q 288 1088 232 1088 z "}," ":{"ha":292,"x_min":0,"x_max":0,"o":""},"℮":{"ha":854,"x_min":97,"x_max":757,"o":"m 592 347 l 592 544 q 568 612 592 589 q 508 643 544 635 q 431 651 471 651 q 349 643 389 651 q 283 612 310 635 q 257 544 257 589 l 257 122 q 285 57 257 81 q 355 24 313 33 q 439 15 397 15 q 575 49 517 15 q 692 151 633 83 l 711 136 q 578 18 650 53 q 431 -17 506 -17 q 262 23 338 -17 q 142 141 186 63 q 97 333 97 219 q 142 526 97 449 q 262 644 186 604 q 431 683 338 683 q 591 647 517 683 q 711 535 665 610 q 757 347 757 461 l 592 347 m 575 360 l 757 360 l 757 328 l 219 328 l 219 353 q 260 355 229 354 q 335 356 292 356 q 426 358 379 357 q 512 359 472 358 q 575 360 551 360 z "},"Ắ":{"ha":949,"x_min":-12,"x_max":961,"o":"m 611 958 q 675 938 647 958 q 713 881 703 917 l 961 0 l 654 0 l 510 624 q 500 678 504 650 q 493 733 496 707 l 456 733 q 449 678 453 707 q 439 624 444 650 l 294 0 l -12 0 l 236 881 q 274 938 246 917 q 338 958 301 958 l 611 958 m 729 418 l 729 207 l 219 207 l 219 418 l 729 418 m 589 1281 l 724 1263 q 708 1147 735 1201 q 622 1058 681 1092 q 476 1024 563 1024 q 332 1058 392 1024 q 244 1147 272 1092 q 228 1263 217 1201 l 363 1281 q 388 1218 363 1238 q 476 1199 414 1199 q 563 1218 538 1199 q 589 1281 589 1238 m 625 1565 l 726 1399 l 444 1282 l 371 1390 l 625 1565 z "},"Ặ":{"ha":949,"x_min":-12,"x_max":961,"o":"m 589 1281 l 724 1263 q 708 1147 735 1201 q 622 1058 681 1092 q 476 1024 563 1024 q 332 1058 392 1024 q 244 1147 272 1092 q 228 1263 217 1201 l 363 1281 q 388 1218 363 1238 q 476 1199 414 1199 q 563 1218 538 1199 q 589 1281 589 1238 m 611 958 q 675 938 647 958 q 713 881 703 917 l 961 0 l 654 0 l 510 624 q 500 678 504 650 q 493 733 496 707 l 456 733 q 449 678 453 707 q 439 624 444 650 l 294 0 l -12 0 l 236 881 q 274 938 246 917 q 338 958 301 958 l 611 958 m 729 418 l 729 207 l 219 207 l 219 418 l 729 418 m 522 -54 q 604 -133 604 -54 l 604 -199 q 522 -278 604 -278 l 435 -278 q 353 -199 353 -278 l 353 -133 q 435 -54 353 -54 l 522 -54 z "},"Ằ":{"ha":949,"x_min":-12,"x_max":961,"o":"m 611 958 q 675 938 647 958 q 713 881 703 917 l 961 0 l 654 0 l 510 624 q 500 678 504 650 q 493 733 496 707 l 456 733 q 449 678 453 707 q 439 624 444 650 l 294 0 l -12 0 l 236 881 q 274 938 246 917 q 338 958 301 958 l 611 958 m 729 418 l 729 207 l 219 207 l 219 418 l 729 418 m 364 1281 q 390 1218 364 1238 q 476 1199 415 1199 q 565 1218 539 1199 q 590 1281 590 1238 l 725 1263 q 708 1147 736 1201 q 622 1058 681 1092 q 476 1024 563 1024 q 332 1058 392 1024 q 245 1147 272 1092 q 229 1263 218 1201 l 364 1281 m 328 1565 l 582 1390 l 508 1282 l 226 1399 l 328 1565 z "},"Ẳ":{"ha":949,"x_min":-12,"x_max":961,"o":"m 611 958 q 675 938 647 958 q 713 881 703 917 l 961 0 l 654 0 l 510 624 q 500 678 504 650 q 493 733 496 707 l 456 733 q 449 678 453 707 q 439 624 444 650 l 294 0 l -12 0 l 236 881 q 274 938 246 917 q 338 958 301 958 l 611 958 m 729 418 l 729 207 l 219 207 l 219 418 l 729 418 m 589 1281 l 724 1263 q 708 1147 735 1201 q 622 1058 681 1092 q 476 1024 563 1024 q 332 1058 392 1024 q 244 1147 272 1092 q 228 1263 217 1201 l 363 1281 q 388 1218 363 1238 q 476 1199 414 1199 q 563 1218 538 1199 q 589 1281 589 1238 m 432 1388 q 470 1404 456 1394 q 486 1436 485 1414 q 463 1460 488 1460 q 414 1446 439 1460 l 388 1558 q 509 1576 456 1585 q 593 1532 563 1568 q 624 1436 624 1496 q 573 1328 624 1365 q 457 1282 522 1292 l 432 1388 z "},"Ẵ":{"ha":949,"x_min":-12,"x_max":961,"o":"m 611 958 q 675 938 647 958 q 713 881 703 917 l 961 0 l 654 0 l 510 624 q 500 678 504 650 q 493 733 496 707 l 456 733 q 449 678 453 707 q 439 624 444 650 l 294 0 l -12 0 l 236 881 q 274 938 246 917 q 338 958 301 958 l 611 958 m 729 418 l 729 207 l 219 207 l 219 418 l 729 418 m 589 1281 l 724 1263 q 708 1147 735 1201 q 622 1058 681 1092 q 476 1024 563 1024 q 332 1058 392 1024 q 244 1147 272 1092 q 228 1263 217 1201 l 363 1281 q 388 1218 363 1238 q 476 1199 414 1199 q 563 1218 538 1199 q 589 1281 589 1238 m 350 1540 q 410 1531 382 1538 q 465 1517 439 1525 q 515 1500 490 1508 q 564 1486 539 1492 q 596 1492 592 1481 q 600 1533 600 1503 l 710 1533 q 695 1372 729 1428 q 603 1321 661 1315 q 541 1331 571 1324 q 484 1347 511 1339 q 433 1363 457 1356 q 389 1375 410 1371 q 356 1369 360 1381 q 353 1328 353 1358 l 243 1328 q 243 1451 229 1403 q 287 1521 257 1499 q 350 1540 317 1543 z "},"Ấ":{"ha":949,"x_min":-12,"x_max":1000,"o":"m 611 958 q 675 938 647 958 q 713 881 703 917 l 961 0 l 654 0 l 510 624 q 500 678 504 650 q 493 733 496 707 l 456 733 q 449 678 453 707 q 439 624 444 650 l 294 0 l -12 0 l 236 881 q 274 938 246 917 q 338 958 301 958 l 611 958 m 729 418 l 729 207 l 219 207 l 219 418 l 729 418 m 369 1278 l 581 1278 l 768 1107 l 699 1000 l 481 1118 l 469 1118 l 256 1000 l 189 1096 l 369 1278 m 867 1500 l 1000 1358 l 749 1185 l 654 1276 l 867 1500 z "},"Ậ":{"ha":949,"x_min":-12,"x_max":961,"o":"m 611 958 q 675 938 647 958 q 713 881 703 917 l 961 0 l 654 0 l 510 624 q 500 678 504 650 q 493 733 496 707 l 456 733 q 449 678 453 707 q 439 624 444 650 l 294 0 l -12 0 l 236 881 q 274 938 246 917 q 338 958 301 958 l 611 958 m 729 418 l 729 207 l 219 207 l 219 418 l 729 418 m 583 1278 l 771 1082 l 704 986 l 483 1115 l 472 1115 l 247 986 l 178 1093 l 372 1278 l 583 1278 m 522 -61 q 604 -140 604 -61 l 604 -206 q 522 -285 604 -285 l 435 -285 q 353 -206 353 -285 l 353 -140 q 435 -61 353 -61 l 522 -61 z "},"Ầ":{"ha":949,"x_min":-47,"x_max":961,"o":"m 611 958 q 675 938 647 958 q 713 881 703 917 l 961 0 l 654 0 l 510 624 q 500 678 504 650 q 493 733 496 707 l 456 733 q 449 678 453 707 q 439 624 444 650 l 294 0 l -12 0 l 236 881 q 274 938 246 917 q 338 958 301 958 l 611 958 m 729 418 l 729 207 l 219 207 l 219 418 l 729 418 m 583 1278 l 764 1096 l 697 1000 l 483 1118 l 472 1118 l 254 1000 l 185 1107 l 372 1278 l 583 1278 m 86 1500 l 299 1276 l 204 1185 l -47 1358 l 86 1500 z "},"Ẩ":{"ha":949,"x_min":-12,"x_max":961,"o":"m 611 958 q 675 938 647 958 q 713 881 703 917 l 961 0 l 654 0 l 510 624 q 500 678 504 650 q 493 733 496 707 l 456 733 q 449 678 453 707 q 439 624 444 650 l 294 0 l -12 0 l 236 881 q 274 938 246 917 q 338 958 301 958 l 611 958 m 729 418 l 729 207 l 219 207 l 219 418 l 729 418 m 369 1278 l 581 1278 l 768 1107 l 699 1000 l 481 1118 l 469 1118 l 256 1000 l 189 1096 l 369 1278 m 672 1325 q 710 1342 696 1332 q 726 1374 725 1351 q 703 1397 728 1397 q 654 1383 679 1397 l 628 1496 q 749 1514 696 1522 q 833 1469 803 1506 q 864 1374 864 1433 q 813 1266 864 1303 q 697 1219 763 1229 l 672 1325 z "},"Ẫ":{"ha":949,"x_min":-12,"x_max":961,"o":"m 611 958 q 675 938 647 958 q 713 881 703 917 l 961 0 l 654 0 l 510 624 q 500 678 504 650 q 493 733 496 707 l 456 733 q 449 678 453 707 q 439 624 444 650 l 294 0 l -12 0 l 236 881 q 274 938 246 917 q 338 958 301 958 l 611 958 m 729 418 l 729 207 l 219 207 l 219 418 l 729 418 m 583 1278 l 764 1096 l 697 1000 l 483 1118 l 472 1118 l 254 1000 l 185 1107 l 372 1278 l 583 1278 m 349 1546 q 409 1537 381 1543 q 463 1522 438 1531 q 513 1506 489 1514 q 563 1492 538 1497 q 594 1497 590 1486 q 599 1539 599 1508 l 708 1539 q 694 1377 728 1433 q 601 1326 660 1321 q 540 1337 569 1329 q 483 1353 510 1344 q 432 1369 456 1361 q 388 1381 408 1376 q 355 1375 358 1386 q 351 1333 351 1364 l 242 1333 q 242 1456 228 1408 q 285 1526 256 1504 q 349 1546 315 1549 z "},"Ȁ":{"ha":949,"x_min":-12,"x_max":961,"o":"m 611 958 q 675 938 647 958 q 713 881 703 917 l 961 0 l 654 0 l 510 624 q 500 678 504 650 q 493 733 496 707 l 456 733 q 449 678 453 707 q 439 624 444 650 l 294 0 l -12 0 l 236 881 q 274 938 246 917 q 338 958 301 958 l 611 958 m 729 418 l 729 207 l 219 207 l 219 418 l 729 418 m 574 1372 l 744 1104 l 629 1011 l 394 1256 l 574 1372 m 275 1372 l 446 1103 l 332 1011 l 96 1256 l 275 1372 z "},"Ạ":{"ha":949,"x_min":-12,"x_max":961,"o":"m 611 958 q 675 938 647 958 q 713 881 703 917 l 961 0 l 654 0 l 510 624 q 500 678 504 650 q 493 733 496 707 l 456 733 q 449 678 453 707 q 439 624 444 650 l 294 0 l -12 0 l 236 881 q 274 938 246 917 q 338 958 301 958 l 611 958 m 729 418 l 729 207 l 219 207 l 219 418 l 729 418 m 522 -54 q 604 -133 604 -54 l 604 -199 q 522 -278 604 -278 l 435 -278 q 353 -199 353 -278 l 353 -133 q 435 -54 353 -54 l 522 -54 z "},"Ả":{"ha":949,"x_min":-12,"x_max":961,"o":"m 611 958 q 675 938 647 958 q 713 881 703 917 l 961 0 l 654 0 l 510 624 q 500 678 504 650 q 493 733 496 707 l 456 733 q 449 678 453 707 q 439 624 444 650 l 294 0 l -12 0 l 236 881 q 274 938 246 917 q 338 958 301 958 l 611 958 m 729 418 l 729 207 l 219 207 l 219 418 l 729 418 m 443 1132 q 490 1155 474 1143 q 507 1197 507 1167 q 479 1233 507 1229 q 422 1222 451 1238 l 393 1353 q 533 1372 472 1383 q 630 1317 594 1361 q 665 1204 665 1274 q 638 1103 665 1143 q 567 1040 611 1063 q 472 1011 524 1018 l 443 1132 z "},"Ȃ":{"ha":949,"x_min":-12,"x_max":961,"o":"m 611 958 q 675 938 647 958 q 713 881 703 917 l 961 0 l 654 0 l 510 624 q 500 678 504 650 q 493 733 496 707 l 456 733 q 449 678 453 707 q 439 624 444 650 l 294 0 l -12 0 l 236 881 q 274 938 246 917 q 338 958 301 958 l 611 958 m 729 418 l 729 207 l 219 207 l 219 418 l 729 418 m 363 1024 l 228 1042 q 244 1158 217 1104 q 331 1247 271 1213 q 475 1281 390 1281 q 620 1247 561 1281 q 707 1158 679 1213 q 724 1042 735 1104 l 589 1024 q 563 1087 589 1068 q 475 1106 538 1106 q 388 1087 414 1106 q 363 1024 363 1068 z "}}}
